<svg preserveAspectRatio="none" width="100%" height="100%" overflow="visible" style="display: block;" viewBox="0 0 232.398 283.663" fill="none" xmlns="http://www.w3.org/2000/svg">
<g id="Union">
<path d="M34.6925 35.4982C79.2621 -9.51636 151.885 -9.87677 196.9 34.6925C241.914 79.2623 242.275 151.885 197.705 196.9C196.483 198.134 195.239 199.333 193.976 200.5H194.331L116.389 281.5L38.6417 200.702C37.5801 199.727 36.5313 198.728 35.4981 197.705C-9.51608 153.135 -9.877 80.5128 34.6925 35.4982Z" fill="var(--fill-0, black)"/>
<path d="M34.6925 35.4982L33.6266 34.4428H33.6266L34.6925 35.4982ZM196.9 34.6925L197.955 33.6266V33.6266L196.9 34.6925ZM197.705 196.9L198.771 197.955V197.955L197.705 196.9ZM193.976 200.5L192.958 199.398L190.142 202H193.976V200.5ZM194.331 200.5L195.412 201.54L197.856 199H194.331V200.5ZM116.389 281.5L115.308 282.54L116.389 283.663L117.47 282.54L116.389 281.5ZM38.6417 200.702L39.7226 199.662L39.6906 199.629L39.6567 199.598L38.6417 200.702ZM35.4981 197.705L34.4428 198.771L34.4428 198.771L35.4981 197.705ZM34.6925 35.4982L35.7584 36.5536C79.7451 -7.87228 151.418 -8.22799 195.844 35.7585L196.9 34.6925L197.955 33.6266C152.351 -11.5255 78.7791 -11.1604 33.6266 34.4428L34.6925 35.4982ZM196.9 34.6925L195.844 35.7585C240.27 79.7454 240.626 151.418 196.639 195.844L197.705 196.9L198.771 197.955C243.924 152.352 243.558 78.7793 197.955 33.6266L196.9 34.6925ZM197.705 196.9L196.639 195.844C195.434 197.062 194.205 198.246 192.958 199.398L193.976 200.5L194.994 201.602C196.272 200.42 197.533 199.206 198.771 197.955L197.705 196.9ZM193.976 200.5V202H194.331V200.5V199H193.976V200.5ZM194.331 200.5L193.25 199.46L115.308 280.46L116.389 281.5L117.47 282.54L195.412 201.54L194.331 200.5ZM116.389 281.5L117.47 280.46L39.7226 199.662L38.6417 200.702L37.5608 201.742L115.308 282.54L116.389 281.5ZM38.6417 200.702L39.6567 199.598C38.6081 198.634 37.5728 197.649 36.5535 196.639L35.4981 197.705L34.4428 198.771C35.4898 199.808 36.5521 200.819 37.6267 201.807L38.6417 200.702ZM35.4981 197.705L36.5535 196.639C-7.87202 152.652 -8.22821 80.9795 35.7584 36.5536L34.6925 35.4982L33.6266 34.4428C-11.5258 80.0461 -11.1601 153.619 34.4428 198.771L35.4981 197.705Z" fill="url(#paint0_linear_0_608)"/>
</g>
<defs>
<linearGradient id="paint0_linear_0_608" x1="116.199" y1="1.50016" x2="116.199" y2="281.5" gradientUnits="userSpaceOnUse">
<stop stop-color="white"/>
<stop offset="1" stop-color="white"/>
</linearGradient>
</defs>
</svg>
