<svg preserveAspectRatio="none" width="100%" height="100%" overflow="visible" style="display: block;" viewBox="0 0 232.398 283.663" fill="none" xmlns="http://www.w3.org/2000/svg">
<g id="Union">
<path d="M34.6926 35.4977C79.2623 -9.51666 151.885 -9.87648 196.9 34.693C241.914 79.2629 242.275 151.885 197.705 196.9C196.484 198.134 195.239 199.333 193.977 200.5H194.33L116.388 281.5L38.6496 200.711C37.5852 199.733 36.5341 198.731 35.4982 197.706C-9.51623 153.136 -9.87691 80.5124 34.6926 35.4977Z" fill="var(--fill-0, black)"/>
<path d="M34.6926 35.4977L33.6267 34.4424L33.6267 34.4424L34.6926 35.4977ZM196.9 34.693L197.955 33.6271L197.955 33.6271L196.9 34.693ZM197.705 196.9L198.771 197.955L198.771 197.955L197.705 196.9ZM193.977 200.5L192.959 199.398L190.143 202H193.977V200.5ZM194.33 200.5L195.411 201.54L197.855 199H194.33V200.5ZM116.388 281.5L115.307 282.54L116.388 283.663L117.469 282.54L116.388 281.5ZM38.6496 200.711L39.7305 199.671L39.6985 199.637L39.6645 199.606L38.6496 200.711ZM35.4982 197.706L34.4429 198.772H34.4429L35.4982 197.706ZM34.6926 35.4977L35.7585 36.5531C79.7454 -7.87258 151.418 -8.22771 195.844 35.759L196.9 34.693L197.955 33.6271C152.352 -11.5252 78.7793 -11.1607 33.6267 34.4424L34.6926 35.4977ZM196.9 34.693L195.844 35.759C240.27 79.7459 240.626 151.419 196.639 195.845L197.705 196.9L198.771 197.955C243.924 152.352 243.558 78.7798 197.955 33.6271L196.9 34.693ZM197.705 196.9L196.639 195.845C195.434 197.062 194.206 198.246 192.959 199.398L193.977 200.5L194.995 201.601C196.273 200.42 197.533 199.206 198.771 197.955L197.705 196.9ZM193.977 200.5V202H194.33V200.5V199H193.977V200.5ZM194.33 200.5L193.249 199.46L115.307 280.46L116.388 281.5L117.469 282.54L195.411 201.54L194.33 200.5ZM116.388 281.5L117.469 280.46L39.7305 199.671L38.6496 200.711L37.5687 201.751L115.307 282.54L116.388 281.5ZM38.6496 200.711L39.6645 199.606C38.6134 198.64 37.5758 197.652 36.5536 196.64L35.4982 197.706L34.4429 198.772C35.4923 199.811 36.5571 200.825 37.6347 201.815L38.6496 200.711ZM35.4982 197.706L36.5536 196.64C-7.87216 152.653 -8.22813 80.9791 35.7585 36.5531L34.6926 35.4977L33.6267 34.4424C-11.5257 80.0457 -11.1603 153.619 34.4429 198.772L35.4982 197.706Z" fill="url(#paint0_linear_0_572)"/>
</g>
<defs>
<linearGradient id="paint0_linear_0_572" x1="116.199" y1="1.49969" x2="116.199" y2="281.499" gradientUnits="userSpaceOnUse">
<stop stop-color="white"/>
<stop offset="1" stop-color="white"/>
</linearGradient>
</defs>
</svg>
