<svg preserveAspectRatio="none" width="100%" height="100%" overflow="visible" style="display: block;" viewBox="0 0 232.398 283.664" fill="none" xmlns="http://www.w3.org/2000/svg">
<g id="Union">
<path d="M34.6926 35.4983C79.2623 -9.51633 151.885 -9.87684 196.9 34.6926C241.914 79.2624 242.275 151.885 197.705 196.9C196.483 198.134 195.237 199.333 193.974 200.5H194.33L116.388 281.5L38.6399 200.701C37.5788 199.726 36.531 198.728 35.4983 197.705C-9.51613 153.136 -9.87703 80.5129 34.6926 35.4983Z" fill="var(--fill-0, black)"/>
<path d="M34.6926 35.4983L33.6267 34.4429V34.4429L34.6926 35.4983ZM196.9 34.6926L197.955 33.6267L197.955 33.6267L196.9 34.6926ZM197.705 196.9L198.771 197.955V197.955L197.705 196.9ZM193.974 200.5L192.956 199.399L190.14 202H193.974V200.5ZM194.33 200.5L195.411 201.54L197.855 199H194.33V200.5ZM116.388 281.5L115.307 282.54L116.388 283.664L117.469 282.54L116.388 281.5ZM38.6399 200.701L39.7207 199.661L39.6888 199.628L39.6549 199.597L38.6399 200.701ZM35.4983 197.705L34.4429 198.771H34.4429L35.4983 197.705ZM34.6926 35.4983L35.7585 36.5537C79.7453 -7.87226 151.418 -8.22806 195.844 35.7585L196.9 34.6926L197.955 33.6267C152.352 -11.5256 78.7792 -11.1604 33.6267 34.4429L34.6926 35.4983ZM196.9 34.6926L195.844 35.7585C240.27 79.7455 240.626 151.418 196.639 195.844L197.705 196.9L198.771 197.955C243.924 152.352 243.558 78.7794 197.955 33.6267L196.9 34.6926ZM197.705 196.9L196.639 195.844C195.434 197.062 194.204 198.245 192.956 199.399L193.974 200.5L194.992 201.602C196.27 200.421 197.532 199.207 198.771 197.955L197.705 196.9ZM193.974 200.5V202H194.33V200.5V199H193.974V200.5ZM194.33 200.5L193.249 199.46L115.307 280.46L116.388 281.5L117.469 282.54L195.411 201.54L194.33 200.5ZM116.388 281.5L117.469 280.46L39.7207 199.661L38.6399 200.701L37.559 201.741L115.307 282.54L116.388 281.5ZM38.6399 200.701L39.6549 199.597C38.6071 198.634 37.5728 197.648 36.5537 196.639L35.4983 197.705L34.4429 198.771C35.4892 199.807 36.5504 200.818 37.6249 201.806L38.6399 200.701ZM35.4983 197.705L36.5537 196.639C-7.87207 152.652 -8.22824 80.9796 35.7585 36.5537L34.6926 35.4983L33.6267 34.4429C-11.5258 80.0462 -11.1602 153.619 34.4429 198.771L35.4983 197.705Z" fill="url(#paint0_linear_0_726)"/>
</g>
<defs>
<linearGradient id="paint0_linear_0_726" x1="116.199" y1="1.50023" x2="116.199" y2="281.499" gradientUnits="userSpaceOnUse">
<stop stop-color="white"/>
<stop offset="1" stop-color="white"/>
</linearGradient>
</defs>
</svg>
