<svg preserveAspectRatio="none" width="100%" height="100%" overflow="visible" style="display: block;" viewBox="0 0 422.983 422.983" fill="none" xmlns="http://www.w3.org/2000/svg">
<path id="Union" opacity="0.25" d="M407.199 422.983H14.7822V421.983H407.199V422.983ZM1 408.2H0V15.7832H1V408.2ZM30.5654 26.8789H57.7871V15.7832H58.7871V26.8789H84.665V15.7832H85.665V26.8789H112.887V15.7832H113.887V26.8789H142.453V15.7832H143.453V26.8789H170.675V15.7832H171.675V26.8789H197.552V15.7832H198.552V26.8789H224.431V15.7832H225.431V26.8789H253.996V15.7832H254.996V26.8789H282.218V15.7832H283.218V26.8789H309.096V15.7832H310.096V26.8789H337.317V15.7832H338.317V26.8789H366.883V15.7832H367.883V26.8789H395.104V15.7832H396.104V26.8789H407.199V27.8789H396.104V55.1006H407.199V56.1006H396.104V84.666H407.199V85.666H396.104V112.888H407.199V113.888H396.104V139.766H407.199V140.766H396.104V167.987H407.199V168.987H396.104V197.553H407.199V198.553H396.104V224.431H407.199V225.431H396.104V251.31H407.199V252.31H396.104V279.531H407.199V280.531H396.104V337.318H407.199V338.318H396.104V364.196H407.199V365.196H396.104V392.418H407.199V393.418H396.104V408.2H395.104V393.418H367.883V408.2H366.883V393.418H338.317V408.2H337.317V393.418H310.096V408.2H309.096V393.418H283.218V408.2H282.218V393.418H254.996V408.2H253.996V393.418H225.431V408.2H224.431V393.418H198.552V408.2H197.552V393.418H171.675V408.2H170.675V393.418H143.453V408.2H142.453V393.418H113.887V408.2H112.887V393.418H85.665V408.2H84.665V393.418H58.7871V408.2H57.7871V393.418H30.5654V408.2H29.5654V393.418H14.7822V392.418H29.5654V365.196H14.7822V364.196H29.5654V338.318H14.7822V337.318H29.5654V280.531H14.7822V279.531H29.5654V252.31H14.7822V251.31H29.5654V225.431H14.7822V224.431H29.5654V198.553H14.7822V197.553H29.5654V168.987H14.7822V167.987H29.5654V140.766H14.7822V139.766H29.5654V113.888H14.7822V112.888H29.5654V85.666H14.7822V84.666H29.5654V56.1006H14.7822V55.1006H29.5654V27.8789H14.7822V26.8789H29.5654V15.7832H30.5654V26.8789ZM422.983 408.2H421.983V15.7832H422.983V408.2ZM30.5654 392.418H57.7871V365.196H30.5654V392.418ZM58.7871 392.418H84.665V365.196H58.7871V392.418ZM85.665 392.418H112.887V365.196H85.665V392.418ZM113.887 392.418H142.453V365.196H113.887V392.418ZM143.453 392.418H170.675V365.196H143.453V392.418ZM171.675 392.418H197.552V365.196H171.675V392.418ZM198.552 392.418H224.431V365.196H198.552V392.418ZM225.431 392.418H253.996V365.196H225.431V392.418ZM254.996 392.418H282.218V365.196H254.996V392.418ZM283.218 392.418H309.096V365.196H283.218V392.418ZM310.096 392.418H337.317V365.196H310.096V392.418ZM338.317 392.418H366.883V365.196H338.317V392.418ZM367.883 392.418H395.104V365.196H367.883V392.418ZM30.5654 364.196H57.7871V338.318H30.5654V364.196ZM58.7871 364.196H84.665V338.318H58.7871V364.196ZM85.665 364.196H112.887V338.318H85.665V364.196ZM113.887 364.196H142.453V338.318H113.887V364.196ZM143.453 364.196H170.675V338.318H143.453V364.196ZM171.675 364.196H197.552V338.318H171.675V364.196ZM198.552 364.196H224.431V338.318H198.552V364.196ZM225.431 364.196H253.996V338.318H225.431V364.196ZM254.996 364.196H282.218V338.318H254.996V364.196ZM283.218 364.196H309.096V338.318H283.218V364.196ZM310.096 364.196H337.317V338.318H310.096V364.196ZM338.317 364.196H366.883V338.318H338.317V364.196ZM367.883 364.196H395.104V338.318H367.883V364.196ZM30.5654 337.318H57.7871V280.531H30.5654V337.318ZM58.7871 337.318H84.665V280.531H58.7871V337.318ZM85.665 337.318H112.887V280.531H85.665V337.318ZM113.887 337.318H142.453V280.531H113.887V337.318ZM143.453 337.318H170.675V280.531H143.453V337.318ZM171.675 337.318H197.552V280.531H171.675V337.318ZM198.552 337.318H224.431V280.531H198.552V337.318ZM225.431 337.318H253.996V280.531H225.431V337.318ZM254.996 337.318H282.218V280.531H254.996V337.318ZM283.218 337.318H309.096V280.531H283.218V337.318ZM310.096 337.318H337.317V280.531H310.096V337.318ZM338.317 337.318H366.883V280.531H338.317V337.318ZM367.883 337.318H395.104V280.531H367.883V337.318ZM30.5654 279.531H57.7871V252.31H30.5654V279.531ZM58.7871 279.531H84.665V252.31H58.7871V279.531ZM85.665 279.531H112.887V252.31H85.665V279.531ZM113.887 279.531H142.453V252.31H113.887V279.531ZM143.453 279.531H170.675V252.31H143.453V279.531ZM171.675 279.531H197.552V252.31H171.675V279.531ZM198.552 279.531H224.431V252.31H198.552V279.531ZM225.431 279.531H253.996V252.31H225.431V279.531ZM254.996 279.531H282.218V252.31H254.996V279.531ZM283.218 279.531H309.096V252.31H283.218V279.531ZM310.096 279.531H337.317V252.31H310.096V279.531ZM338.317 279.531H366.883V252.31H338.317V279.531ZM367.883 279.531H395.104V252.31H367.883V279.531ZM30.5654 225.431V251.31H57.7871V225.431H30.5654ZM58.7871 225.431V251.31H84.665V225.431H58.7871ZM85.665 225.431V251.31H112.887V225.431H85.665ZM113.887 225.431V251.31H142.453V225.431H113.887ZM143.453 225.431V251.31H170.675V225.431H143.453ZM171.675 225.431V251.31H197.552V225.431H171.675ZM198.552 225.431V251.31H224.431V225.431H198.552ZM225.431 225.431V251.31H253.996V225.431H225.431ZM254.996 225.431V251.31H282.218V225.431H254.996ZM283.218 225.431V251.31H309.096V225.431H283.218ZM310.096 225.431V251.31H337.317V225.431H310.096ZM338.317 225.431V251.31H366.883V225.431H338.317ZM367.883 225.431V251.31H395.104V225.431H367.883ZM30.5654 224.431H57.7871V198.553H30.5654V224.431ZM58.7871 224.431H84.665V198.553H58.7871V224.431ZM85.665 224.431H112.887V198.553H85.665V224.431ZM113.887 224.431H142.453V198.553H113.887V224.431ZM143.453 224.431H170.675V198.553H143.453V224.431ZM171.675 224.431H197.552V198.553H171.675V224.431ZM198.552 224.431H224.431V198.553H198.552V224.431ZM225.431 224.431H253.996V198.553H225.431V224.431ZM254.996 224.431H282.218V198.553H254.996V224.431ZM283.218 224.431H309.096V198.553H283.218V224.431ZM310.096 224.431H337.317V198.553H310.096V224.431ZM338.317 224.431H366.883V198.553H338.317V224.431ZM367.883 224.431H395.104V198.553H367.883V224.431ZM30.5654 197.553H57.7871V168.987H30.5654V197.553ZM58.7871 197.553H84.665V168.987H58.7871V197.553ZM85.665 197.553H112.887V168.987H85.665V197.553ZM113.887 197.553H142.453V168.987H113.887V197.553ZM143.453 197.553H170.675V168.987H143.453V197.553ZM171.675 197.553H197.552V168.987H171.675V197.553ZM198.552 197.553H224.431V168.987H198.552V197.553ZM225.431 197.553H253.996V168.987H225.431V197.553ZM254.996 197.553H282.218V168.987H254.996V197.553ZM283.218 197.553H309.096V168.987H283.218V197.553ZM310.096 197.553H337.317V168.987H310.096V197.553ZM338.317 197.553H366.883V168.987H338.317V197.553ZM367.883 197.553H395.104V168.987H367.883V197.553ZM30.5654 167.987H57.7871V140.766H30.5654V167.987ZM58.7871 167.987H84.665V140.766H58.7871V167.987ZM85.665 167.987H112.887V140.766H85.665V167.987ZM113.887 167.987H142.453V140.766H113.887V167.987ZM143.453 167.987H170.675V140.766H143.453V167.987ZM171.675 167.987H197.552V140.766H171.675V167.987ZM198.552 167.987H224.431V140.766H198.552V167.987ZM225.431 167.987H253.996V140.766H225.431V167.987ZM254.996 167.987H282.218V140.766H254.996V167.987ZM283.218 167.987H309.096V140.766H283.218V167.987ZM310.096 167.987H337.317V140.766H310.096V167.987ZM338.317 167.987H366.883V140.766H338.317V167.987ZM367.883 167.987H395.104V140.766H367.883V167.987ZM30.5654 139.766H57.7871V113.888H30.5654V139.766ZM58.7871 139.766H84.665V113.888H58.7871V139.766ZM85.665 139.766H112.887V113.888H85.665V139.766ZM113.887 139.766H142.453V113.888H113.887V139.766ZM143.453 139.766H170.675V113.888H143.453V139.766ZM171.675 139.766H197.552V113.888H171.675V139.766ZM198.552 139.766H224.431V113.888H198.552V139.766ZM225.431 139.766H253.996V113.888H225.431V139.766ZM254.996 139.766H282.218V113.888H254.996V139.766ZM283.218 139.766H309.096V113.888H283.218V139.766ZM310.096 139.766H337.317V113.888H310.096V139.766ZM338.317 139.766H366.883V113.888H338.317V139.766ZM367.883 139.766H395.104V113.888H367.883V139.766ZM30.5654 112.888H57.7871V85.666H30.5654V112.888ZM58.7871 112.888H84.665V85.666H58.7871V112.888ZM85.665 112.888H112.887V85.666H85.665V112.888ZM113.887 112.888H142.453V85.666H113.887V112.888ZM143.453 112.888H170.675V85.666H143.453V112.888ZM171.675 112.888H197.552V85.666H171.675V112.888ZM198.552 112.888H224.431V85.666H198.552V112.888ZM225.431 112.888H253.996V85.666H225.431V112.888ZM254.996 112.888H282.218V85.666H254.996V112.888ZM283.218 112.888H309.096V85.666H283.218V112.888ZM310.096 112.888H337.317V85.666H310.096V112.888ZM338.317 112.888H366.883V85.666H338.317V112.888ZM367.883 112.888H395.104V85.666H367.883V112.888ZM30.5654 84.666H57.7871V56.1006H30.5654V84.666ZM58.7871 84.666H84.665V56.1006H58.7871V84.666ZM85.665 84.666H112.887V56.1006H85.665V84.666ZM113.887 84.666H142.453V56.1006H113.887V84.666ZM143.453 84.666H170.675V56.1006H143.453V84.666ZM171.675 84.666H197.552V56.1006H171.675V84.666ZM198.552 84.666H224.431V56.1006H198.552V84.666ZM225.431 84.666H253.996V56.1006H225.431V84.666ZM254.996 84.666H282.218V56.1006H254.996V84.666ZM283.218 84.666H309.096V56.1006H283.218V84.666ZM310.096 84.666H337.317V56.1006H310.096V84.666ZM338.317 84.666H366.883V56.1006H338.317V84.666ZM367.883 84.666H395.104V56.1006H367.883V84.666ZM30.5654 55.1006H57.7871V27.8789H30.5654V55.1006ZM58.7871 55.1006H84.665V27.8789H58.7871V55.1006ZM85.665 55.1006H112.887V27.8789H85.665V55.1006ZM113.887 55.1006H142.453V27.8789H113.887V55.1006ZM143.453 55.1006H170.675V27.8789H143.453V55.1006ZM171.675 55.1006H197.552V27.8789H171.675V55.1006ZM198.552 55.1006H224.431V27.8789H198.552V55.1006ZM225.431 55.1006H253.996V27.8789H225.431V55.1006ZM254.996 55.1006H282.218V27.8789H254.996V55.1006ZM283.218 55.1006H309.096V27.8789H283.218V55.1006ZM310.096 55.1006H337.317V27.8789H310.096V55.1006ZM338.317 55.1006H366.883V27.8789H338.317V55.1006ZM367.883 55.1006H395.104V27.8789H367.883V55.1006ZM407.199 1H14.7822V0H407.199V1Z" fill="url(#paint0_radial_0_576)"/>
<defs>
<radialGradient id="paint0_radial_0_576" cx="0" cy="0" r="1" gradientUnits="userSpaceOnUse" gradientTransform="translate(177 197) rotate(-87.0643) scale(117.154 153.782)">
<stop stop-color="#8F7BFF"/>
<stop offset="1" stop-color="#644F8F" stop-opacity="0"/>
</radialGradient>
</defs>
</svg>
