<svg preserveAspectRatio="none" width="100%" height="100%" overflow="visible" style="display: block;" viewBox="0 0 996.619 996.619" fill="none" xmlns="http://www.w3.org/2000/svg">
<path id="Union" opacity="0.25" d="M960.741 996.619H34.8789V995.619H960.741V996.619ZM1 961.742H0V35.8799H1V961.742ZM137.343 63.417H199.759V35.8799H200.759V63.417H266.344V35.8799H267.344V63.417H336.102V35.8789H337.102V63.417H402.688V35.8799H403.688V63.417H466.102V35.8799H467.102V63.417H529.517V35.8799H530.517V63.417H599.274V35.8799H600.274V63.417H665.86V35.8799H666.86V63.417H729.274V35.8799H730.274V63.417H795.861V35.8799H796.861V63.417H865.617V35.8799H866.617V63.417H932.204V35.8799H933.204V63.417H960.741V64.417H933.204V130.002H960.74V131.002H933.204V199.759H960.741V200.759H933.204V266.344H960.741V267.344H933.204V329.76H960.74V330.76H933.204V396.346H960.741V397.346H933.204V466.102H960.741V467.102H933.204V529.518H960.74V530.518H933.204V592.934H960.741V593.934H933.204V659.52H960.741V660.52H933.204V795.861H960.741V796.861H933.204V859.277H960.741V860.277H933.204V925.863H960.741V926.863H933.204V961.742H932.204V926.863H866.617V961.742H865.617V926.863H796.861V961.742H795.861V926.863H730.274V961.742H729.274V926.863H666.86V961.742H665.86V926.863H600.274V961.742H599.274V926.863H530.517V961.742H529.517V926.863H467.102V961.742H466.102V926.863H403.688V961.742H402.688V926.863H337.102V961.741H336.102V926.863H267.344V961.742H266.344V926.863H200.759V961.742H199.759V926.863H137.343V961.741H136.343V926.863H70.7568V961.742H69.7568V926.863H34.8789V925.863H69.7568V860.277H34.8789V859.277H69.7568V796.861H34.8789V795.861H69.7568V660.52H34.8789V659.52H69.7568V593.934H34.8789V592.934H69.7568V530.518H34.8779V529.518H69.7568V467.102H34.8789V466.102H69.7568V397.346H34.8789V396.346H69.7568V330.76H34.8779V329.76H69.7568V267.344H34.8789V266.344H69.7568V200.759H34.8789V199.759H69.7568V131.002H34.8779V130.002H69.7568V64.417H34.8789V63.417H69.7568V35.8799H70.7568V63.417H136.343V35.8789H137.343V63.417ZM996.619 961.741H995.619V35.8789H996.619V961.741ZM70.7568 925.863H136.343V860.277H70.7568V925.863ZM137.343 925.863H199.759V860.277H137.343V925.863ZM200.759 925.863H266.344V860.277H200.759V925.863ZM267.344 925.863H336.102V860.277H267.344V925.863ZM337.102 925.863H402.688V860.277H337.102V925.863ZM403.688 925.863H466.102V860.277H403.688V925.863ZM467.102 925.863H529.517V860.277H467.102V925.863ZM530.517 925.863H599.274V860.277H530.517V925.863ZM600.274 925.863H665.86V860.277H600.274V925.863ZM666.86 925.863H729.274V860.277H666.86V925.863ZM730.274 925.863H795.861V860.277H730.274V925.863ZM796.861 925.863H865.617V860.277H796.861V925.863ZM866.617 925.863H932.204V860.277H866.617V925.863ZM70.7568 859.277H136.343V796.861H70.7568V859.277ZM137.343 859.277H199.759V796.861H137.343V859.277ZM200.759 859.277H266.344V796.861H200.759V859.277ZM267.344 859.277H336.102V796.861H267.344V859.277ZM337.102 859.277H402.688V796.861H337.102V859.277ZM403.688 859.277H466.102V796.861H403.688V859.277ZM467.102 859.277H529.517V796.861H467.102V859.277ZM530.517 859.277H599.274V796.861H530.517V859.277ZM600.274 859.277H665.86V796.861H600.274V859.277ZM666.86 859.277H729.274V796.861H666.86V859.277ZM730.274 859.277H795.861V796.861H730.274V859.277ZM796.861 859.277H865.617V796.861H796.861V859.277ZM866.617 859.277H932.204V796.861H866.617V859.277ZM70.7568 795.861H136.343V660.52H70.7568V795.861ZM137.343 795.861H199.759V660.52H137.343V795.861ZM200.759 795.861H266.344V660.52H200.759V795.861ZM267.344 795.861H336.102V660.52H267.344V795.861ZM337.102 795.861H402.688V660.52H337.102V795.861ZM403.688 795.861H466.102V660.52H403.688V795.861ZM467.102 795.861H529.517V660.52H467.102V795.861ZM530.517 795.861H599.274V660.52H530.517V795.861ZM600.274 795.861H665.86V660.52H600.274V795.861ZM666.86 795.861H729.274V660.52H666.86V795.861ZM730.274 795.861H795.861V660.52H730.274V795.861ZM796.861 795.861H865.617V660.52H796.861V795.861ZM866.617 795.861H932.204V660.52H866.617V795.861ZM70.7568 659.52H136.343V593.934H70.7568V659.52ZM137.343 659.52H199.759V593.934H137.343V659.52ZM200.759 659.52H266.344V593.934H200.759V659.52ZM267.344 659.52H336.102V593.934H267.344V659.52ZM337.102 659.52H402.688V593.934H337.102V659.52ZM403.688 659.52H466.102V593.934H403.688V659.52ZM467.102 659.52H529.517V593.934H467.102V659.52ZM530.517 659.52H599.274V593.934H530.517V659.52ZM600.274 659.52H665.86V593.934H600.274V659.52ZM666.86 659.52H729.274V593.934H666.86V659.52ZM730.274 659.52H795.861V593.934H730.274V659.52ZM796.861 659.52H865.617V593.934H796.861V659.52ZM866.617 659.52H932.204V593.934H866.617V659.52ZM70.7568 530.518V592.934H136.343V530.518H70.7568ZM137.343 530.518V592.934H199.759V530.518H137.343ZM200.759 530.518V592.934H266.344V530.518H200.759ZM267.344 530.518V592.934H336.102V530.518H267.344ZM337.102 530.518V592.934H402.688V530.518H337.102ZM403.688 530.518V592.934H466.102V530.518H403.688ZM467.102 530.518V592.934H529.517V530.518H467.102ZM530.517 530.518V592.934H599.274V530.518H530.517ZM600.274 530.518V592.934H665.86V530.518H600.274ZM666.86 530.518V592.934H729.274V530.518H666.86ZM730.274 530.518V592.934H795.861V530.518H730.274ZM796.861 530.518V592.934H865.617V530.518H796.861ZM866.617 530.518V592.934H932.204V530.518H866.617ZM70.7568 529.518H136.343V467.102H70.7568V529.518ZM137.343 529.518H199.759V467.102H137.343V529.518ZM200.759 529.518H266.344V467.102H200.759V529.518ZM267.344 529.518H336.102V467.102H267.344V529.518ZM337.102 529.518H402.688V467.102H337.102V529.518ZM403.688 529.518H466.102V467.102H403.688V529.518ZM467.102 529.518H529.517V467.102H467.102V529.518ZM530.517 529.518H599.274V467.102H530.517V529.518ZM600.274 529.518H665.86V467.102H600.274V529.518ZM666.86 529.518H729.274V467.102H666.86V529.518ZM730.274 529.518H795.861V467.102H730.274V529.518ZM796.861 529.518H865.617V467.102H796.861V529.518ZM866.617 529.518H932.204V467.102H866.617V529.518ZM70.7568 466.102H136.343V397.346H70.7568V466.102ZM137.343 466.102H199.759V397.346H137.343V466.102ZM200.759 466.102H266.344V397.346H200.759V466.102ZM267.344 466.102H336.102V397.346H267.344V466.102ZM337.102 466.102H402.688V397.346H337.102V466.102ZM403.688 466.102H466.102V397.346H403.688V466.102ZM467.102 466.102H529.517V397.346H467.102V466.102ZM530.517 466.102H599.274V397.346H530.517V466.102ZM600.274 466.102H665.86V397.346H600.274V466.102ZM666.86 466.102H729.274V397.346H666.86V466.102ZM730.274 466.102H795.861V397.346H730.274V466.102ZM796.861 466.102H865.617V397.346H796.861V466.102ZM866.617 466.102H932.204V397.346H866.617V466.102ZM70.7568 396.346H136.343V330.76H70.7568V396.346ZM137.343 396.346H199.759V330.76H137.343V396.346ZM200.759 396.346H266.344V330.76H200.759V396.346ZM267.344 396.346H336.102V330.76H267.344V396.346ZM337.102 396.346H402.688V330.76H337.102V396.346ZM403.688 396.346H466.102V330.76H403.688V396.346ZM467.102 396.346H529.517V330.76H467.102V396.346ZM530.517 396.346H599.274V330.76H530.517V396.346ZM600.274 396.346H665.86V330.76H600.274V396.346ZM666.86 396.346H729.274V330.76H666.86V396.346ZM730.274 396.346H795.861V330.76H730.274V396.346ZM796.861 396.346H865.617V330.76H796.861V396.346ZM866.617 396.346H932.204V330.76H866.617V396.346ZM70.7568 329.76H136.343V267.344H70.7568V329.76ZM137.343 329.76H199.759V267.344H137.343V329.76ZM200.759 329.76H266.344V267.344H200.759V329.76ZM267.344 329.76H336.102V267.344H267.344V329.76ZM337.102 329.76H402.688V267.344H337.102V329.76ZM403.688 329.76H466.102V267.344H403.688V329.76ZM467.102 329.76H529.517V267.344H467.102V329.76ZM530.517 329.76H599.274V267.344H530.517V329.76ZM600.274 329.76H665.86V267.344H600.274V329.76ZM666.86 329.76H729.274V267.344H666.86V329.76ZM730.274 329.76H795.861V267.344H730.274V329.76ZM796.861 329.76H865.617V267.344H796.861V329.76ZM866.617 329.76H932.204V267.344H866.617V329.76ZM70.7568 266.344H136.343V200.759H70.7568V266.344ZM137.343 266.344H199.759V200.759H137.343V266.344ZM200.759 266.344H266.344V200.759H200.759V266.344ZM267.344 266.344H336.102V200.759H267.344V266.344ZM337.102 266.344H402.688V200.759H337.102V266.344ZM403.688 266.344H466.102V200.759H403.688V266.344ZM467.102 266.344H529.517V200.759H467.102V266.344ZM530.517 266.344H599.274V200.759H530.517V266.344ZM600.274 266.344H665.86V200.759H600.274V266.344ZM666.86 266.344H729.274V200.759H666.86V266.344ZM730.274 266.344H795.861V200.759H730.274V266.344ZM796.861 266.344H865.617V200.759H796.861V266.344ZM866.617 266.344H932.204V200.759H866.617V266.344ZM70.7568 199.759H136.343V131.002H70.7568V199.759ZM137.343 199.759H199.759V131.002H137.343V199.759ZM200.759 199.759H266.344V131.002H200.759V199.759ZM267.344 199.759H336.102V131.002H267.344V199.759ZM337.102 199.759H402.688V131.002H337.102V199.759ZM403.688 199.759H466.102V131.002H403.688V199.759ZM467.102 199.759H529.517V131.002H467.102V199.759ZM530.517 199.759H599.274V131.002H530.517V199.759ZM600.274 199.759H665.86V131.002H600.274V199.759ZM666.86 199.759H729.274V131.002H666.86V199.759ZM730.274 199.759H795.861V131.002H730.274V199.759ZM796.861 199.759H865.617V131.002H796.861V199.759ZM866.617 199.759H932.204V131.002H866.617V199.759ZM70.7568 130.002H136.343V64.417H70.7568V130.002ZM137.343 130.002H199.759V64.417H137.343V130.002ZM200.759 130.002H266.344V64.417H200.759V130.002ZM267.344 130.002H336.102V64.417H267.344V130.002ZM337.102 130.002H402.688V64.417H337.102V130.002ZM403.688 130.002H466.102V64.417H403.688V130.002ZM467.102 130.002H529.517V64.417H467.102V130.002ZM530.517 130.002H599.274V64.417H530.517V130.002ZM600.274 130.002H665.86V64.417H600.274V130.002ZM666.86 130.002H729.274V64.417H666.86V130.002ZM730.274 130.002H795.861V64.417H730.274V130.002ZM796.861 130.002H865.617V64.417H796.861V130.002ZM866.617 130.002H932.204V64.417H866.617V130.002ZM960.741 1H34.8789V0H960.741V1Z" fill="url(#paint0_radial_0_622)"/>
<defs>
<radialGradient id="paint0_radial_0_622" cx="0" cy="0" r="1" gradientUnits="userSpaceOnUse" gradientTransform="translate(417.041 464.165) rotate(-87.0643) scale(276.034 362.337)">
<stop stop-color="#8F7BFF"/>
<stop offset="1" stop-color="#644F8F" stop-opacity="0"/>
</radialGradient>
</defs>
</svg>
