<svg preserveAspectRatio="none" width="100%" height="100%" overflow="visible" style="display: block;" viewBox="0 0 735.961 530.65" fill="none" xmlns="http://www.w3.org/2000/svg">
<path id="Union" opacity="0.25" d="M709.214 530.65H25.748V529.65H709.214V530.65ZM52.4941 33.7363H100.646V19.5547H101.646V33.7363H147.46V19.5547H148.46V33.7363H196.613V19.5547H197.613V33.7363H248.108V19.5547H249.108V33.7363H297.261V19.5557H298.261V33.7363H344.074V19.5547H345.074V33.7363H390.887V19.5547H391.887V33.7363H442.381V19.5547H443.381V33.7363H491.534V19.5547H492.534V33.7363H538.347V19.5547H539.347V33.7363H587.5V19.5557H588.5V33.7363H638.993V19.5547H639.993V33.7363H688.147V19.5547H689.147V33.7363H709.213V34.7363H689.147V69.1582H709.213V70.1582H689.147V106.268H709.213V107.268H689.147V141.689H709.213V142.689H689.147V175.426H709.213V176.426H689.147V210.849H709.214V211.849H689.147V247.957H709.214V248.957H689.147V281.693H709.212V282.693H689.147V315.43H709.214V316.43H689.147V350.852H709.214V351.852H689.147V423.383H709.213V424.383H689.147V457.119H709.214V458.119H689.147V492.541H709.213V493.541H689.147V512.095H688.147V493.541H639.993V512.095H638.993V493.541H588.5V512.096H587.5V493.541H539.347V512.095H538.347V493.541H492.534V512.095H491.534V493.541H443.381V512.095H442.381V493.541H391.887V512.095H390.887V493.541H345.074V512.095H344.074V493.541H298.261V512.096H297.261V493.541H249.108V512.095H248.108V493.541H197.613V512.095H196.613V493.541H148.46V512.095H147.46V493.541H101.646V512.095H100.646V493.541H52.4941V512.095H51.4941V493.541H25.7471V492.541H51.4941V458.119H25.748V457.119H51.4941V424.383H25.7471V423.383H51.4941V351.852H25.748V350.852H51.4941V316.43H25.748V315.43H51.4941V282.693H25.7461V281.693H51.4941V248.957H25.748V247.957H51.4941V211.849H25.748V210.849H51.4941V176.426H25.7471V175.426H51.4941V142.689H25.7471V141.689H51.4941V107.268H25.7471V106.268H51.4941V70.1582H25.7471V69.1582H51.4941V34.7363H25.7471V33.7363H51.4941V19.5547H52.4941V33.7363ZM1 512.095H0V19.5547H1V512.095ZM735.961 512.095H734.961V19.5547H735.961V512.095ZM52.4941 492.541H100.646V458.119H52.4941V492.541ZM101.646 492.541H147.46V458.119H101.646V492.541ZM148.46 492.541H196.613V458.119H148.46V492.541ZM197.613 492.541H248.108V458.119H197.613V492.541ZM249.108 492.541H297.261V458.119H249.108V492.541ZM298.261 492.541H344.074V458.119H298.261V492.541ZM345.074 492.541H390.887V458.119H345.074V492.541ZM391.887 492.541H442.381V458.119H391.887V492.541ZM443.381 492.541H491.534V458.119H443.381V492.541ZM492.534 492.541H538.347V458.119H492.534V492.541ZM539.347 492.541H587.5V458.119H539.347V492.541ZM588.5 492.541H638.993V458.119H588.5V492.541ZM639.993 492.541H688.147V458.119H639.993V492.541ZM52.4941 457.119H100.646V424.383H52.4941V457.119ZM101.646 457.119H147.46V424.383H101.646V457.119ZM148.46 457.119H196.613V424.383H148.46V457.119ZM197.613 457.119H248.108V424.383H197.613V457.119ZM249.108 457.119H297.261V424.383H249.108V457.119ZM298.261 457.119H344.074V424.383H298.261V457.119ZM345.074 457.119H390.887V424.383H345.074V457.119ZM391.887 457.119H442.381V424.383H391.887V457.119ZM443.381 457.119H491.534V424.383H443.381V457.119ZM492.534 457.119H538.347V424.383H492.534V457.119ZM539.347 457.119H587.5V424.383H539.347V457.119ZM588.5 457.119H638.993V424.383H588.5V457.119ZM639.993 457.119H688.147V424.383H639.993V457.119ZM52.4941 423.383H100.646V351.852H52.4941V423.383ZM101.646 423.383H147.46V351.852H101.646V423.383ZM148.46 423.383H196.613V351.852H148.46V423.383ZM197.613 423.383H248.108V351.852H197.613V423.383ZM249.108 423.383H297.261V351.852H249.108V423.383ZM298.261 423.383H344.074V351.852H298.261V423.383ZM345.074 423.383H390.887V351.852H345.074V423.383ZM391.887 423.383H442.381V351.852H391.887V423.383ZM443.381 423.383H491.534V351.852H443.381V423.383ZM492.534 423.383H538.347V351.852H492.534V423.383ZM539.347 423.383H587.5V351.852H539.347V423.383ZM588.5 423.383H638.993V351.852H588.5V423.383ZM639.993 423.383H688.147V351.852H639.993V423.383ZM52.4941 350.852H100.646V316.43H52.4941V350.852ZM101.646 350.852H147.46V316.43H101.646V350.852ZM148.46 350.852H196.613V316.43H148.46V350.852ZM197.613 350.852H248.108V316.43H197.613V350.852ZM249.108 350.852H297.261V316.43H249.108V350.852ZM298.261 350.852H344.074V316.43H298.261V350.852ZM345.074 350.852H390.887V316.43H345.074V350.852ZM391.887 350.852H442.381V316.43H391.887V350.852ZM443.381 350.852H491.534V316.43H443.381V350.852ZM492.534 350.852H538.347V316.43H492.534V350.852ZM539.347 350.852H587.5V316.43H539.347V350.852ZM588.5 350.852H638.993V316.43H588.5V350.852ZM639.993 350.852H688.147V316.43H639.993V350.852ZM52.4941 282.693V315.43H100.646V282.693H52.4941ZM101.646 282.693V315.43H147.46V282.693H101.646ZM148.46 282.693V315.43H196.613V282.693H148.46ZM197.613 282.693V315.43H248.108V282.693H197.613ZM249.108 282.693V315.43H297.261V282.693H249.108ZM298.261 282.693V315.43H344.074V282.693H298.261ZM345.074 282.693V315.43H390.887V282.693H345.074ZM391.887 282.693V315.43H442.381V282.693H391.887ZM443.381 282.693V315.43H491.534V282.693H443.381ZM492.534 282.693V315.43H538.347V282.693H492.534ZM539.347 282.693V315.43H587.5V282.693H539.347ZM588.5 282.693V315.43H638.993V282.693H588.5ZM639.993 282.693V315.43H688.147V282.693H639.993ZM52.4941 281.693H100.646V248.957H52.4941V281.693ZM101.646 281.693H147.46V248.957H101.646V281.693ZM148.46 281.693H196.613V248.957H148.46V281.693ZM197.613 281.693H248.108V248.957H197.613V281.693ZM249.108 281.693H297.261V248.957H249.108V281.693ZM298.261 281.693H344.074V248.957H298.261V281.693ZM345.074 281.693H390.887V248.957H345.074V281.693ZM391.887 281.693H442.381V248.957H391.887V281.693ZM443.381 281.693H491.534V248.957H443.381V281.693ZM492.534 281.693H538.347V248.957H492.534V281.693ZM539.347 281.693H587.5V248.957H539.347V281.693ZM588.5 281.693H638.993V248.957H588.5V281.693ZM639.993 281.693H688.147V248.957H639.993V281.693ZM52.4941 247.957H100.646V211.849H52.4941V247.957ZM101.646 247.957H147.46V211.849H101.646V247.957ZM148.46 247.957H196.613V211.849H148.46V247.957ZM197.613 247.957H248.108V211.849H197.613V247.957ZM249.108 247.957H297.261V211.849H249.108V247.957ZM298.261 247.957H344.074V211.849H298.261V247.957ZM345.074 247.957H390.887V211.849H345.074V247.957ZM391.887 247.957H442.381V211.849H391.887V247.957ZM443.381 247.957H491.534V211.849H443.381V247.957ZM492.534 247.957H538.347V211.849H492.534V247.957ZM539.347 247.957H587.5V211.849H539.347V247.957ZM588.5 247.957H638.993V211.849H588.5V247.957ZM639.993 247.957H688.147V211.849H639.993V247.957ZM52.4941 210.849H100.646V176.426H52.4941V210.849ZM101.646 210.849H147.46V176.426H101.646V210.849ZM148.46 210.849H196.613V176.426H148.46V210.849ZM197.613 210.849H248.108V176.426H197.613V210.849ZM249.108 210.849H297.261V176.426H249.108V210.849ZM298.261 210.849H344.074V176.426H298.261V210.849ZM345.074 210.849H390.887V176.426H345.074V210.849ZM391.887 210.849H442.381V176.426H391.887V210.849ZM443.381 210.849H491.534V176.426H443.381V210.849ZM492.534 210.849H538.347V176.426H492.534V210.849ZM539.347 210.849H587.5V176.426H539.347V210.849ZM588.5 210.849H638.993V176.426H588.5V210.849ZM639.993 210.849H688.147V176.426H639.993V210.849ZM52.4941 175.426H100.646V142.689H52.4941V175.426ZM101.646 175.426H147.46V142.689H101.646V175.426ZM148.46 175.426H196.613V142.689H148.46V175.426ZM197.613 175.426H248.108V142.689H197.613V175.426ZM249.108 175.426H297.261V142.689H249.108V175.426ZM298.261 175.426H344.074V142.689H298.261V175.426ZM345.074 175.426H390.887V142.689H345.074V175.426ZM391.887 175.426H442.381V142.689H391.887V175.426ZM443.381 175.426H491.534V142.689H443.381V175.426ZM492.534 175.426H538.347V142.689H492.534V175.426ZM539.347 175.426H587.5V142.689H539.347V175.426ZM588.5 175.426H638.993V142.689H588.5V175.426ZM639.993 175.426H688.147V142.689H639.993V175.426ZM52.4941 141.689H100.646V107.268H52.4941V141.689ZM101.646 141.689H147.46V107.268H101.646V141.689ZM148.46 141.689H196.613V107.268H148.46V141.689ZM197.613 141.689H248.108V107.268H197.613V141.689ZM249.108 141.689H297.261V107.268H249.108V141.689ZM298.261 141.689H344.074V107.268H298.261V141.689ZM345.074 141.689H390.887V107.268H345.074V141.689ZM391.887 141.689H442.381V107.268H391.887V141.689ZM443.381 141.689H491.534V107.268H443.381V141.689ZM492.534 141.689H538.347V107.268H492.534V141.689ZM539.347 141.689H587.5V107.268H539.347V141.689ZM588.5 141.689H638.993V107.268H588.5V141.689ZM639.993 141.689H688.147V107.268H639.993V141.689ZM52.4941 106.268H100.646V70.1582H52.4941V106.268ZM101.646 106.268H147.46V70.1582H101.646V106.268ZM148.46 106.268H196.613V70.1582H148.46V106.268ZM197.613 106.268H248.108V70.1582H197.613V106.268ZM249.108 106.268H297.261V70.1582H249.108V106.268ZM298.261 106.268H344.074V70.1582H298.261V106.268ZM345.074 106.268H390.887V70.1582H345.074V106.268ZM391.887 106.268H442.381V70.1582H391.887V106.268ZM443.381 106.268H491.534V70.1582H443.381V106.268ZM492.534 106.268H538.347V70.1582H492.534V106.268ZM539.347 106.268H587.5V70.1582H539.347V106.268ZM588.5 106.268H638.993V70.1582H588.5V106.268ZM639.993 106.268H688.147V70.1582H639.993V106.268ZM52.4941 69.1582H100.646V34.7363H52.4941V69.1582ZM101.646 69.1582H147.46V34.7363H101.646V69.1582ZM148.46 69.1582H196.613V34.7363H148.46V69.1582ZM197.613 69.1582H248.108V34.7363H197.613V69.1582ZM249.108 69.1582H297.261V34.7363H249.108V69.1582ZM298.261 69.1582H344.074V34.7363H298.261V69.1582ZM345.074 69.1582H390.887V34.7363H345.074V69.1582ZM391.887 69.1582H442.381V34.7363H391.887V69.1582ZM443.381 69.1582H491.534V34.7363H443.381V69.1582ZM492.534 69.1582H538.347V34.7363H492.534V69.1582ZM539.347 69.1582H587.5V34.7363H539.347V69.1582ZM588.5 69.1582H638.993V34.7363H588.5V69.1582ZM639.993 69.1582H688.147V34.7363H639.993V69.1582ZM709.213 1H25.7471V0H709.213V1Z" fill="url(#paint0_radial_0_89)"/>
<defs>
<radialGradient id="paint0_radial_0_89" cx="0" cy="0" r="1" gradientTransform="matrix(10.4396 -146.781 -267.219 -9.8807 307.967 247.145)" gradientUnits="userSpaceOnUse">
<stop stop-color="#8F7BFF"/>
<stop offset="1" stop-color="#644F8F" stop-opacity="0"/>
</radialGradient>
</defs>
</svg>
