<svg preserveAspectRatio="none" width="100%" height="100%" overflow="visible" style="display: block;" viewBox="0 0 65 65" fill="none" xmlns="http://www.w3.org/2000/svg">
<g id="Group">
<path id="Vector" d="M32.5001 0C23.6736 0 22.5668 0.0374448 19.1003 0.195545C15.641 0.353355 13.2785 0.902837 11.2112 1.70611C9.07404 2.53667 7.26159 3.64802 5.45485 5.45476C3.64802 7.26149 2.53667 9.07413 1.70621 11.2113C0.90274 13.2785 0.353452 15.641 0.195449 19.1003C0.0373481 22.5668 0 23.6736 0 32.5001C0 41.3264 0.0373481 42.4332 0.195449 45.8997C0.353452 49.359 0.90274 51.7215 1.70621 53.7887C2.53677 55.9259 3.64811 57.7383 5.45485 59.5452C7.26169 61.352 9.07404 62.4633 11.2112 63.2939C13.2785 64.0972 15.641 64.6465 19.1003 64.8045C22.5668 64.9626 23.6736 65 32.5001 65C41.3264 65 42.4332 64.9626 45.8997 64.8045C49.359 64.6466 51.7215 64.0972 53.7887 63.2939C55.9259 62.4633 57.7383 61.352 59.5452 59.5452C61.352 57.7383 62.4633 55.9259 63.2939 53.7887C64.0972 51.7215 64.6466 49.359 64.8045 45.8997C64.9626 42.4332 65 41.3264 65 32.5001C65 23.6736 64.9626 22.5668 64.8045 19.1003C64.6466 15.641 64.0972 13.2785 63.2939 11.2113C62.4633 9.07413 61.352 7.26149 59.5452 5.45476C57.7383 3.64802 55.9259 2.53667 53.7887 1.70611C51.7215 0.902837 49.359 0.353355 45.8997 0.195545C42.4332 0.0374448 41.3264 0 32.5001 0ZM32.5001 5.85581C41.1778 5.85581 42.2058 5.889 45.6328 6.04536C48.8016 6.18982 50.5224 6.71927 51.6675 7.16435C53.1846 7.75399 54.2673 8.45818 55.4044 9.59546C56.5418 10.7327 57.246 11.8154 57.8356 13.3324C58.2807 14.4776 58.8102 16.1985 58.9546 19.3672C59.111 22.7942 59.1442 23.8222 59.1442 32.5C59.1442 41.1778 59.111 42.2058 58.9546 45.6328C58.8102 48.8016 58.2807 50.5224 57.8356 51.6675C57.246 53.1846 56.5418 54.2673 55.4044 55.4044C54.2673 56.5418 53.1845 57.246 51.6676 57.8356C50.5224 58.2807 48.8015 58.8102 45.6328 58.9546C42.2063 59.111 41.1785 59.1442 32.5 59.1442C23.8215 59.1442 22.7938 59.111 19.3672 58.9545C16.1984 58.8102 14.4776 58.2807 13.3325 57.8356C11.8153 57.246 10.7327 56.5418 9.59556 55.4044C8.45828 54.2673 7.75399 53.1845 7.16435 51.6676C6.71927 50.5224 6.18991 48.8015 6.04536 45.6328C5.889 42.2058 5.85581 41.1778 5.85581 32.5C5.85581 23.8222 5.889 22.7942 6.04536 19.3672C6.18991 16.1984 6.71927 14.4776 7.16435 13.3325C7.75399 11.8153 8.45828 10.7327 9.59546 9.59556C10.7327 8.45818 11.8154 7.75399 13.3324 7.16435C14.4776 6.71927 16.1985 6.18982 19.3672 6.04536C22.7942 5.889 23.8222 5.85581 32.5 5.85581" fill="var(--fill-0, white)"/>
<path id="Vector_2" d="M32.5 43.3333C26.5168 43.3333 21.6666 38.4831 21.6666 32.5001C21.6666 26.5168 26.5168 21.6666 32.5 21.6666C38.4831 21.6666 43.3333 26.5168 43.3333 32.5001C43.3333 38.4831 38.4831 43.3333 32.5 43.3333ZM32.5 15.8108C23.2827 15.8108 15.8108 23.2827 15.8108 32.5001C15.8108 41.7172 23.2827 49.1891 32.5 49.1891C41.7172 49.1891 49.1891 41.7172 49.1891 32.5001C49.1891 23.2827 41.7172 15.8108 32.5 15.8108V15.8108ZM53.7486 15.1514C53.7486 17.3054 52.0024 19.0514 49.8485 19.0514C47.6947 19.0514 45.9485 17.3054 45.9485 15.1514C45.9485 12.9975 47.6947 11.2513 49.8485 11.2513C52.0024 11.2513 53.7486 12.9975 53.7486 15.1514" fill="var(--fill-0, white)"/>
</g>
</svg>
