<svg preserveAspectRatio="none" width="100%" height="100%" overflow="visible" style="display: block;" viewBox="0 0 126.03 61.9934" fill="none" xmlns="http://www.w3.org/2000/svg">
<g id="Group">
<path id="Vector" d="M125.759 13.9667C125.59 13.7312 125.124 13.2699 124.469 13.0247C124.275 12.9513 124.061 12.8992 123.836 12.876C123.671 12.8587 123.534 12.8625 123.437 12.8703H123.427C122.758 14.266 122.593 15.7543 121.954 17.2041C120.624 20.2272 117.665 23.3603 114.187 23.6363C112.718 23.7522 111.638 23.4819 110.891 22.9433C110.792 22.8738 110.701 22.8004 110.616 22.7194C109.164 21.3932 109.289 18.872 110.445 16.4532C111.415 14.4223 113.556 12.4726 114.362 10.6483C114.559 10.2005 114.497 10.0113 114.278 9.94178C114.253 9.93405 114.226 9.92633 114.195 9.92247C114.051 9.89931 113.857 9.90896 113.638 9.92826C113.114 9.97266 112.631 10.1252 112.164 10.3182C111.88 10.434 111.605 10.5653 111.328 10.6946C111.263 10.4128 111.149 10.1869 111 10.0151C110.924 9.92826 110.841 9.85297 110.749 9.7912C110.73 9.77769 110.709 9.76417 110.691 9.75452C110.652 9.72943 110.616 9.70819 110.575 9.69082C110.534 9.66958 110.493 9.65028 110.453 9.63677C110.412 9.61939 110.367 9.60588 110.323 9.59237C109.324 9.29122 107.861 9.76417 106.996 10.1174C106.918 10.1483 106.84 10.1811 106.763 10.2159C106.532 10.3144 106.311 10.4205 106.099 10.5325C105.958 10.6078 105.82 10.6831 105.688 10.7622C105.62 10.8028 105.556 10.8414 105.488 10.8838C105.358 10.9649 105.232 11.0479 105.108 11.1329C105.046 11.1734 104.986 11.2197 104.926 11.2622C104.805 11.3491 104.689 11.4398 104.575 11.5305C104.46 11.6213 104.35 11.7139 104.239 11.8104C104.13 11.905 104.026 11.9996 103.921 12.1C103.869 12.1502 103.818 12.1985 103.766 12.2487C101.694 14.2872 100.596 16.9531 98.4425 19.0959C98.1283 19.4087 97.7907 19.7098 97.4241 19.9974C97.3019 20.092 97.0031 20.3005 96.6559 20.5013C96.6306 20.5187 96.6035 20.5322 96.5802 20.5476C96.5298 20.5746 96.4793 20.6036 96.4289 20.6306C96.3765 20.6596 96.328 20.6866 96.2756 20.7136C96.1476 20.7793 96.0196 20.8391 95.8993 20.8893C95.5811 21.0167 95.3115 21.0688 95.1951 20.953C95.1951 20.9376 95.1912 20.9241 95.1893 20.9086C95.1214 19.8527 97.6724 16.5883 98.4406 15.4011C98.4872 15.3316 98.5279 15.2698 98.5589 15.2138C99.2127 14.1057 100.235 12.0209 98.5997 11.2661C96.4813 10.2854 94.5297 12.7795 93.0185 13.9474C92.9778 13.9783 92.939 14.0111 92.8982 14.0382C92.8808 13.9745 92.8905 13.905 92.9157 13.8316C92.9293 13.7872 92.9506 13.7409 92.9778 13.6946C93.003 13.6463 93.034 13.598 93.0709 13.5517C93.0825 13.5343 93.0942 13.5189 93.1077 13.5015C93.1834 13.4031 93.2688 13.3007 93.358 13.2004C93.4298 13.1154 93.5016 13.0305 93.5694 12.9455C93.6102 12.8954 93.6451 12.8471 93.68 12.7969C93.8352 12.5652 93.8973 12.349 93.713 12.1714C93.7014 12.1599 93.6858 12.1521 93.6664 12.1425C93.6296 12.1251 93.5791 12.1116 93.5151 12.1C93.4938 12.0961 93.4705 12.0923 93.4453 12.0884C93.2067 12.0556 92.8478 12.0498 92.4928 12.0614C92.2309 12.0691 91.969 12.0884 91.7595 12.1097C91.5791 12.127 91.4355 12.1502 91.3618 12.1714C91.3327 12.1772 91.3075 12.1869 91.2803 12.1965C91.228 12.2139 91.1756 12.2371 91.1271 12.266C91.1038 12.2795 91.0805 12.2969 91.0572 12.3162C89.9418 13.8606 89.0203 15.5478 87.8971 17.0883C87.1056 18.1732 86.0251 19.4762 84.898 20.5997C84.7855 20.7117 84.673 20.8237 84.5566 20.9318C84.2151 21.2561 83.8737 21.5611 83.5342 21.8352C83.4217 21.926 83.3092 22.0148 83.1967 22.0997C83.0861 22.1827 82.9736 22.2638 82.865 22.3391C82.5177 22.5784 81.7514 23.0939 81.346 22.9877C81.3208 22.9819 81.2975 22.9723 81.2762 22.9607C81.2432 22.9433 81.2141 22.9201 81.1889 22.8931C81.1714 22.8738 81.1578 22.8526 81.1442 22.8275C81.0899 22.7271 81.0686 22.5765 81.0899 22.3622C81.1908 21.3681 82.8785 18.8759 83.4993 17.9531C84.1628 16.9705 85.7031 15.293 86.1337 14.3297C86.2171 14.1405 86.2792 13.9957 86.2443 13.7795C86.2385 13.7544 86.2249 13.7332 86.2036 13.7139C86.1764 13.6849 86.1337 13.6637 86.0813 13.6463C86.0542 13.6366 86.027 13.6289 85.994 13.6231C85.9785 13.6193 85.963 13.6173 85.9455 13.6135C85.9126 13.6077 85.8757 13.6038 85.8369 13.6C85.6371 13.5787 85.381 13.5864 85.1056 13.6173C85.0571 13.6231 85.0066 13.627 84.9581 13.6347C84.6962 13.6675 84.4246 13.7216 84.1822 13.7853C84.1084 13.8027 84.0386 13.8239 83.9726 13.8451C83.9435 13.8548 83.9125 13.8644 83.8853 13.8741C83.8446 13.8876 83.8078 13.9011 83.7709 13.9146C83.5827 13.9899 83.4411 14.071 83.3771 14.1579C83.3169 14.1579 83.2549 14.1193 83.1889 14.0594C83.1792 14.0498 83.1695 14.042 83.1598 14.0305C83.0376 13.903 82.896 13.7061 82.7214 13.5324C82.7098 13.5189 82.6942 13.5034 82.6807 13.4919C82.6651 13.4764 82.6516 13.4648 82.638 13.4513C82.6244 13.4378 82.6089 13.4262 82.5972 13.4146C82.5681 13.3895 82.5371 13.3664 82.508 13.3451C82.4789 13.3239 82.4459 13.3046 82.4129 13.2853C82.3644 13.2563 82.314 13.2332 82.2597 13.2177C82.2422 13.2119 82.2248 13.2062 82.2073 13.2004C82.0812 13.1675 81.9493 13.1444 81.8174 13.1289C81.6835 13.1135 81.5458 13.1077 81.4042 13.1077C80.9832 13.1116 80.5409 13.1868 80.0947 13.3162C79.765 13.4108 79.4313 13.5324 79.1034 13.6772C78.246 14.0498 77.4118 14.5594 76.7076 15.0729C76.3293 15.347 75.9879 15.6231 75.7047 15.8779C75.5825 15.9879 75.4622 16.1018 75.3439 16.2234C73.8715 17.7079 72.5678 19.9878 71.0663 21.8507C70.9849 21.9511 70.9034 22.0514 70.82 22.1499C70.7385 22.2483 70.6551 22.3449 70.5716 22.4395C70.5309 22.4877 70.4882 22.536 70.4456 22.5823C70.3195 22.7232 70.1914 22.8584 70.0595 22.9896L69.9276 23.1209C69.753 23.2908 69.5765 23.4549 69.3922 23.6093C69.301 23.6846 69.2098 23.7599 69.1167 23.8332C68.9305 23.9761 68.7404 24.1074 68.5444 24.229C68.397 24.3178 68.2496 24.4027 68.0982 24.478C67.9974 24.5282 67.8946 24.5765 67.7917 24.6189C67.0604 24.9278 66.6957 24.1614 66.5347 23.229C66.5094 23.0765 66.4881 22.9221 66.4726 22.7657C66.3775 21.8372 66.4512 20.8932 66.5463 20.7619C66.6355 20.6345 68.9654 19.8102 69.4349 19.565C69.8752 19.3372 70.5678 18.9261 71.1653 18.455C71.237 18.401 71.3049 18.345 71.3728 18.2871C71.4388 18.2311 71.5048 18.1732 71.5688 18.1153C71.9141 17.7987 72.1857 17.4666 72.2904 17.1578C72.2943 17.1462 72.2982 17.1346 72.3021 17.1211C72.3816 16.874 72.5154 16.3296 72.5484 16.1925C72.7153 15.4513 71.7938 14.6134 71.0566 14.5903C70.4552 14.5729 69.8519 14.7679 69.2661 15.0787C69.0992 15.1675 68.9324 15.2659 68.7656 15.3721C68.7113 15.4069 68.655 15.4435 68.6007 15.4802C68.4377 15.5902 68.2767 15.7041 68.1176 15.8258C68.0109 15.9049 67.9062 15.9879 67.8014 16.0709C67.6967 16.1539 67.5939 16.2369 67.493 16.32C67.3417 16.4454 67.1923 16.5728 67.0468 16.6964C66.9013 16.8219 66.7578 16.9435 66.62 17.0632C66.4803 17.1829 66.3465 17.2987 66.2146 17.4049C66.1273 17.4782 66.0419 17.5477 65.9585 17.6134C66.0283 17.2736 66.2844 16.9107 66.4706 16.6192C68.4727 13.5015 70.5619 10.4418 72.6512 7.38008C72.8511 6.96117 72.8258 6.74303 72.6706 6.63879C72.6493 6.62335 72.6241 6.60983 72.5969 6.60018C72.3777 6.51331 72.0053 6.55771 71.6308 6.5886C71.1168 6.62914 70.0265 6.83569 69.6541 7.18703C69.107 7.70246 68.267 9.22365 67.815 9.92633C64.8896 14.486 60.9069 22.5553 56.5984 25.6363C56.5557 25.6652 56.5091 25.7 56.4587 25.7347C56.2337 25.8911 55.9446 26.0861 55.6517 26.2057C55.3161 26.3389 54.9805 26.3756 54.738 26.1478C54.7205 26.1305 54.7031 26.1131 54.6856 26.0938C54.1909 25.5108 54.7128 23.1132 54.5343 22.3024C55.9543 21.8005 58.3909 20.8835 59.5839 19.7137C59.6247 19.6731 59.6654 19.6326 59.7042 19.594C59.7799 19.511 59.8497 19.428 59.9137 19.345C60.0262 19.1925 60.2532 18.7948 60.3288 18.6597C60.3288 18.6558 60.3288 18.6539 60.3327 18.6539C60.6606 18.0844 60.5306 17.0555 60.0126 16.5497C59.9894 16.5246 59.9622 16.5014 59.935 16.4783C59.8827 16.4358 59.8245 16.3952 59.7624 16.3644C59.0175 15.9725 58.1814 16.1443 57.3608 16.5671C57.1939 16.6539 57.0271 16.7504 56.8603 16.8547C56.3656 17.1674 55.8845 17.5496 55.4402 17.928C55.2424 18.096 55.0542 18.2658 54.8718 18.4261C54.6914 18.5863 54.5207 18.7407 54.3616 18.8817C54.2414 18.9859 54.1289 19.0843 54.0222 19.1731C53.9989 19.1789 53.9834 19.1731 53.9737 19.1616C53.9698 19.1558 53.9678 19.1538 53.9659 19.15C53.9601 19.1403 53.9581 19.1249 53.9581 19.1094C53.9543 19.0747 53.962 19.0342 53.9698 19.0091C54.0086 18.8874 54.222 18.5419 54.5479 18.0477C54.5479 18.0477 54.5479 18.0438 54.5537 18.0419C54.9417 17.4512 55.4926 16.6501 56.0979 15.7794C56.7633 14.82 57.4985 13.7756 58.162 12.8239C58.9709 11.6657 59.6712 10.6464 60.0146 10.102C60.032 10.073 60.0495 10.0479 60.065 10.0229C60.4045 9.47268 61.0272 8.77579 60.8681 8.12909C60.8623 8.12137 60.8565 8.11365 60.8468 8.10786C60.8294 8.09434 60.8041 8.08276 60.7731 8.07311C60.744 8.06539 60.711 8.05766 60.6742 8.0538C60.5481 8.03643 60.3735 8.03643 60.1717 8.0538C60.1232 8.05766 60.0728 8.06153 60.0204 8.06732C59.968 8.07118 59.9098 8.07697 59.8555 8.08469C59.8031 8.09241 59.7469 8.10013 59.6926 8.10592H59.6887C59.6344 8.11365 59.5781 8.1233 59.5218 8.13102C59.3531 8.15612 59.1824 8.18507 59.0252 8.21789C58.9728 8.22947 58.9224 8.23913 58.872 8.24878C58.8448 8.25264 58.8196 8.25843 58.7963 8.26422C58.7478 8.2758 58.7032 8.28546 58.6605 8.29511C58.5732 8.31441 58.4937 8.33565 58.4238 8.35495C58.3365 8.37812 58.2686 8.40128 58.224 8.41866C58.0436 8.49587 57.9039 8.60205 57.772 8.74876C56.1658 11.2989 54.5576 13.849 52.9533 16.401C52.2762 16.4744 51.1239 16.5111 49.797 16.096C47.9056 15.5072 46.7882 14.3567 46.3439 13.8857C46.3323 13.8741 46.3207 13.8606 46.311 13.849C45.7891 13.2911 45.3973 12.7235 45.1043 12.2004C45.1043 12.1965 45.1004 12.1927 45.0985 12.1888C44.7804 11.6174 44.5767 11.0981 44.4467 10.7062C44.47 10.712 44.4933 10.7217 44.5204 10.7333C44.5262 10.7333 44.5301 10.7371 44.5359 10.739C44.7144 10.8163 44.9724 10.9707 45.2576 11.1522C45.9676 11.6039 46.8483 12.2255 47.1335 12.266C47.3702 12.0402 45.4884 9.74294 45.3158 9.33562C45.2576 9.19663 45.1664 9.06149 45.277 8.91671C45.3216 8.90899 45.3701 8.89934 45.4205 8.88968C46.4759 8.70243 48.8484 8.50167 50.2975 8.2314C51.0424 8.09048 51.5449 7.93412 51.5041 7.75265C51.475 7.62138 47.9017 7.23144 45.9579 6.89361C45.793 6.86465 45.6397 6.83763 45.502 6.80867C45.4981 6.80481 45.4962 6.80095 45.4962 6.79322C45.4438 6.55578 46.7145 4.88402 47.1762 4.20643C47.1859 4.19485 47.1936 4.18327 47.1994 4.17362C47.279 4.05586 47.3314 3.97285 47.3411 3.94003C47.4846 3.41302 45.1392 5.0288 44.1732 5.5423C44.1693 5.5423 44.1654 5.54616 44.1615 5.54809C43.9501 5.66006 43.8085 5.71604 43.7755 5.68515C43.7677 5.63303 43.758 5.57898 43.7483 5.52299C43.4651 3.78753 43.0829 0 42.8307 0H42.8249C42.8249 0 42.8133 0.00386088 42.8075 0.00772177C42.6969 0.083009 42.5805 0.602298 42.466 1.29919C42.466 1.31077 42.4622 1.32042 42.4602 1.332C42.2003 2.94585 41.9578 5.46894 41.8821 5.6311C41.8821 5.63496 41.8782 5.63689 41.8763 5.63689C41.7424 5.73534 41.5834 5.67164 41.4534 5.60021L38.5105 3.56553C38.237 3.89563 40.0741 5.97279 40.3127 6.40135C40.5028 6.74882 40.2371 6.84342 39.9034 6.90326C39.0285 7.06349 38.0391 7.09823 37.0692 7.17738C36.7471 7.20441 36.429 7.2353 36.1167 7.27777C36.0119 7.29128 35.9091 7.30672 35.8082 7.3241C35.6045 7.35691 35.4028 7.39745 35.2088 7.44378C35.1098 7.46695 35.0167 7.49204 34.9217 7.51907C34.91 7.52293 34.9003 7.52486 34.8926 7.52872C34.3203 7.77775 40.6406 8.80281 40.6406 8.80281C40.9374 9.09817 38.6677 11.7255 38.5435 12.2062L41.6513 10.3105C41.7677 10.2352 41.8685 10.214 41.9907 10.3047C42.0004 10.3124 42.0121 10.3317 42.0218 10.3588C42.0276 10.3684 42.0295 10.38 42.0334 10.3916C42.0431 10.4186 42.0509 10.4514 42.0606 10.49C42.2973 11.4533 42.6911 15.764 42.8288 15.8277C42.8327 15.8277 42.8346 15.8316 42.8404 15.8316C43.0112 15.8316 43.1528 13.9417 43.4341 12.7448C43.4418 12.71 43.4515 12.6753 43.4573 12.6425C43.4748 12.5652 43.4961 12.488 43.5213 12.4127C43.531 12.3741 43.5446 12.3375 43.5582 12.3008C43.5757 12.2487 43.5931 12.1985 43.6125 12.1521C43.6125 12.1521 43.6164 12.1579 43.6183 12.1579C44.34 13.3934 45.1645 14.2196 45.7387 14.7177C45.7736 14.7466 45.8105 14.7814 45.8493 14.8123C46.4836 15.3567 47.6708 16.2968 49.4769 16.7504C50.7476 17.069 51.8378 17.0246 52.5207 16.9454C52.6526 17.0748 51.6496 18.623 51.4906 18.8739C50.0414 21.1634 48.1791 23.8718 46.0045 25.8177C45.8299 25.9741 45.6533 26.1247 45.4768 26.2714C45.0326 26.6343 44.5767 26.9644 44.1091 27.2501C43.339 27.7192 42.6251 28.1285 41.7463 28.1285C41.6707 28.1285 41.5969 28.1246 41.5213 28.1188C41.5155 28.1188 41.5077 28.1188 41.5019 28.1188C41.4262 28.113 41.3467 28.1034 41.2672 28.0899C41.2419 28.0841 41.2167 28.0802 41.1934 28.0725C40.3476 27.8138 40.885 25.6845 41.0382 24.9761C41.2866 23.8564 41.9675 21.7889 44.1945 19.6635C44.309 19.5534 45.2382 18.7871 46.439 18.6442C46.4487 18.6442 46.4584 18.6442 46.4681 18.6403C46.472 18.6403 46.4759 18.6403 46.4797 18.6403C46.9492 18.5921 47.1432 18.6809 47.2382 18.8025C47.374 18.9801 47.3275 19.2716 47.2266 19.511C47.2014 19.5708 47.1742 19.6268 47.1451 19.677C47.1451 19.677 47.1451 19.677 47.1451 19.6809C46.6795 20.4704 45.566 20.2214 45.3138 20.8912C45.3061 20.9125 45.2983 20.9356 45.2925 20.9588C45.1489 21.4974 45.2847 21.8352 45.5699 22.0206C45.6747 22.0881 45.7969 22.1364 45.9346 22.1673C46.1752 22.2213 46.4603 22.2252 46.7533 22.1885C46.8755 22.1731 46.9977 22.1364 47.1218 22.0804C47.1839 22.0514 47.2441 22.0186 47.3061 21.9819C47.4613 21.8893 47.6126 21.7715 47.762 21.6364C47.7911 21.6074 47.8202 21.5804 47.8493 21.5515C48.4255 20.982 48.8872 20.148 48.9396 19.5631C48.9434 19.5283 48.9454 19.4878 48.9454 19.4434C48.9454 19.3894 48.9493 19.3276 48.9454 19.2639C48.9337 19.0226 48.8755 18.7214 48.6912 18.4338C48.6912 18.4338 48.6912 18.4338 48.6912 18.4299C48.6815 18.4145 48.6718 18.401 48.6602 18.3855C47.9948 17.428 46.408 17.5516 45.9773 17.5863C44.9685 17.6635 44.1945 18.0844 43.7192 18.4183C43.1411 18.7948 42.2313 19.4415 41.2633 20.399C40.8928 20.7638 40.5765 21.1152 40.2972 21.4511C39.5736 22.3256 39.0964 23.1228 38.5862 23.9317C38.5765 23.9452 38.5687 23.9606 38.559 23.9722C38.2273 24.4954 37.8781 25.0224 37.4339 25.5764C37.302 25.7424 37.1623 25.9143 37.009 26.088C36.8984 26.2115 36.7122 26.4162 36.4717 26.6613L36.4154 26.7173C36.3766 26.7559 36.3398 26.7945 36.299 26.837C36.2796 26.8563 36.2583 26.8775 36.2369 26.8988C36.2156 26.9162 36.1962 26.9393 36.1729 26.9606C36.1535 26.9818 36.1322 27.003 36.1089 27.0243C36.0662 27.0667 36.0216 27.1111 35.977 27.1536C35.911 27.2173 35.8412 27.2849 35.7714 27.3524C35.7248 27.3949 35.6782 27.4393 35.6317 27.4837C35.5832 27.53 35.5347 27.5744 35.4881 27.6188C35.4629 27.6401 35.4377 27.6632 35.4125 27.6864C35.362 27.7308 35.3135 27.7752 35.267 27.8177C35.168 27.9065 35.0652 27.9953 34.9663 28.0821C34.8906 28.1458 34.8169 28.2076 34.7413 28.2694C34.716 28.2906 34.6889 28.3119 34.6656 28.3331C34.6171 28.3736 34.5667 28.4122 34.5201 28.4509C34.2252 28.6844 33.9381 28.8833 33.6879 29.0223C33.6471 29.0435 33.6064 29.0647 33.5676 29.084C33.5269 29.1014 33.49 29.1207 33.4531 29.1362C33.265 29.2134 33.1078 29.2423 32.9895 29.2037C32.4987 28.5319 33.1777 27.3196 33.5327 26.6459C34.3242 25.144 35.4047 23.7135 36.4367 22.2754C36.5396 22.1325 36.6404 21.9877 36.7433 21.8449C36.7937 21.7715 36.8441 21.7001 36.8946 21.6267C36.9954 21.4839 37.0963 21.3372 37.1953 21.1943C37.3408 20.9781 37.4862 20.76 37.6279 20.5418C37.8141 20.2484 37.9945 19.955 38.1652 19.6577L38.173 19.2523C38.1555 19.204 38.1167 19.1674 38.0566 19.1423C38.0352 19.1345 38.0139 19.1249 37.9906 19.1191C37.977 19.1133 37.9615 19.1114 37.946 19.1075C37.9111 19.0998 37.8723 19.094 37.8316 19.0901H37.8219C37.6531 19.0728 37.4358 19.0805 37.2127 19.1056C37.0886 19.1172 36.9625 19.1345 36.8383 19.1558C36.8189 19.1596 36.7976 19.1616 36.7762 19.1654C36.6948 19.1789 36.6152 19.1944 36.5396 19.2079C36.5202 19.2118 36.5008 19.2137 36.4833 19.2195C36.427 19.2291 36.3727 19.2407 36.3223 19.2523C36.3048 19.2562 36.2893 19.2581 36.2738 19.2639C36.2408 19.2697 36.2098 19.2774 36.1807 19.2851C36.0798 19.3102 35.9983 19.3334 35.9459 19.3488C35.9149 19.3604 35.8819 19.372 35.8528 19.3855C35.7888 19.4106 35.7287 19.4415 35.6685 19.4743C35.6084 19.5071 35.5502 19.5457 35.4959 19.5863C35.4416 19.6268 35.3872 19.6712 35.3407 19.7175C35.3174 19.7407 35.2941 19.7658 35.2728 19.7909C33.8159 21.4742 32.4871 24.007 31.0632 25.8621C30.518 26.5706 29.9205 27.337 29.3463 28.0049C29.3386 28.0126 29.3289 28.0223 29.323 28.0319C28.5607 28.9142 27.839 29.6265 27.3385 29.8157C27.3307 29.8215 27.323 29.8215 27.3152 29.8253C27.2958 29.8311 27.2745 29.8408 27.2512 29.8485C27.001 29.9354 26.6033 30.0551 26.4248 29.8871C26.2133 29.6883 26.3724 29.1555 26.6751 28.5184C26.6789 28.5068 26.6828 28.4972 26.6906 28.4856C26.9059 28.0377 27.193 27.5397 27.4704 27.0744C27.4879 27.0436 27.5073 27.0127 27.5247 26.9837C27.5771 26.8968 27.6276 26.8138 27.678 26.7308C27.9127 26.3447 28.1766 25.92 28.4675 25.4606C28.5063 25.4046 28.5432 25.3448 28.5781 25.2869C29.4375 23.9394 30.5355 22.3043 31.8973 20.4414C31.9361 20.2638 31.9381 20.1422 31.8585 20.0631C31.8255 20.0283 31.7751 20.0013 31.7072 19.982C31.6859 19.9762 31.6607 19.9685 31.6335 19.9646C31.5578 19.9492 31.3406 19.9588 31.067 19.982C31.0147 19.9878 30.9623 19.9917 30.908 19.9974C30.5122 20.0361 30.0428 20.094 29.6916 20.148C29.616 20.1577 29.5481 20.1693 29.486 20.1808C29.3638 20.2001 29.2687 20.2214 29.2202 20.2349C29.1582 20.2523 29.098 20.287 29.0379 20.3314C28.8575 20.4588 28.6887 20.6712 28.5742 20.8198C27.5674 22.1499 24.5276 26.9393 24.0659 28.3756C24.0465 28.4373 24.0271 28.4972 24.0115 28.557C23.9766 28.6767 23.9475 28.7945 23.9223 28.9103C23.899 29.0184 23.8796 29.1226 23.866 29.2269C23.866 29.2404 23.8622 29.2539 23.8602 29.2674C23.835 29.4566 23.8253 29.6381 23.8292 29.808C23.8428 30.3195 23.9941 30.7404 24.2889 31.0241C24.7099 31.4315 25.4219 31.5666 26.4481 31.306C26.6906 31.2442 26.9234 31.1515 27.1465 31.0376C27.2803 30.9682 27.4122 30.8929 27.5422 30.8079C27.6702 30.7249 27.7963 30.6342 27.9205 30.5396C28.002 30.4759 28.0834 30.4103 28.1649 30.3427C28.4462 30.1072 28.7139 29.8485 28.9777 29.5898C29.0165 29.5512 29.0534 29.5145 29.0903 29.4778C29.1271 29.4392 29.1659 29.4026 29.2008 29.3678C29.2377 29.3292 29.2745 29.2925 29.3114 29.2558C29.3483 29.2192 29.3851 29.1806 29.422 29.1458C29.4588 29.1072 29.4957 29.0705 29.5326 29.0358C29.5694 28.9991 29.6063 28.9624 29.6412 28.9257C29.7518 28.8176 29.8585 28.7134 29.9671 28.613C30.0757 28.5126 30.1824 28.4161 30.2911 28.3254C30.5627 28.2829 30.4346 28.4451 30.456 28.6072C30.5394 29.2057 30.6383 29.8002 31.0108 30.1747C31.0632 30.2288 31.1233 30.279 31.1893 30.3234C31.3638 30.4411 31.5831 30.5222 31.8605 30.557C31.8915 30.5628 31.9245 30.5647 31.9575 30.5666C32.0215 30.5724 32.0855 30.5763 32.1476 30.5782C32.5336 30.5898 32.9041 30.5299 33.2611 30.4122C33.3251 30.3929 33.3891 30.3697 33.4531 30.3465C33.5172 30.3215 33.5792 30.2944 33.6433 30.2674C33.8954 30.1535 34.1418 30.0145 34.3804 29.8562C34.4386 29.8157 34.4988 29.7771 34.557 29.7346C34.6753 29.6497 34.7917 29.5609 34.9061 29.4682C34.9915 29.4006 35.0749 29.3292 35.1583 29.2578C35.1874 29.2327 35.2146 29.2076 35.2437 29.1825C35.3 29.1323 35.3543 29.084 35.4105 29.0338C35.4939 28.9586 35.5754 28.8813 35.6569 28.8041C35.7093 28.752 35.7636 28.6999 35.816 28.6497C35.8431 28.6227 35.8684 28.5976 35.8955 28.5725C35.9227 28.5435 35.9479 28.5184 35.975 28.4933C36.5803 27.8852 37.1468 27.2559 37.6919 26.7656C37.9344 26.7328 37.8277 26.7907 37.8548 26.9335C38.0333 27.9161 38.27 28.7771 39.271 29.2037C39.3932 29.2558 39.5193 29.3022 39.6454 29.335C40.2662 29.5145 40.9316 29.5107 41.6008 29.3794C42.1673 29.2694 42.7376 29.0686 43.2886 28.8196C43.3506 28.7906 43.4108 28.7636 43.4729 28.7327C43.6552 28.6458 43.8356 28.5532 44.0122 28.4566C44.1305 28.391 44.2469 28.3254 44.3613 28.2578C44.4758 28.1902 44.5902 28.1207 44.7028 28.0513C44.8153 27.9818 44.9239 27.9103 45.0325 27.8389C45.4632 27.5551 45.859 27.2598 46.2062 26.9837C46.2877 27.5223 44.8968 28.6825 46.1674 28.6304C46.311 28.6246 46.4972 28.6072 46.7048 28.5802C46.8541 28.5609 47.0113 28.5358 47.1742 28.5049C47.4342 28.4566 47.6999 28.3949 47.9424 28.3157L48.0317 28.2868C48.1209 28.2559 48.2063 28.2231 48.2858 28.1883C48.313 28.1767 48.3382 28.1651 48.3634 28.1536C48.4391 28.1169 48.507 28.0783 48.569 28.0397C48.6524 27.9856 48.7203 27.9277 48.7708 27.8659C49.5409 26.9355 50.2548 25.3313 50.9823 24.2695C51.3994 23.6672 51.8785 23.0726 52.3616 22.5205C52.2937 23.8159 51.6477 26.1787 52.7243 27.2463C52.8582 27.3795 53.0192 27.4934 53.2132 27.5822C53.415 27.6748 53.6187 27.7366 53.8204 27.7675C53.9019 27.781 53.9814 27.7887 54.0629 27.7926C54.4043 27.8099 54.7458 27.752 55.0755 27.6497C55.2113 27.6092 55.3471 27.5571 55.481 27.4991C55.514 27.4856 55.5469 27.4702 55.5799 27.4567C55.7235 27.393 55.867 27.3196 56.0067 27.2443C56.1095 27.1864 56.2104 27.1266 56.3132 27.0667C56.3636 27.0358 56.4121 27.003 56.4645 26.9721C56.5635 26.9084 56.6585 26.8467 56.7536 26.783C56.7691 26.7733 56.7846 26.7617 56.804 26.7482C56.8389 26.7212 56.8797 26.6884 56.9243 26.6536C56.9689 26.6169 57.0155 26.5783 57.0659 26.5359C57.3355 26.3061 57.6498 26.0166 57.741 25.978C57.8108 25.949 57.8632 25.9548 57.8942 25.9857C57.9214 26.0166 57.9272 26.0725 57.9059 26.1401C57.902 26.1536 57.8981 26.1652 57.8923 26.1787C57.8748 26.2154 57.8516 26.254 57.8283 26.2888C57.8108 26.3139 57.7934 26.339 57.7759 26.364C57.6265 26.5629 57.4481 26.7675 57.7138 27.0494C57.7293 27.0629 57.7429 27.0783 57.7604 27.0938L60.2939 26.8428L64.3522 20.8468C64.4512 22.6016 63.4172 24.6228 65.039 25.9625C65.7839 26.1942 66.3096 26.3023 66.911 26.1961C67.0158 26.1768 67.1244 26.1498 67.235 26.1189C67.2912 26.1015 67.3475 26.0841 67.4076 26.0648C67.5221 26.0243 67.6443 25.976 67.7704 25.922C68.979 25.3969 70.0847 24.2753 71.078 23.2889C71.1556 23.2116 71.2312 23.1363 71.3069 23.063C71.4563 22.9143 71.6037 22.7715 71.7511 22.6344C72.0169 22.5862 71.8927 22.7541 71.9121 22.9143C72.0537 23.9993 72.5155 24.6614 73.1517 24.9471C73.2061 24.9722 73.2623 24.9954 73.3205 25.0127C74.0771 25.2656 75.0374 25.0359 75.9879 24.3989C76.2343 24.2328 76.5486 23.9162 76.8706 23.5668C77.5205 22.8603 78.2052 22.0148 78.471 21.9646C78.7096 21.9182 78.6126 22.009 78.6379 22.1344C78.8066 22.9954 78.9347 23.6923 79.474 24.0784C79.5263 24.1151 79.5807 24.1498 79.6408 24.1807C79.7281 24.227 79.827 24.2676 79.9357 24.3004C80.151 24.3641 80.4129 24.4027 80.7252 24.4085C80.8765 24.4124 81.0317 24.395 81.1869 24.366C81.3382 24.3371 81.4915 24.2908 81.6428 24.2348C81.6913 24.2174 81.7398 24.2 81.7863 24.1807C81.9803 24.0996 82.1743 24.0031 82.3644 23.895C82.4207 23.8641 82.477 23.8313 82.5332 23.7966C82.5817 23.7676 82.6302 23.7386 82.6768 23.7078C82.7292 23.6749 82.7854 23.6383 82.8378 23.6016C82.8863 23.5707 82.9328 23.5379 82.9794 23.5051C83.0434 23.4607 83.1094 23.4124 83.1734 23.3661C83.4624 23.1557 83.7282 22.9414 83.9629 22.7503C84.4266 22.3719 84.7991 21.8623 85.3073 21.5244C85.35 22.0456 84.8941 22.5109 84.6885 22.9143C84.6807 22.9298 84.671 22.9433 84.6594 22.9549C84.6497 22.9665 84.638 22.9761 84.6283 22.9858C84.6225 22.9896 84.6186 22.9935 84.6148 23.0012C84.5857 23.0302 84.574 23.0553 84.6245 23.0997C84.6419 23.1132 84.6613 23.1286 84.6885 23.1441C84.7273 23.1653 84.77 23.1846 84.8204 23.2039C84.8708 23.2213 84.9271 23.2348 84.9872 23.2483C85.3248 23.3197 85.8078 23.3236 86.2521 23.285C86.3238 23.2792 86.3956 23.2715 86.4654 23.2638C86.5702 23.2502 86.6711 23.2367 86.7642 23.2213C86.7952 23.2155 86.8282 23.2097 86.8554 23.2039C87.0047 23.175 87.1308 23.1421 87.2259 23.1055C87.2705 23.0881 87.416 22.9298 87.6333 22.6692C89.0494 20.9646 93.55 14.8644 93.7731 14.6714C94.6151 13.9378 95.2843 13.017 96.4231 12.6212C96.4735 12.6328 96.5162 12.6483 96.555 12.6637C96.5918 12.6811 96.6248 12.7004 96.652 12.7216C96.6617 12.7274 96.6694 12.7371 96.6772 12.7448C96.9139 12.9726 96.6772 13.4011 96.522 13.7216C96.3901 13.9918 96.2194 14.2891 96.0273 14.5961C95.9711 14.6829 95.9129 14.7698 95.8547 14.8586C95.1738 15.8856 94.2756 17.0014 93.6781 17.8045C93.2338 18.401 92.6829 19.5052 92.6441 20.2426C92.5355 22.3468 94.1087 23.0418 95.9051 22.2522C97.492 21.5534 98.5706 20.1056 99.8781 19.067C100.091 19.038 100.022 19.0921 100.076 19.2098C100.349 19.8295 100.237 20.3237 100.755 20.8353C100.831 20.9086 100.916 20.982 101.019 21.0573C101.071 21.0978 101.127 21.1325 101.18 21.1673C101.232 21.2001 101.288 21.231 101.341 21.26C101.393 21.2889 101.449 21.3121 101.502 21.3352C102.01 21.5515 102.518 21.5437 103.019 21.3874C103.048 21.3777 103.077 21.37 103.106 21.3584C103.193 21.3275 103.281 21.2928 103.366 21.2542C103.422 21.2271 103.481 21.2001 103.539 21.1712C103.626 21.1268 103.711 21.0785 103.799 21.0264C103.855 20.9916 103.911 20.9569 103.967 20.9202C104.08 20.8449 104.194 20.7658 104.309 20.6808C104.449 20.5766 104.586 20.4665 104.722 20.3507C104.817 20.2696 104.912 20.1847 105.005 20.1017C105.153 19.9666 105.3 19.8295 105.442 19.6886C105.649 19.4859 105.851 19.2793 106.049 19.0766C106.097 19.0264 106.146 18.9762 106.193 18.928C106.241 18.8778 106.29 18.8295 106.336 18.7813C106.406 18.7079 106.476 18.6384 106.546 18.5689C106.569 18.5458 106.592 18.5226 106.615 18.4994C106.705 18.4087 106.794 18.3218 106.883 18.2388C106.926 18.1963 106.97 18.1558 107.013 18.1172C107.12 18.0187 107.225 17.928 107.324 17.8469C107.153 19.2851 107.219 20.5438 107.799 21.8893C108.002 22.3622 108.309 22.7773 108.683 23.1363C108.846 23.2908 109.021 23.4336 109.205 23.5688C109.269 23.6132 109.331 23.6556 109.395 23.7C109.653 23.8699 109.927 24.0224 110.214 24.1575C110.286 24.1904 110.358 24.2232 110.429 24.256C110.724 24.3815 111.025 24.4915 111.335 24.5861C111.566 24.6556 111.803 24.7174 112.038 24.7695C113.025 24.9876 114.028 25.0475 114.872 24.9664C115.134 24.9413 115.392 24.8988 115.642 24.8429C115.809 24.8042 115.972 24.7618 116.135 24.7135C116.298 24.6653 116.459 24.6131 116.616 24.5572C117.33 24.3062 118.007 23.9857 118.67 23.7116C118.726 23.6885 118.788 23.6614 118.856 23.6305C118.866 23.6247 118.876 23.6209 118.887 23.6151C119.062 23.534 119.27 23.4259 119.504 23.2927C119.603 23.2367 119.704 23.1769 119.809 23.1113C121.019 22.3661 122.746 20.9993 124.201 18.8643C124.211 18.8508 124.218 18.8353 124.23 18.8218C124.366 18.623 124.544 18.3604 124.734 18.0574C124.845 17.8855 124.957 17.7002 125.07 17.5052C125.749 16.3257 126.391 14.8239 125.792 13.9822L125.759 13.9667ZM52.9474 21.7329C52.866 21.6576 53.4732 20.9434 53.5624 20.8411C54.286 20.0032 55.1609 19.1481 56.0319 18.5033C56.3578 18.262 57.708 17.2195 58.0533 17.7137C58.1154 17.8392 58.1135 17.9763 58.1135 18.1114C58.1076 19.76 54.4373 21.6325 52.9474 21.7348V21.7329ZM64.9362 20.1712C64.715 19.953 65.6307 19.2349 65.7839 19.0631C66.5133 18.2369 67.3669 17.4493 68.3078 16.7833C68.7947 16.4358 69.4775 15.8702 70.075 16.1771C70.044 18.4512 66.8819 19.8198 64.9362 20.1731V20.1712ZM76.7038 22.4607C76.2595 22.8796 74.3681 24.5591 74.4593 23.0186C74.6028 20.6036 78.8163 14.6733 81.2664 14.1752C81.4954 14.1289 81.7223 14.1038 81.9241 14.2525C82.3334 14.5768 81.8504 15.5111 81.6525 15.9011C80.6884 17.7987 78.2576 20.9936 76.7038 22.4607ZM108.889 14.6096C107.671 16.2312 106.759 17.4261 105.052 18.7774C104.07 19.5554 103.257 20.1866 102.889 19.9453C102.513 19.6944 102.617 18.7485 103.24 17.3083C104.187 15.1212 105.393 13.6058 106.173 12.8625C106.586 12.4687 108.914 10.2468 109.803 10.8182C110.088 11.0016 110.129 11.4108 110.156 11.6908C110.253 12.6618 109.754 13.4571 108.889 14.6077V14.6096Z" fill="var(--fill-0, white)"/>
<path id="Vector_2" d="M57.2075 30.2655C54.2569 32.8677 51.1841 34.3715 48.7553 35.2653C45.7969 36.3715 39.011 38.4834 31.0923 37.0703C31.0923 37.0703 25.1445 36.0182 17.8775 31.0454C17.798 30.9913 17.7631 30.9141 17.7553 30.8214C17.7262 30.501 19.2316 28.7829 19.5362 28.3505C21.0551 26.1942 22.2967 23.8641 23.7361 21.6596C24.3413 21.424 25.0882 21.0939 25.9088 20.6403C27.0631 20.0013 27.9244 19.3585 28.4501 18.9338C29.4938 18.094 30.1689 17.3682 30.8052 16.6501C31.649 15.6964 32.9643 14.0961 33.3348 12.8664C34.2175 9.93405 31.6781 9.70819 29.5306 10.5325C27.7866 11.2043 26.4617 12.3761 25.2744 13.766C23.7691 15.5304 21.8194 18.3257 19.9532 22.1866C18.9794 22.5263 16.5118 23.229 14.0908 22.1788C13.373 21.868 12.1082 21.3198 11.726 20.1075C11.4699 19.2948 11.7047 18.4782 11.7784 18.2118C12.0267 17.345 12.5117 16.7929 12.7251 16.5535C15.2703 13.7061 21.348 14.0845 21.8505 14.1579C21.8932 14.1637 22.1279 14.2023 22.4441 14.1965C22.7176 14.1907 22.9524 14.154 23.1347 14.1135C19.3072 10.4977 10.2808 12.4263 8.88209 17.6346C7.66576 22.1653 11.8347 24.1074 15.6932 24.0861C16.6922 24.0803 17.9027 23.6653 18.8339 23.6325C18.9872 23.6267 19.1714 23.5591 19.1074 23.7946L15.2218 29.75C11.3342 28.0435 6.36213 27.391 2.60256 29.7848C-0.29181 31.6284 -1.31415 35.8985 2.38722 37.3212C6.93247 39.0683 12.632 35.9564 15.7514 32.721L16.1296 32.665C19.5265 34.5974 22.5877 37.1687 26.2056 38.7054C31.7441 41.0586 37.0925 41.3848 42.9995 40.3269C45.7329 39.8385 56.3637 37.6127 58.905 30.2848C59.2154 29.389 59.3376 28.6091 59.3938 28.0956C58.7556 28.8118 58.032 29.5435 57.2095 30.2674L57.2075 30.2655ZM24.4849 18.6654C24.7914 17.9801 25.1425 17.3682 25.8312 16.3663C26.2289 15.7872 27.8274 13.4938 29.3638 12.3703C29.4084 12.3375 29.4433 12.3143 29.453 12.3066C29.8643 12.0151 31.2475 11.0827 31.748 11.4803C32.1612 11.8124 32.037 12.7892 31.2669 14.154C30.9138 14.7795 30.2969 15.9686 27.8448 17.9956C26.8788 18.7948 24.4674 20.7928 24.0154 20.3816C23.802 20.1905 24.095 19.538 24.483 18.6635L24.4849 18.6654ZM13.3381 32.2171C11.9898 33.8291 9.37289 35.6051 7.34179 36.1745C5.46394 36.7016 1.97984 36.7614 1.74123 34.1688C1.54724 32.0531 3.24079 30.696 5.10118 30.1535C8.21282 29.2443 10.9966 30.0222 13.8367 31.3311C13.9589 31.5087 13.4739 32.0588 13.3381 32.2191V32.2171Z" fill="var(--fill-0, white)"/>
<path id="Vector_3" d="M78.2596 32.6997C77.2896 35.3522 73.6833 37.5374 70.9073 36.5877C69.3068 36.0413 68.4571 33.9893 70.2477 33.2268C72.0169 35.5433 75.6678 34.3522 75.3555 31.2693C75.0568 28.3312 72.0053 28.3196 69.786 29.0705C67.6152 29.806 66.4959 31.1844 66.2825 33.5009C65.8926 37.7073 70.335 41.5122 71.4291 45.6588C74.0073 55.421 61.5782 62.0927 53.3451 61.9923C42.468 61.8591 41.1973 51.1548 49.3702 45.7746C52.1075 43.9735 56.3054 42.6222 59.582 43.1763C67.4503 44.5063 64.8217 53.1953 58.3715 54.8439C56.8855 55.2241 54.2938 55.4017 53.5042 53.7879C53.5236 53.12 54.7652 53.6991 55.1299 53.7358C58.8565 54.1122 63.1708 50.8594 61.5141 46.9368C59.8283 42.9465 53.2462 45.5565 50.7611 47.4966C45.081 51.9289 45.277 60.1429 53.6672 60.6545C57.2133 60.8707 60.775 59.473 63.4172 57.1913C64.8178 55.9809 66.5366 54.0273 67.2447 52.398C67.3165 52.2358 67.5143 51.4656 67.5396 51.259C67.6268 50.5486 67.8267 49.7166 67.8228 48.9985C67.8053 44.7998 64.3251 41.9157 63.0544 38.1552C62.5908 36.7826 62.5559 34.4854 63.1204 33.1457C64.7402 29.2887 69.8558 26.7057 73.9568 26.9721C76.114 27.1131 78.4846 28.5551 78.4962 30.943C78.4962 31.2867 78.3449 32.5337 78.2557 32.7017L78.2596 32.6997Z" fill="var(--fill-0, white)"/>
<path id="Vector_4" d="M117.429 32.3252C116.662 35.2016 115.737 37.8907 113.838 40.2343C112.375 42.0412 108.303 45.1221 105.956 43.4118C105.407 43.0102 105.496 42.3693 105.638 41.7748C106.191 39.466 108.449 38.0181 109.327 35.9699C109.956 34.5047 109.663 33.304 108.226 32.5646C107.624 32.2558 106.939 32.1998 106.443 31.7674C106.402 31.6921 106.897 30.667 106.918 30.6187C107.894 28.4007 105.609 28.2269 104.493 29.5975C103.9 30.3253 103.618 31.3311 103.958 32.2403C104.059 32.5106 104.371 32.777 104.377 32.9353C104.386 33.3156 101.663 37.1147 101.22 37.7112C100.012 39.3366 97.071 43.2284 95.2902 43.9639C93.6897 44.6241 93.8527 43.0141 94.3241 41.9987C95.102 40.3231 96.9255 38.466 97.8625 36.827L100.348 33.1631C100.192 32.9411 99.9634 32.9797 99.7345 32.9932C99.2321 33.0202 96.9566 33.4468 96.6423 33.7113C96.4037 33.9121 96.3125 34.3175 95.9788 34.4429C95.8236 32.0994 92.4908 33.165 91.1193 33.7885C86.1842 36.0317 84.4537 41.3462 80.6282 44.8693C79.8425 45.5932 78.504 46.875 77.3924 46.3576C77.3459 46.2032 77.3691 46.0372 77.3788 45.8769C77.4933 43.9986 80.3954 39.6706 81.5439 37.9757C82.1122 37.1398 82.6826 36.2711 83.3945 35.5607L86.0387 35.4429C86.1027 35.1379 86.7235 34.5935 86.5081 34.553C85.8893 34.4429 84.8534 34.6534 84.1589 34.6669C83.6836 34.6746 84.3567 33.9043 84.4596 33.7345C84.8107 33.1534 85.3131 32.387 85.7826 31.7384C86.0988 31.304 87.8971 29.5609 86.3995 29.6439C85.8214 29.6767 84.0425 29.9392 83.573 30.1805C82.3897 30.7867 80.9114 34.0626 79.8988 35.1109C79.4022 35.5298 76.9501 35.3271 77.0316 36.2769C77.0413 36.4062 77.0956 36.5104 77.2236 36.5491C77.47 36.6243 78.7717 36.3077 79.1345 36.244C79.2935 36.2151 79.3207 36.2151 79.2819 36.3927C79.2256 36.6591 78.5544 37.7286 78.3624 38.0413C77.0355 40.2092 74.0325 43.7554 74.4903 46.3982C74.6222 47.1646 75.3225 48.0796 76.1121 48.2398C78.8066 48.7881 81.6428 45.4387 83.2607 43.6956C83.5265 43.6473 83.4004 43.8152 83.4217 43.9774C83.5323 44.794 83.6584 45.7437 84.3199 46.319C86.6012 48.3074 89.7943 44.4233 91.2144 42.9137C91.1659 44.0527 91.4821 44.8113 92.0078 45.2515C93.2998 46.3306 95.5967 45.1144 96.0797 44.8577C97.1835 44.2747 97.8489 43.5102 98.1884 43.1029C101.046 39.688 102.802 35.5124 105.005 33.8928C105.285 33.6881 105.964 33.1901 106.361 33.4333C106.633 33.5993 106.79 33.9603 106.707 34.47C106.513 35.6456 103.929 38.9254 103.502 39.6455C102.683 41.0277 102.509 43.2515 103.987 44.2573C108.392 47.2591 115.789 42.5103 118.168 38.6262C118.441 38.1783 118.971 37.2691 119.052 36.939C119.052 36.939 119.287 36.1919 119.365 35.6997C119.574 34.4043 119.287 31.8118 117.431 32.3214L117.429 32.3252ZM89.8681 42.8114C89.3773 43.3346 87.6566 45.0063 87.0377 45.1279C86.2967 45.2747 86.5198 43.5392 86.545 43.4156C86.6168 43.0624 86.704 42.8056 86.7816 42.6087C87.1696 41.63 87.3675 41.1281 87.7128 40.4929C87.9534 40.0489 88.9272 38.327 91.1523 36.0607C93.4356 33.7364 94.068 34.0028 94.2892 33.9352C94.7256 33.802 94.9817 34.3503 94.972 34.719C94.9196 36.5413 91.2008 41.3867 89.8661 42.8114H89.8681Z" fill="var(--fill-0, white)"/>
</g>
</svg>
