<svg preserveAspectRatio="none" width="100%" height="100%" overflow="visible" style="display: block;" viewBox="0 0 661 250.5" fill="none" xmlns="http://www.w3.org/2000/svg">
<g id="Subtract" opacity="0.19" filter="url(#filter0_d_0_186)">
<mask id="path-1-inside-1_0_186" fill="white">
<path d="M67.5 176.019C43.1179 195.675 24.828 218.163 14.2861 242.5C7.5713 226.998 4 210.747 4 194C4 150.961 27.588 111.198 67.5 79.0205V176.019ZM330.5 0C510.821 0 657 86.8568 657 194C657 210.747 653.428 226.998 646.713 242.5C610.468 158.827 482.636 97 330.5 97C223.216 97 128.017 127.746 68.5 175.218V78.2188C69.3268 77.5593 70.1595 76.902 71 76.249C130.664 29.898 224.706 0 330.5 0Z"/>
</mask>
<path d="M67.5 176.019C43.1179 195.675 24.828 218.163 14.2861 242.5C7.5713 226.998 4 210.747 4 194C4 150.961 27.588 111.198 67.5 79.0205V176.019ZM330.5 0C510.821 0 657 86.8568 657 194C657 210.747 653.428 226.998 646.713 242.5C610.468 158.827 482.636 97 330.5 97C223.216 97 128.017 127.746 68.5 175.218V78.2188C69.3268 77.5593 70.1595 76.902 71 76.249C130.664 29.898 224.706 0 330.5 0Z" fill="var(--fill-0, #D9D9D9)"/>
<path d="M67.5 176.019L68.1276 176.797L68.5 176.497V176.019H67.5ZM14.2861 242.5L13.3685 242.897L14.2861 245.016L15.2037 242.897L14.2861 242.5ZM67.5 79.0205H68.5V76.9298L66.8724 78.242L67.5 79.0205ZM646.713 242.5L645.795 242.897L646.713 245.016L647.63 242.897L646.713 242.5ZM68.5 175.218H67.5V177.295L69.1236 176L68.5 175.218ZM68.5 78.2188L67.8764 77.437L67.5 77.7372V78.2188H68.5ZM71 76.249L70.3865 75.4593V75.4593L71 76.249ZM67.5 176.019L66.8724 175.24C42.394 194.974 23.9885 217.586 13.3685 242.103L14.2861 242.5L15.2037 242.897C25.6676 218.741 43.8419 196.376 68.1276 176.797L67.5 176.019ZM14.2861 242.5L15.2037 242.103C8.53972 226.718 5 210.602 5 194H4H3C3 210.892 6.60288 227.279 13.3685 242.897L14.2861 242.5ZM4 194H5C5 151.355 28.3693 111.852 68.1276 79.799L67.5 79.0205L66.8724 78.242C26.8066 110.543 3 150.568 3 194H4ZM67.5 79.0205H66.5V176.019H67.5H68.5V79.0205H67.5ZM330.5 0V1C420.512 1 501.954 22.6805 560.86 57.681C619.786 92.6942 656 140.922 656 194H657H658C658 139.934 621.124 91.1626 561.881 55.9616C502.617 20.7478 420.809 -1 330.5 -1V0ZM657 194H656C656 210.602 652.459 226.718 645.795 242.103L646.713 242.5L647.63 242.897C654.396 227.279 658 210.893 658 194H657ZM646.713 242.5L647.63 242.103C629.377 199.964 588.124 163.443 532.488 137.466C476.836 111.482 406.697 96 330.5 96V97V98C406.439 98 476.284 113.431 531.642 139.279C587.018 165.134 627.804 201.363 645.795 242.897L646.713 242.5ZM330.5 97V96C223.05 96 127.613 126.79 67.8764 174.436L68.5 175.218L69.1236 176C128.422 128.703 223.382 98 330.5 98V97ZM68.5 175.218H69.5V78.2188H68.5H67.5V175.218H68.5ZM68.5 78.2188L69.1236 79.0005C69.9477 78.3432 70.777 77.6885 71.6135 77.0387L71 76.249L70.3865 75.4593C69.542 76.1154 68.7058 76.7755 67.8764 77.437L68.5 78.2188ZM71 76.249L71.6135 77.0387C131.061 30.8554 224.871 1 330.5 1V0V-1C224.541 -1 130.266 28.9405 70.3865 75.4593L71 76.249Z" fill="var(--stroke-0, white)" mask="url(#path-1-inside-1_0_186)"/>
</g>
<defs>
<filter id="filter0_d_0_186" x="0" y="0" width="661" height="250.5" filterUnits="userSpaceOnUse" color-interpolation-filters="sRGB">
<feFlood flood-opacity="0" result="BackgroundImageFix"/>
<feColorMatrix in="SourceAlpha" type="matrix" values="0 0 0 0 0 0 0 0 0 0 0 0 0 0 0 0 0 0 127 0" result="hardAlpha"/>
<feOffset dy="4"/>
<feGaussianBlur stdDeviation="2"/>
<feComposite in2="hardAlpha" operator="out"/>
<feColorMatrix type="matrix" values="0 0 0 0 0 0 0 0 0 0 0 0 0 0 0 0 0 0 0.25 0"/>
<feBlend mode="normal" in2="BackgroundImageFix" result="effect1_dropShadow_0_186"/>
<feBlend mode="normal" in="SourceGraphic" in2="effect1_dropShadow_0_186" result="shape"/>
</filter>
</defs>
</svg>
