<svg preserveAspectRatio="none" width="100%" height="100%" overflow="visible" style="display: block;" viewBox="0 0 401 521" fill="none" xmlns="http://www.w3.org/2000/svg">
<g id="Mask group">
<mask id="mask0_0_394" style="mask-type:alpha" maskUnits="userSpaceOnUse" x="0" y="-1" width="401" height="522">
<rect id="Rectangle 1053" x="0.5" y="-0.5" width="400" height="521" rx="27.5" fill="var(--fill-0, #591ADB)" stroke="url(#paint0_radial_0_394)"/>
</mask>
<g mask="url(#mask0_0_394)">
<g id="Ellipse 141" filter="url(#filter0_f_0_394)">
<path d="M247.441 520C247.441 557.003 226.237 587 200.081 587C173.925 587 152.721 557.003 152.721 520C152.721 482.997 173.925 453 200.081 453C226.237 453 247.441 482.997 247.441 520Z" fill="var(--fill-0, #591ADB)"/>
<path d="M200.081 452.5C213.365 452.5 225.342 460.118 233.978 472.335C242.615 484.554 247.941 501.407 247.941 520C247.941 538.593 242.615 555.446 233.978 567.665C225.342 579.882 213.365 587.5 200.081 587.5C186.797 587.5 174.82 579.882 166.183 567.665C157.547 555.446 152.221 538.593 152.221 520C152.221 501.407 157.547 484.554 166.183 472.335C174.82 460.118 186.797 452.5 200.081 452.5Z" stroke="url(#paint1_radial_0_394)"/>
</g>
<g id="Ellipse 142" filter="url(#filter1_f_0_394)">
<ellipse cx="106.418" cy="297.327" rx="106.418" ry="297.327" transform="matrix(0.160932 -0.986965 0.974114 0.226058 -106.471 518.221)" fill="var(--fill-0, #87248C)"/>
<path d="M-89.8319 413.077C-87.4345 398.374 -76.9432 386.341 -60.1716 377.139C-43.3973 367.937 -20.281 361.531 7.50715 358.105C63.0881 351.252 137.472 356.308 217.491 374.878C297.511 393.448 368.059 422.025 417.434 453.234C442.12 468.837 461.537 485.114 474.196 501.147C486.854 517.178 492.8 533.026 490.402 547.729C488.005 562.432 477.513 574.465 460.741 583.666C443.967 592.869 420.851 599.275 393.062 602.701C337.481 609.553 263.098 604.497 183.078 585.927C103.058 567.358 32.5103 538.78 -16.8645 507.571C-41.5498 491.968 -60.9675 475.691 -73.6269 459.658C-86.2841 443.627 -92.2291 427.78 -89.8319 413.077Z" stroke="url(#paint2_radial_0_394)"/>
</g>
</g>
</g>
<defs>
<filter id="filter0_f_0_394" x="-27.6794" y="272.6" width="455.521" height="494.8" filterUnits="userSpaceOnUse" color-interpolation-filters="sRGB">
<feFlood flood-opacity="0" result="BackgroundImageFix"/>
<feBlend mode="normal" in="SourceGraphic" in2="BackgroundImageFix" result="shape"/>
<feGaussianBlur stdDeviation="89.7" result="effect1_foregroundBlur_0_394"/>
</filter>
<filter id="filter1_f_0_394" x="-270.247" y="175.279" width="941.065" height="610.248" filterUnits="userSpaceOnUse" color-interpolation-filters="sRGB">
<feFlood flood-opacity="0" result="BackgroundImageFix"/>
<feBlend mode="normal" in="SourceGraphic" in2="BackgroundImageFix" result="shape"/>
<feGaussianBlur stdDeviation="89.7" result="effect1_foregroundBlur_0_394"/>
</filter>
<radialGradient id="paint0_radial_0_394" cx="0" cy="0" r="1" gradientUnits="userSpaceOnUse" gradientTransform="translate(200.5 260) rotate(90) scale(260 199.5)">
<stop stop-color="white"/>
<stop offset="1" stop-color="#999999"/>
</radialGradient>
<radialGradient id="paint1_radial_0_394" cx="0" cy="0" r="1" gradientUnits="userSpaceOnUse" gradientTransform="translate(200.081 520) rotate(90) scale(67 47.3603)">
<stop stop-color="white"/>
<stop offset="1" stop-color="#999999"/>
</radialGradient>
<radialGradient id="paint2_radial_0_394" cx="0" cy="0" r="1" gradientTransform="matrix(289.63 67.2129 -17.1261 105.031 200.285 480.403)" gradientUnits="userSpaceOnUse">
<stop stop-color="white"/>
<stop offset="1" stop-color="#999999"/>
</radialGradient>
</defs>
</svg>
