<svg preserveAspectRatio="none" width="100%" height="100%" overflow="visible" style="display: block;" viewBox="0 0 833 520" fill="none" xmlns="http://www.w3.org/2000/svg">
<g id="Mask group">
<mask id="mask0_0_398" style="mask-type:alpha" maskUnits="userSpaceOnUse" x="0" y="0" width="833" height="520">
<rect id="Rectangle 1053" x="0.5" y="0.5" width="832" height="519" rx="26.5" fill="var(--fill-0, #591ADB)" stroke="url(#paint0_radial_0_398)"/>
</mask>
<g mask="url(#mask0_0_398)">
<g id="Ellipse 141" filter="url(#filter0_f_0_398)">
<path d="M789.005 623.935C583.015 744.582 375.299 774.673 325.059 691.144C274.819 607.616 401.079 442.099 607.069 321.451C813.059 200.804 1020.78 170.713 1071.02 254.242C1121.26 337.77 994.995 503.287 789.005 623.935Z" fill="var(--fill-0, #2A0773)"/>
<path d="M1070.58 254.494C1083.05 275.224 1084.6 301.081 1076.63 330.146C1068.66 359.213 1051.19 391.447 1025.69 424.867C974.709 491.705 891.7 563.207 788.747 623.506C685.794 683.805 582.429 721.462 498.55 733.613C456.609 739.689 419.566 739.384 389.892 732.364C360.22 725.344 337.959 711.621 325.49 690.892C313.022 670.162 311.477 644.306 319.445 615.24C327.413 586.173 344.886 553.939 370.379 520.519C421.365 453.681 504.373 382.179 607.326 321.88C710.28 261.581 813.645 223.924 897.524 211.773C939.464 205.697 976.507 206.002 1006.18 213.022C1035.85 220.042 1058.12 233.765 1070.58 254.494Z" stroke="url(#paint1_radial_0_398)"/>
</g>
<g id="Ellipse 142" filter="url(#filter1_f_0_398)">
<path d="M171.871 432.672C505.819 469.792 760.529 546.909 740.783 604.916C721.036 662.923 434.31 679.855 100.362 642.734C-233.586 605.613 -488.296 528.497 -468.549 470.49C-448.803 412.483 -162.077 395.551 171.871 432.672Z" fill="var(--fill-0, #9243CA)"/>
<path d="M-468.053 470.545C-465.649 463.483 -459.16 456.98 -448.848 451.078C-438.539 445.178 -424.477 439.921 -407.066 435.346C-372.248 426.196 -324.165 419.804 -266.234 416.383C-150.38 409.542 4.75636 414.587 171.71 433.145C338.663 451.703 485.797 480.258 588.715 511.417C640.177 526.998 680.56 543.223 706.837 559.164C719.977 567.135 729.565 575.021 735.252 582.699C740.941 590.38 742.69 597.799 740.286 604.861C737.882 611.922 731.394 618.426 721.081 624.328C710.772 630.228 696.709 635.485 679.298 640.06C644.481 649.21 596.398 655.602 538.467 659.022C422.613 665.864 267.476 660.819 100.523 642.261C-66.4305 623.703 -213.564 595.148 -316.481 563.989C-367.944 548.408 -408.328 532.182 -434.605 516.242C-447.744 508.271 -457.332 500.385 -463.019 492.707C-468.708 485.026 -470.456 477.607 -468.053 470.545Z" stroke="url(#paint2_radial_0_398)"/>
</g>
</g>
</g>
<defs>
<filter id="filter0_f_0_398" x="134.637" y="27.5717" width="1126.8" height="890.243" filterUnits="userSpaceOnUse" color-interpolation-filters="sRGB">
<feFlood flood-opacity="0" result="BackgroundImageFix"/>
<feBlend mode="normal" in="SourceGraphic" in2="BackgroundImageFix" result="shape"/>
<feGaussianBlur stdDeviation="89.7" result="effect1_foregroundBlur_0_398"/>
</filter>
<filter id="filter1_f_0_398" x="-649.024" y="233.591" width="1570.28" height="608.223" filterUnits="userSpaceOnUse" color-interpolation-filters="sRGB">
<feFlood flood-opacity="0" result="BackgroundImageFix"/>
<feBlend mode="normal" in="SourceGraphic" in2="BackgroundImageFix" result="shape"/>
<feGaussianBlur stdDeviation="89.7" result="effect1_foregroundBlur_0_398"/>
</filter>
<radialGradient id="paint0_radial_0_398" cx="0" cy="0" r="1" gradientUnits="userSpaceOnUse" gradientTransform="translate(416.5 260) rotate(90) scale(260 416.5)">
<stop stop-color="white"/>
<stop offset="1" stop-color="#999999"/>
</radialGradient>
<radialGradient id="paint1_radial_0_398" cx="0" cy="0" r="1" gradientTransform="matrix(-372.978 218.451 -90.968 -151.242 698.037 472.693)" gradientUnits="userSpaceOnUse">
<stop stop-color="white"/>
<stop offset="1" stop-color="#999999"/>
</radialGradient>
<radialGradient id="paint2_radial_0_398" cx="0" cy="0" r="1" gradientTransform="matrix(604.666 67.2129 -35.7546 105.031 416.051 480.403)" gradientUnits="userSpaceOnUse">
<stop stop-color="white"/>
<stop offset="1" stop-color="#999999"/>
</radialGradient>
</defs>
</svg>
