<svg preserveAspectRatio="none" width="100%" height="100%" overflow="visible" style="display: block;" viewBox="0 0 394 520" fill="none" xmlns="http://www.w3.org/2000/svg">
<g id="Mask group">
<mask id="mask0_0_368" style="mask-type:alpha" maskUnits="userSpaceOnUse" x="0" y="0" width="394" height="520">
<rect id="Rectangle 1053" x="0.5" y="0.5" width="393" height="519" rx="26.5" fill="var(--fill-0, #591ADB)" stroke="url(#paint0_radial_0_368)"/>
</mask>
<g mask="url(#mask0_0_368)">
<g id="Ellipse 141" filter="url(#filter0_f_0_368)">
<path d="M373.191 623.935C275.759 744.582 177.512 774.673 153.749 691.144C129.986 607.616 189.706 442.099 287.137 321.451C384.568 200.804 482.815 170.713 506.578 254.242C530.341 337.77 470.622 503.287 373.191 623.935Z" fill="var(--fill-0, #310096)"/>
<path d="M506.264 254.631C518.074 296.143 509.164 358.132 485.059 424.939C460.962 491.725 421.726 563.183 373.054 623.453C324.382 683.723 275.521 721.354 235.878 733.496C196.223 745.641 165.873 732.267 154.064 690.755C142.254 649.243 151.163 587.254 175.268 520.447C199.365 453.661 238.602 382.202 287.274 321.932C335.946 261.663 384.806 224.032 424.449 211.89C464.104 199.745 494.454 213.119 506.264 254.631Z" stroke="url(#paint1_radial_0_368)"/>
</g>
<g id="Ellipse 142" filter="url(#filter1_f_0_368)">
<path d="M81.294 432.672C239.248 469.792 359.723 546.909 350.383 604.916C341.043 662.923 205.425 679.855 47.4709 642.734C-110.483 605.613 -230.958 528.497 -221.618 470.49C-212.278 412.483 -76.6597 395.551 81.294 432.672Z" fill="var(--fill-0, #513CC5)"/>
<path d="M-221.131 470.605C-218.828 456.302 -208.732 444.465 -192.303 435.338C-175.877 426.212 -153.177 419.829 -125.801 416.411C-71.0548 409.576 2.27892 414.614 81.2144 433.165C160.15 451.715 229.699 480.256 278.333 511.387C302.652 526.953 321.717 543.151 334.114 559.051C346.512 574.953 352.199 590.499 349.896 604.802C347.593 619.104 337.497 630.94 321.069 640.067C304.643 649.194 281.941 655.577 254.566 658.995C199.819 665.83 126.486 660.791 47.5502 642.24C-31.3852 623.69 -100.935 595.15 -149.569 564.02C-173.887 548.453 -192.951 532.254 -205.348 516.354C-217.747 500.452 -223.434 484.907 -221.131 470.605Z" stroke="url(#paint2_radial_0_368)"/>
</g>
</g>
</g>
<defs>
<filter id="filter0_f_0_368" x="-30.8644" y="27.5717" width="722.056" height="890.243" filterUnits="userSpaceOnUse" color-interpolation-filters="sRGB">
<feFlood flood-opacity="0" result="BackgroundImageFix"/>
<feBlend mode="normal" in="SourceGraphic" in2="BackgroundImageFix" result="shape"/>
<feGaussianBlur stdDeviation="89.7" result="effect1_foregroundBlur_0_368"/>
</filter>
<filter id="filter1_f_0_368" x="-401.526" y="233.591" width="931.818" height="608.223" filterUnits="userSpaceOnUse" color-interpolation-filters="sRGB">
<feFlood flood-opacity="0" result="BackgroundImageFix"/>
<feBlend mode="normal" in="SourceGraphic" in2="BackgroundImageFix" result="shape"/>
<feGaussianBlur stdDeviation="89.7" result="effect1_foregroundBlur_0_368"/>
</filter>
<radialGradient id="paint0_radial_0_368" cx="0" cy="0" r="1" gradientUnits="userSpaceOnUse" gradientTransform="translate(197 260) rotate(90) scale(260 197)">
<stop stop-color="white"/>
<stop offset="1" stop-color="#999999"/>
</radialGradient>
<radialGradient id="paint1_radial_0_368" cx="0" cy="0" r="1" gradientTransform="matrix(-176.415 218.451 -43.0269 -151.242 330.164 472.693)" gradientUnits="userSpaceOnUse">
<stop stop-color="white"/>
<stop offset="1" stop-color="#999999"/>
</radialGradient>
<radialGradient id="paint2_radial_0_368" cx="0" cy="0" r="1" gradientTransform="matrix(286 67.2129 -16.9115 105.031 196.789 480.403)" gradientUnits="userSpaceOnUse">
<stop stop-color="white"/>
<stop offset="1" stop-color="#999999"/>
</radialGradient>
</defs>
</svg>
