<svg preserveAspectRatio="none" width="100%" height="100%" overflow="visible" style="display: block;" viewBox="0 0 315.052 593.517" fill="none" xmlns="http://www.w3.org/2000/svg">
<g id="Group 1">
<path id="Union" d="M154.715 13.8087C154.766 13.8496 154.745 13.9316 154.68 13.943C154.599 13.9574 154.596 14.0749 154.677 14.0943C162.924 16.0826 169.58 21.3068 173.586 28.1164C173.921 28.6854 174.374 29.1764 174.914 29.5563C184.545 36.3336 189.698 48.4489 187.02 60.6735C186.968 60.9111 186.939 61.1532 186.944 61.3964L197.447 578.918C197.492 581.159 195.689 583 193.448 583L146.786 583C144.674 583 142.926 581.359 142.794 579.251L110.571 68.2058C110.548 67.8334 110.471 67.4666 110.352 67.1128C108.676 62.1176 108.285 56.6192 109.495 51.0979C110.786 45.2018 113.723 40.0906 117.716 36.1391C118.25 35.6112 118.647 34.9609 118.874 34.2455C121.037 27.4304 125.463 21.8442 131.121 18.1512C131.659 17.7997 132.123 17.3423 132.456 16.7923L138.577 6.69173C139.828 4.62695 142.61 4.13283 144.496 5.64029L154.715 13.8087Z" fill="url(#paint0_linear_0_375)"/>
<g id="Union_2" filter="url(#filter0_f_0_375)">
<mask id="path-2-inside-1_0_375" fill="white">
<path d="M152.163 24.5606C152.205 24.5948 152.189 24.6629 152.136 24.6751C152.068 24.6908 152.069 24.79 152.138 24.8049C158.63 26.2129 163.914 30.354 167.16 35.907C167.5 36.4894 167.961 36.9931 168.508 37.3875C176.091 42.8517 180.203 52.8714 178.2 63.2273C178.193 63.2635 178.186 63.2998 178.179 63.336C178.117 63.6424 178.086 63.954 178.093 64.2664L189.439 572.411C189.489 574.654 187.684 576.5 185.44 576.5L152.788 576.5C150.676 576.5 148.927 574.857 148.796 572.749L117.559 71.9372C117.536 71.5816 117.465 71.2312 117.357 70.8917C116.044 66.7726 115.717 62.2095 116.612 57.5792C117.577 52.591 119.828 48.2037 122.917 44.7449C123.391 44.2149 123.74 43.5851 123.937 42.9023C125.59 37.1602 128.992 32.362 133.365 29.0765C133.863 28.7021 134.289 28.2366 134.587 27.6893L138.845 19.8782C140.039 17.6875 142.925 17.1127 144.868 18.6787L152.163 24.5606Z"/>
</mask>
<path d="M178.2 63.2273L179.182 63.4171L179.182 63.4171L178.2 63.2273ZM116.612 57.5792L115.63 57.3894V57.3894L116.612 57.5792ZM134.587 27.6893L133.709 27.2107L134.587 27.6893ZM122.917 44.7449L122.172 44.0788L122.917 44.7449ZM123.937 42.9023L122.976 42.6257L123.937 42.9023ZM117.559 71.9372L118.557 71.8749L117.559 71.9372ZM117.357 70.8917L116.404 71.1953L117.357 70.8917ZM152.788 576.5L152.788 575.5L152.788 576.5ZM148.796 572.749L147.798 572.811L148.796 572.749ZM178.179 63.336L177.198 63.1395L178.179 63.336ZM178.093 64.2664L179.092 64.2441L178.093 64.2664ZM167.16 35.907L168.023 35.4023L167.16 35.907ZM152.136 24.6751L152.36 25.6498L152.136 24.6751ZM152.138 24.8049L152.35 23.8276L152.138 24.8049ZM189.439 572.411L188.439 572.433L189.439 572.411ZM185.44 576.5L185.44 577.5L185.44 576.5ZM152.163 24.5606L152.79 23.7821L152.163 24.5606ZM152.138 24.8049L151.926 25.7822C158.122 27.1259 163.179 31.0796 166.296 36.4116L167.16 35.907L168.023 35.4023C164.648 29.6284 159.138 25.2999 152.35 23.8276L152.138 24.8049ZM168.508 37.3875L167.924 38.1988C175.177 43.4258 179.15 53.0481 177.218 63.0374L178.2 63.2273L179.182 63.4171C181.255 52.6947 177.005 42.2776 169.093 36.5762L168.508 37.3875ZM178.2 63.2273L177.218 63.0374C177.212 63.0712 177.205 63.1053 177.198 63.1395L178.179 63.336L179.159 63.5326C179.167 63.4943 179.174 63.4558 179.182 63.4171L178.2 63.2273ZM178.093 64.2664L177.093 64.2887L188.439 572.433L189.439 572.411L190.439 572.388L179.092 64.2441L178.093 64.2664ZM185.44 576.5L185.44 575.5L152.788 575.5L152.788 576.5L152.788 577.5L185.44 577.5L185.44 576.5ZM148.796 572.749L149.794 572.687L118.557 71.8749L117.559 71.9372L116.561 71.9994L147.798 572.811L148.796 572.749ZM117.357 70.8917L118.31 70.588C117.047 66.627 116.731 62.2335 117.594 57.7691L116.612 57.5792L115.63 57.3894C114.703 62.1855 115.041 66.9183 116.404 71.1953L117.357 70.8917ZM116.612 57.5792L117.594 57.7691C118.524 52.9596 120.693 48.7364 123.663 45.411L122.917 44.7449L122.172 44.0788C118.963 47.671 116.63 52.2225 115.63 57.3894L116.612 57.5792ZM123.937 42.9023L124.898 43.179C126.491 37.6454 129.766 33.0308 133.965 29.876L133.365 29.0765L132.764 28.277C128.217 31.6931 124.689 36.6749 122.976 42.6257L123.937 42.9023ZM134.587 27.6893L135.465 28.1679L139.723 20.3568L138.845 19.8782L137.967 19.3996L133.709 27.2107L134.587 27.6893ZM144.868 18.6787L144.24 19.4572L151.535 25.3391L152.163 24.5606L152.79 23.7821L145.495 17.9002L144.868 18.6787ZM133.365 29.0765L133.965 29.876C134.562 29.4277 135.089 28.8572 135.465 28.1679L134.587 27.6893L133.709 27.2107C133.488 27.6161 133.164 27.9765 132.764 28.277L133.365 29.0765ZM122.917 44.7449L123.663 45.411C124.236 44.77 124.659 44.0073 124.898 43.179L123.937 42.9023L122.976 42.6257C122.821 43.163 122.546 43.6599 122.172 44.0788L122.917 44.7449ZM117.559 71.9372L118.557 71.8749C118.529 71.4273 118.44 70.9957 118.31 70.588L117.357 70.8917L116.404 71.1953C116.491 71.4667 116.544 71.7358 116.561 71.9994L117.559 71.9372ZM152.788 576.5L152.788 575.5C151.204 575.5 149.892 574.268 149.794 572.687L148.796 572.749L147.798 572.811C147.962 575.447 150.147 577.5 152.788 577.5L152.788 576.5ZM178.179 63.336L177.198 63.1395C177.124 63.5087 177.084 63.8942 177.093 64.2887L178.093 64.2664L179.092 64.2441C179.087 64.0139 179.11 63.776 179.159 63.5326L178.179 63.336ZM167.16 35.907L166.296 36.4116C166.708 37.1164 167.265 37.7241 167.924 38.1988L168.508 37.3875L169.093 36.5762C168.657 36.2622 168.292 35.8623 168.023 35.4023L167.16 35.907ZM152.136 24.6751L151.913 23.7005C150.754 23.9663 150.862 25.5514 151.926 25.7822L152.138 24.8049L152.35 23.8276C153.277 24.0287 153.381 25.4154 152.36 25.6498L152.136 24.6751ZM189.439 572.411L188.439 572.433C188.477 574.115 187.123 575.5 185.44 575.5L185.44 576.5L185.44 577.5C188.245 577.5 190.501 575.193 190.439 572.388L189.439 572.411ZM138.845 19.8782L139.723 20.3568C140.618 18.7138 142.783 18.2827 144.24 19.4572L144.868 18.6787L145.495 17.9002C143.067 15.9427 139.459 16.6612 137.967 19.3996L138.845 19.8782ZM152.136 24.6751L152.36 25.6498C153.227 25.4508 153.483 24.3403 152.79 23.7821L152.163 24.5606L151.535 25.3391C150.928 24.8493 151.152 23.875 151.913 23.7005L152.136 24.6751Z" fill="var(--stroke-0, white)" mask="url(#path-2-inside-1_0_375)"/>
</g>
<g id="Union_3">
<mask id="path-4-inside-2_0_375" fill="white">
<path d="M152.163 24.5605C152.205 24.5948 152.189 24.6629 152.136 24.6751C152.068 24.6908 152.069 24.79 152.138 24.8049C158.63 26.2128 163.914 30.3539 167.16 35.9069C167.5 36.4893 167.961 36.9931 168.508 37.3875C176.091 42.8516 180.203 52.8713 178.2 63.2272C178.198 63.2397 178.195 63.2522 178.193 63.2648C178.133 63.5703 178.101 63.8807 178.109 64.192L190.431 573.903C190.485 576.15 188.679 578 186.432 578L152.789 578C150.676 578 148.928 576.357 148.797 574.248L117.557 71.9339C117.535 71.5783 117.464 71.2278 117.356 70.8883C116.044 66.7701 115.717 62.2082 116.612 57.5792C117.577 52.591 119.829 48.2036 122.917 44.7449C123.391 44.2149 123.74 43.5851 123.937 42.9023C125.59 37.1601 128.992 32.3619 133.365 29.0765C133.863 28.7021 134.289 28.2366 134.587 27.6893L138.845 19.8781C140.039 17.6875 142.925 17.1126 144.868 18.6787L152.163 24.5605Z"/>
</mask>
<path d="M178.2 63.2272L179.182 63.4171L179.182 63.417L178.2 63.2272ZM116.612 57.5792L115.631 57.3893V57.3893L116.612 57.5792ZM134.587 27.6893L133.709 27.2106L134.587 27.6893ZM122.917 44.7449L122.172 44.0788L122.917 44.7449ZM123.937 42.9023L122.976 42.6256L123.937 42.9023ZM117.557 71.9339L118.555 71.8719L117.557 71.9339ZM117.356 70.8883L118.309 70.5848L117.356 70.8883ZM152.789 578L152.789 577V577L152.789 578ZM148.797 574.248L147.799 574.31L148.797 574.248ZM178.193 63.2648L177.212 63.0717L178.193 63.2648ZM178.109 64.192L179.108 64.1678L178.109 64.192ZM167.16 35.9069L168.023 35.4022L167.16 35.9069ZM152.136 24.6751L152.36 25.6497L152.136 24.6751ZM152.138 24.8049L152.35 23.8276L152.138 24.8049ZM190.431 573.903L191.431 573.879L190.431 573.903ZM186.432 578L186.432 579L186.432 578ZM152.163 24.5605L152.79 23.782L152.163 24.5605ZM152.138 24.8049L151.926 25.7821C158.122 27.1258 163.179 31.0796 166.296 36.4116L167.16 35.9069L168.023 35.4022C164.648 29.6283 159.138 25.2998 152.35 23.8276L152.138 24.8049ZM168.508 37.3875L167.924 38.1988C175.177 43.4257 179.15 53.048 177.218 63.0374L178.2 63.2272L179.182 63.417C181.255 52.6946 177.005 42.2776 169.093 36.5762L168.508 37.3875ZM178.2 63.2272L177.218 63.0373C177.216 63.0488 177.214 63.0602 177.212 63.0717L178.193 63.2648L179.174 63.4578C179.177 63.4443 179.179 63.4307 179.182 63.4171L178.2 63.2272ZM178.109 64.192L177.109 64.2162L189.431 573.928L190.431 573.903L191.431 573.879L179.108 64.1678L178.109 64.192ZM186.432 578L186.432 577L152.789 577L152.789 578L152.789 579L186.432 579L186.432 578ZM148.797 574.248L149.795 574.186L118.555 71.8719L117.557 71.9339L116.559 71.996L147.799 574.31L148.797 574.248ZM117.356 70.8883L118.309 70.5848C117.047 66.6246 116.731 62.2322 117.594 57.769L116.612 57.5792L115.631 57.3893C114.703 62.1841 115.041 66.9157 116.403 71.1918L117.356 70.8883ZM116.612 57.5792L117.594 57.769C118.524 52.9595 120.693 48.7364 123.663 45.411L122.917 44.7449L122.172 44.0788C118.964 47.6709 116.63 52.2225 115.631 57.3893L116.612 57.5792ZM123.937 42.9023L124.898 43.1789C126.491 37.6454 129.766 33.0308 133.965 29.876L133.365 29.0765L132.764 28.277C128.217 31.6931 124.689 36.6749 122.976 42.6256L123.937 42.9023ZM134.587 27.6893L135.465 28.1679L139.723 20.3568L138.845 19.8781L137.967 19.3995L133.709 27.2106L134.587 27.6893ZM144.868 18.6787L144.24 19.4571L151.535 25.339L152.163 24.5605L152.79 23.782L145.495 17.9002L144.868 18.6787ZM133.365 29.0765L133.965 29.876C134.562 29.4276 135.089 28.8571 135.465 28.1679L134.587 27.6893L133.709 27.2106C133.488 27.616 133.164 27.9765 132.764 28.277L133.365 29.0765ZM122.917 44.7449L123.663 45.411C124.236 44.7699 124.659 44.0073 124.898 43.1789L123.937 42.9023L122.976 42.6256C122.821 43.1629 122.546 43.6599 122.172 44.0788L122.917 44.7449ZM117.557 71.9339L118.555 71.8719C118.527 71.4242 118.438 70.9925 118.309 70.5848L117.356 70.8883L116.403 71.1918C116.489 71.4632 116.543 71.7324 116.559 71.996L117.557 71.9339ZM152.789 578L152.789 577C151.205 577 149.893 575.768 149.795 574.186L148.797 574.248L147.799 574.31C147.963 576.946 150.148 579 152.789 579L152.789 578ZM178.193 63.2648L177.212 63.0717C177.14 63.4372 177.099 63.8212 177.109 64.2162L178.109 64.192L179.108 64.1678C179.103 63.9403 179.126 63.7033 179.174 63.4578L178.193 63.2648ZM167.16 35.9069L166.296 36.4116C166.708 37.1164 167.265 37.724 167.924 38.1988L168.508 37.3875L169.093 36.5762C168.657 36.2622 168.292 35.8622 168.023 35.4022L167.16 35.9069ZM152.136 24.6751L151.913 23.7004C150.754 23.9663 150.862 25.5513 151.926 25.7821L152.138 24.8049L152.35 23.8276C153.277 24.0286 153.381 25.4153 152.36 25.6497L152.136 24.6751ZM190.431 573.903L189.431 573.928C189.472 575.612 188.117 577 186.432 577L186.432 578L186.432 579C189.241 579 191.499 576.687 191.431 573.879L190.431 573.903ZM138.845 19.8781L139.723 20.3568C140.618 18.7137 142.783 18.2826 144.24 19.4571L144.868 18.6787L145.495 17.9002C143.067 15.9426 139.459 16.6612 137.967 19.3995L138.845 19.8781ZM152.136 24.6751L152.36 25.6497C153.227 25.4508 153.483 24.3402 152.79 23.782L152.163 24.5605L151.535 25.339C150.928 24.8493 151.152 23.8749 151.913 23.7004L152.136 24.6751Z" fill="var(--stroke-0, white)" mask="url(#path-4-inside-2_0_375)"/>
</g>
</g>
<defs>
<filter id="filter0_f_0_375" x="110.608" y="12.292" width="84.3316" height="569.708" filterUnits="userSpaceOnUse" color-interpolation-filters="sRGB">
<feFlood flood-opacity="0" result="BackgroundImageFix"/>
<feBlend mode="normal" in="SourceGraphic" in2="BackgroundImageFix" result="shape"/>
<feGaussianBlur stdDeviation="2.75" result="effect1_foregroundBlur_0_375"/>
</filter>
<linearGradient id="paint0_linear_0_375" x1="155.401" y1="-0.438938" x2="185.708" y2="568.468" gradientUnits="userSpaceOnUse">
<stop stop-color="#27044C"/>
<stop offset="1" stop-color="#AD5FFF"/>
</linearGradient>
</defs>
</svg>
