<svg preserveAspectRatio="none" width="100%" height="100%" overflow="visible" style="display: block;" viewBox="0 0 37.5412 36.4303" fill="none" xmlns="http://www.w3.org/2000/svg">
<path id="Star 5" d="M12.0967 4.19177C14.7908 -1.39726 22.7504 -1.39726 25.4445 4.19177V4.19177C26.5245 6.43224 28.6567 7.98133 31.1212 8.31611V8.31611C37.2692 9.15126 39.7289 16.7213 35.2459 21.0107V21.0107C33.4489 22.7302 32.6344 25.2366 33.0776 27.684V27.684C34.1832 33.7892 27.7437 38.4678 22.279 35.5297V35.5297C20.0883 34.3519 17.4529 34.3519 15.2622 35.5297V35.5297C9.7975 38.4678 3.35801 33.7892 4.46357 27.684V27.684C4.90676 25.2366 4.09236 22.7302 2.29528 21.0107V21.0107C-2.18768 16.7213 0.271991 9.15126 6.42 8.31611V8.31611C8.88455 7.98133 11.0167 6.43224 12.0967 4.19177V4.19177Z" fill="url(#paint0_radial_0_423)"/>
<defs>
<radialGradient id="paint0_radial_0_423" cx="0" cy="0" r="1" gradientUnits="userSpaceOnUse" gradientTransform="translate(18.7706 19.3465) rotate(90) scale(29)">
<stop stop-color="#15002B"/>
<stop offset="0.754808" stop-color="#0D0028"/>
</radialGradient>
</defs>
</svg>
