<svg preserveAspectRatio="none" width="100%" height="100%" overflow="visible" style="display: block;" viewBox="0 0 248.193 346.638" fill="none" xmlns="http://www.w3.org/2000/svg">
<g id="Vector 35" filter="url(#filter0_di_0_451)">
<path d="M68.6913 28.1384C78.4617 54.515 105.082 122.376 105.308 124.403H106.717C110.193 121.024 119.8 109.622 127.691 102.638C137.556 93.9087 142.511 89.0864 156.039 80.6384C166.862 73.88 182.72 84.1342 187.887 87.795C193.524 83.6648 207.052 73.4333 216.071 65.5484C227.345 55.6924 201.206 33.9983 183.191 30.0668C165.191 26.1384 161.3 22.1819 143.638 23.3083V0.638479C151.154 -1.05113 196.511 12.9454 217.48 30.0668C243.691 51.4685 223.963 71.1806 223.681 72.8702C223.455 74.2218 203.559 85.2554 192.191 91.6384C198.486 96.4256 205.248 106.606 211.562 124.403C217.875 142.2 199.912 175.279 187.887 186.637H232.981L211.562 85.2606H243.691C243.597 114.641 242.959 175.373 241.155 183.258C239.351 191.143 232.887 197.619 229.881 199.872C225.841 204.096 211.392 211.812 185.914 208.884C160.436 205.955 155.382 174.81 156.039 159.603C144.202 174.622 119.851 206.236 117.145 212.544C114.44 218.852 102.114 227.188 96.2892 230.567C90.4645 233.664 79.3788 239.803 81.6335 239.578C84.4519 239.296 103.617 237.325 117.145 237.325C130.674 237.325 148.43 241.831 151.53 241.831C154.01 241.831 152.563 265.11 151.53 276.749L64.4413 246.618L81.6335 207.475L73.4602 204.659C71.8631 205.786 68.5536 211.479 62.6913 219.138C56.829 226.798 46.1217 232.256 42.176 234.791C43.3973 242.019 46.1781 261.318 47.5309 280.692C48.8838 300.066 41.5184 327.062 37.6665 338.138H4.6913C20.3804 290.548 51.2512 193.621 49.222 186.637C46.6854 177.907 39.3576 156.224 39.9213 138.202C40.3722 123.784 50.8191 98.5897 55.9861 87.795H11.7373L6.94602 69.7726C17.6559 66.3933 41.6123 59.0154 51.7585 56.5373C61.9048 54.0592 51.7585 56.5373 62.6913 53.6384C67.1913 51.6384 67.6913 52.7875 67.6913 46.6384C67.6913 39.6384 65.9669 30.2035 68.6913 28.1384Z" fill="url(#paint0_radial_0_451)"/>
<path d="M68.6913 28.1384C78.4617 54.515 105.082 122.376 105.308 124.403H106.717C110.193 121.024 119.8 109.622 127.691 102.638C137.556 93.9087 142.511 89.0864 156.039 80.6384C166.862 73.88 182.72 84.1342 187.887 87.795C193.524 83.6648 207.052 73.4333 216.071 65.5484C227.345 55.6924 201.206 33.9983 183.191 30.0668C165.191 26.1384 161.3 22.1819 143.638 23.3083V0.638479C151.154 -1.05113 196.511 12.9454 217.48 30.0668C243.691 51.4685 223.963 71.1806 223.681 72.8702C223.455 74.2218 203.559 85.2554 192.191 91.6384C198.486 96.4256 205.248 106.606 211.562 124.403C217.875 142.2 199.912 175.279 187.887 186.637H232.981L211.562 85.2606H243.691C243.597 114.641 242.959 175.373 241.155 183.258C239.351 191.143 232.887 197.619 229.881 199.872C225.841 204.096 211.392 211.812 185.914 208.884C160.436 205.955 155.382 174.81 156.039 159.603C144.202 174.622 119.851 206.236 117.145 212.544C114.44 218.852 102.114 227.188 96.2892 230.567C90.4645 233.664 79.3788 239.803 81.6335 239.578C84.4519 239.296 103.617 237.325 117.145 237.325C130.674 237.325 148.43 241.831 151.53 241.831C154.01 241.831 152.563 265.11 151.53 276.749L64.4413 246.618L81.6335 207.475L73.4602 204.659C71.8631 205.786 68.5536 211.479 62.6913 219.138C56.829 226.798 46.1217 232.256 42.176 234.791C43.3973 242.019 46.1781 261.318 47.5309 280.692C48.8838 300.066 41.5184 327.062 37.6665 338.138H4.6913C20.3804 290.548 51.2512 193.621 49.222 186.637C46.6854 177.907 39.3576 156.224 39.9213 138.202C40.3722 123.784 50.8191 98.5897 55.9861 87.795H11.7373L6.94602 69.7726C17.6559 66.3933 41.6123 59.0154 51.7585 56.5373C61.9048 54.0592 51.7585 56.5373 62.6913 53.6384C67.1913 51.6384 67.6913 52.7875 67.6913 46.6384C67.6913 39.6384 65.9669 30.2035 68.6913 28.1384Z" stroke="var(--stroke-0, black)"/>
</g>
<defs>
<filter id="filter0_di_0_451" x="0" y="0" width="248.193" height="346.638" filterUnits="userSpaceOnUse" color-interpolation-filters="sRGB">
<feFlood flood-opacity="0" result="BackgroundImageFix"/>
<feColorMatrix in="SourceAlpha" type="matrix" values="0 0 0 0 0 0 0 0 0 0 0 0 0 0 0 0 0 0 127 0" result="hardAlpha"/>
<feOffset dy="4"/>
<feGaussianBlur stdDeviation="2"/>
<feComposite in2="hardAlpha" operator="out"/>
<feColorMatrix type="matrix" values="0 0 0 0 0 0 0 0 0 0 0 0 0 0 0 0 0 0 0.25 0"/>
<feBlend mode="normal" in2="BackgroundImageFix" result="effect1_dropShadow_0_451"/>
<feBlend mode="normal" in="SourceGraphic" in2="effect1_dropShadow_0_451" result="shape"/>
<feColorMatrix in="SourceAlpha" type="matrix" values="0 0 0 0 0 0 0 0 0 0 0 0 0 0 0 0 0 0 127 0" result="hardAlpha"/>
<feOffset dx="-2"/>
<feGaussianBlur stdDeviation="27.1"/>
<feComposite in2="hardAlpha" operator="arithmetic" k2="-1" k3="1"/>
<feColorMatrix type="matrix" values="0 0 0 0 1 0 0 0 0 1 0 0 0 0 1 0 0 0 1 0"/>
<feBlend mode="normal" in2="shape" result="effect2_innerShadow_0_451"/>
</filter>
<radialGradient id="paint0_radial_0_451" cx="0" cy="0" r="1" gradientUnits="userSpaceOnUse" gradientTransform="translate(16.6913 74.1384) rotate(33.4166) scale(232.422 164.522)">
<stop stop-color="white"/>
<stop offset="0.0769231" stop-color="#28076D"/>
<stop offset="1" stop-color="#591ADB"/>
</radialGradient>
</defs>
</svg>
