<svg preserveAspectRatio="none" width="100%" height="100%" overflow="visible" style="display: block;" viewBox="0 0 220 219" fill="none" xmlns="http://www.w3.org/2000/svg">
<foreignObject x="0" y="-17.9" width="253.9" height="246.8"><div xmlns="http://www.w3.org/1999/xhtml" style="backdrop-filter:blur(16.95px);clip-path:url(#bgblur_0_0_405_clip_path);height:100%;width:100%"></div></foreignObject><g id="Shape" filter="url(#filter0_diii_0_405)" data-figma-bg-blur-radius="33.9">
<path d="M160.07 62.5014C161.462 69.2377 166.762 74.5377 173.499 75.9301C201.213 81.6586 220 92.7531 220 105.5C220 118.247 201.213 129.341 173.499 135.07C166.762 136.462 161.462 141.762 160.07 148.499C154.341 176.213 143.247 195 130.5 195C117.753 195 106.659 176.213 100.93 148.499C99.5376 141.762 94.2376 136.462 87.5013 135.07C59.7869 129.341 41 118.247 41 105.5C41 92.7531 59.7869 81.6587 87.5013 75.9301C94.2376 74.5377 99.5376 69.2377 100.93 62.5014C106.659 34.7869 117.753 16 130.5 16C143.247 16 154.341 34.7869 160.07 62.5014Z" fill="url(#paint0_radial_0_405)" style="mix-blend-mode:plus-lighter"/>
<path d="M160.07 62.5014C161.462 69.2377 166.762 74.5377 173.499 75.9301C201.213 81.6586 220 92.7531 220 105.5C220 118.247 201.213 129.341 173.499 135.07C166.762 136.462 161.462 141.762 160.07 148.499C154.341 176.213 143.247 195 130.5 195C117.753 195 106.659 176.213 100.93 148.499C99.5376 141.762 94.2376 136.462 87.5013 135.07C59.7869 129.341 41 118.247 41 105.5C41 92.7531 59.7869 81.6587 87.5013 75.9301C94.2376 74.5377 99.5376 69.2377 100.93 62.5014C106.659 34.7869 117.753 16 130.5 16C143.247 16 154.341 34.7869 160.07 62.5014Z" fill="url(#paint1_radial_0_405)" style="mix-blend-mode:plus-lighter"/>
<path d="M160.07 62.5014C161.462 69.2377 166.762 74.5377 173.499 75.9301C201.213 81.6586 220 92.7531 220 105.5C220 118.247 201.213 129.341 173.499 135.07C166.762 136.462 161.462 141.762 160.07 148.499C154.341 176.213 143.247 195 130.5 195C117.753 195 106.659 176.213 100.93 148.499C99.5376 141.762 94.2376 136.462 87.5013 135.07C59.7869 129.341 41 118.247 41 105.5C41 92.7531 59.7869 81.6587 87.5013 75.9301C94.2376 74.5377 99.5376 69.2377 100.93 62.5014C106.659 34.7869 117.753 16 130.5 16C143.247 16 154.341 34.7869 160.07 62.5014Z" fill="url(#paint2_radial_0_405)" style="mix-blend-mode:plus-lighter"/>
<path d="M160.07 62.5014C161.462 69.2377 166.762 74.5377 173.499 75.9301C201.213 81.6586 220 92.7531 220 105.5C220 118.247 201.213 129.341 173.499 135.07C166.762 136.462 161.462 141.762 160.07 148.499C154.341 176.213 143.247 195 130.5 195C117.753 195 106.659 176.213 100.93 148.499C99.5376 141.762 94.2376 136.462 87.5013 135.07C59.7869 129.341 41 118.247 41 105.5C41 92.7531 59.7869 81.6587 87.5013 75.9301C94.2376 74.5377 99.5376 69.2377 100.93 62.5014C106.659 34.7869 117.753 16 130.5 16C143.247 16 154.341 34.7869 160.07 62.5014Z" fill="url(#paint3_radial_0_405)" style="mix-blend-mode:plus-lighter"/>
<path d="M160.07 62.5014C161.462 69.2377 166.762 74.5377 173.499 75.9301C201.213 81.6586 220 92.7531 220 105.5C220 118.247 201.213 129.341 173.499 135.07C166.762 136.462 161.462 141.762 160.07 148.499C154.341 176.213 143.247 195 130.5 195C117.753 195 106.659 176.213 100.93 148.499C99.5376 141.762 94.2376 136.462 87.5013 135.07C59.7869 129.341 41 118.247 41 105.5C41 92.7531 59.7869 81.6587 87.5013 75.9301C94.2376 74.5377 99.5376 69.2377 100.93 62.5014C106.659 34.7869 117.753 16 130.5 16C143.247 16 154.341 34.7869 160.07 62.5014Z" fill="url(#paint4_radial_0_405)" style="mix-blend-mode:plus-lighter"/>
<path d="M160.07 62.5014C161.462 69.2377 166.762 74.5377 173.499 75.9301C201.213 81.6586 220 92.7531 220 105.5C220 118.247 201.213 129.341 173.499 135.07C166.762 136.462 161.462 141.762 160.07 148.499C154.341 176.213 143.247 195 130.5 195C117.753 195 106.659 176.213 100.93 148.499C99.5376 141.762 94.2376 136.462 87.5013 135.07C59.7869 129.341 41 118.247 41 105.5C41 92.7531 59.7869 81.6587 87.5013 75.9301C94.2376 74.5377 99.5376 69.2377 100.93 62.5014C106.659 34.7869 117.753 16 130.5 16C143.247 16 154.341 34.7869 160.07 62.5014Z" fill="url(#paint5_radial_0_405)" style="mix-blend-mode:plus-lighter"/>
<path d="M160.07 62.5014C161.462 69.2377 166.762 74.5377 173.499 75.9301C201.213 81.6586 220 92.7531 220 105.5C220 118.247 201.213 129.341 173.499 135.07C166.762 136.462 161.462 141.762 160.07 148.499C154.341 176.213 143.247 195 130.5 195C117.753 195 106.659 176.213 100.93 148.499C99.5376 141.762 94.2376 136.462 87.5013 135.07C59.7869 129.341 41 118.247 41 105.5C41 92.7531 59.7869 81.6587 87.5013 75.9301C94.2376 74.5377 99.5376 69.2377 100.93 62.5014C106.659 34.7869 117.753 16 130.5 16C143.247 16 154.341 34.7869 160.07 62.5014Z" fill="url(#paint6_radial_0_405)" style="mix-blend-mode:plus-lighter"/>
<path d="M160.07 62.5014C161.462 69.2377 166.762 74.5377 173.499 75.9301C201.213 81.6586 220 92.7531 220 105.5C220 118.247 201.213 129.341 173.499 135.07C166.762 136.462 161.462 141.762 160.07 148.499C154.341 176.213 143.247 195 130.5 195C117.753 195 106.659 176.213 100.93 148.499C99.5376 141.762 94.2376 136.462 87.5013 135.07C59.7869 129.341 41 118.247 41 105.5C41 92.7531 59.7869 81.6587 87.5013 75.9301C94.2376 74.5377 99.5376 69.2377 100.93 62.5014C106.659 34.7869 117.753 16 130.5 16C143.247 16 154.341 34.7869 160.07 62.5014Z" fill="url(#paint7_radial_0_405)" style="mix-blend-mode:plus-lighter"/>
<path d="M160.07 62.5014C161.462 69.2377 166.762 74.5377 173.499 75.9301C201.213 81.6586 220 92.7531 220 105.5C220 118.247 201.213 129.341 173.499 135.07C166.762 136.462 161.462 141.762 160.07 148.499C154.341 176.213 143.247 195 130.5 195C117.753 195 106.659 176.213 100.93 148.499C99.5376 141.762 94.2376 136.462 87.5013 135.07C59.7869 129.341 41 118.247 41 105.5C41 92.7531 59.7869 81.6587 87.5013 75.9301C94.2376 74.5377 99.5376 69.2377 100.93 62.5014C106.659 34.7869 117.753 16 130.5 16C143.247 16 154.341 34.7869 160.07 62.5014Z" fill="url(#paint8_radial_0_405)" style="mix-blend-mode:plus-lighter"/>
<path d="M160.07 62.5014C161.462 69.2377 166.762 74.5377 173.499 75.9301C201.213 81.6586 220 92.7531 220 105.5C220 118.247 201.213 129.341 173.499 135.07C166.762 136.462 161.462 141.762 160.07 148.499C154.341 176.213 143.247 195 130.5 195C117.753 195 106.659 176.213 100.93 148.499C99.5376 141.762 94.2376 136.462 87.5013 135.07C59.7869 129.341 41 118.247 41 105.5C41 92.7531 59.7869 81.6587 87.5013 75.9301C94.2376 74.5377 99.5376 69.2377 100.93 62.5014C106.659 34.7869 117.753 16 130.5 16C143.247 16 154.341 34.7869 160.07 62.5014Z" fill="url(#paint9_radial_0_405)" style="mix-blend-mode:plus-lighter"/>
</g>
<defs>
<filter id="filter0_diii_0_405" x="0" y="-17.9" width="253.9" height="246.8" filterUnits="userSpaceOnUse" color-interpolation-filters="sRGB">
<feFlood flood-opacity="0" result="BackgroundImageFix"/>
<feColorMatrix in="SourceAlpha" type="matrix" values="0 0 0 0 0 0 0 0 0 0 0 0 0 0 0 0 0 0 127 0" result="hardAlpha"/>
<feOffset dx="-21" dy="4"/>
<feGaussianBlur stdDeviation="10"/>
<feComposite in2="hardAlpha" operator="out"/>
<feColorMatrix type="matrix" values="0 0 0 0 0 0 0 0 0 0 0 0 0 0 0 0 0 0 0.25 0"/>
<feBlend mode="normal" in2="BackgroundImageFix" result="effect1_dropShadow_0_405"/>
<feBlend mode="normal" in="SourceGraphic" in2="effect1_dropShadow_0_405" result="shape"/>
<feColorMatrix in="SourceAlpha" type="matrix" values="0 0 0 0 0 0 0 0 0 0 0 0 0 0 0 0 0 0 127 0" result="hardAlpha"/>
<feOffset dy="-23.3287"/>
<feGaussianBlur stdDeviation="21.9678"/>
<feComposite in2="hardAlpha" operator="arithmetic" k2="-1" k3="1"/>
<feColorMatrix type="matrix" values="0 0 0 0 0.716468 0 0 0 0 0.716468 0 0 0 0 0.716468 0 0 0 0.25 0"/>
<feBlend mode="plus-darker" in2="shape" result="effect2_innerShadow_0_405"/>
<feColorMatrix in="SourceAlpha" type="matrix" values="0 0 0 0 0 0 0 0 0 0 0 0 0 0 0 0 0 0 127 0" result="hardAlpha"/>
<feOffset dy="16.5245"/>
<feGaussianBlur stdDeviation="29.1608"/>
<feComposite in2="hardAlpha" operator="arithmetic" k2="-1" k3="1"/>
<feColorMatrix type="matrix" values="0 0 0 0 1 0 0 0 0 1 0 0 0 0 1 0 0 0 0.25 0"/>
<feBlend mode="normal" in2="effect2_innerShadow_0_405" result="effect3_innerShadow_0_405"/>
<feColorMatrix in="SourceAlpha" type="matrix" values="0 0 0 0 0 0 0 0 0 0 0 0 0 0 0 0 0 0 127 0" result="hardAlpha"/>
<feOffset dy="1.94406"/>
<feGaussianBlur stdDeviation="15.5524"/>
<feComposite in2="hardAlpha" operator="arithmetic" k2="-1" k3="1"/>
<feColorMatrix type="matrix" values="0 0 0 0 1 0 0 0 0 1 0 0 0 0 1 0 0 0 0.56 0"/>
<feBlend mode="plus-lighter" in2="effect3_innerShadow_0_405" result="effect4_innerShadow_0_405"/>
</filter>
<clipPath id="bgblur_0_0_405_clip_path" transform="translate(0 17.9)"><path d="M160.07 62.5014C161.462 69.2377 166.762 74.5377 173.499 75.9301C201.213 81.6586 220 92.7531 220 105.5C220 118.247 201.213 129.341 173.499 135.07C166.762 136.462 161.462 141.762 160.07 148.499C154.341 176.213 143.247 195 130.5 195C117.753 195 106.659 176.213 100.93 148.499C99.5376 141.762 94.2376 136.462 87.5013 135.07C59.7869 129.341 41 118.247 41 105.5C41 92.7531 59.7869 81.6587 87.5013 75.9301C94.2376 74.5377 99.5376 69.2377 100.93 62.5014C106.659 34.7869 117.753 16 130.5 16C143.247 16 154.341 34.7869 160.07 62.5014Z"/>
</clipPath><radialGradient id="paint0_radial_0_405" cx="0" cy="0" r="1" gradientUnits="userSpaceOnUse" gradientTransform="translate(171.592 151.046) rotate(78.1713) scale(53.473 56.6254)">
<stop stop-color="#6C2DF5"/>
<stop offset="1" stop-color="#040710" stop-opacity="0"/>
</radialGradient>
<radialGradient id="paint1_radial_0_405" cx="0" cy="0" r="1" gradientUnits="userSpaceOnUse" gradientTransform="translate(90.5541 143.397) rotate(60.8344) scale(81.9681 72.5759)">
<stop stop-color="#2269F6"/>
<stop offset="1" stop-color="#040710" stop-opacity="0"/>
</radialGradient>
<radialGradient id="paint2_radial_0_405" cx="0" cy="0" r="1" gradientUnits="userSpaceOnUse" gradientTransform="translate(183.378 153.124) rotate(130.529) scale(81.3714 78.5167)">
<stop stop-color="#2269F6"/>
<stop offset="1" stop-color="#040710" stop-opacity="0"/>
</radialGradient>
<radialGradient id="paint3_radial_0_405" cx="0" cy="0" r="1" gradientUnits="userSpaceOnUse" gradientTransform="translate(11.0819 49.6744) rotate(99.2628) scale(185.228 178.73)">
<stop stop-color="#2269F6"/>
<stop offset="1" stop-color="#040710" stop-opacity="0"/>
</radialGradient>
<radialGradient id="paint4_radial_0_405" cx="0" cy="0" r="1" gradientUnits="userSpaceOnUse" gradientTransform="translate(64.0292 42.3647) rotate(-134.854) scale(126.092 65.3413)">
<stop stop-color="#4C26BE"/>
<stop offset="1" stop-color="#040710" stop-opacity="0"/>
</radialGradient>
<radialGradient id="paint5_radial_0_405" cx="0" cy="0" r="1" gradientUnits="userSpaceOnUse" gradientTransform="translate(202.186 27.0911) rotate(179.941) scale(169.041 73.2073)">
<stop stop-color="#EB2DF5"/>
<stop offset="1" stop-color="#040710" stop-opacity="0"/>
</radialGradient>
<radialGradient id="paint6_radial_0_405" cx="0" cy="0" r="1" gradientUnits="userSpaceOnUse" gradientTransform="translate(192.618 68.2699) rotate(67.4978) scale(59.5849 76.6413)">
<stop stop-color="#EB2DF5"/>
<stop offset="1" stop-color="#040710" stop-opacity="0"/>
</radialGradient>
<radialGradient id="paint7_radial_0_405" cx="0" cy="0" r="1" gradientUnits="userSpaceOnUse" gradientTransform="translate(174.277 67.5243) rotate(-39.5138) scale(117.544 95.7822)">
<stop stop-color="#EB2DF5"/>
<stop offset="1" stop-color="#040710" stop-opacity="0"/>
</radialGradient>
<radialGradient id="paint8_radial_0_405" cx="0" cy="0" r="1" gradientUnits="userSpaceOnUse" gradientTransform="translate(71.6004 47.6399) rotate(-141.843) scale(91.8371 118.126)">
<stop stop-color="#ECDA75"/>
<stop offset="1" stop-color="#040710" stop-opacity="0"/>
</radialGradient>
<radialGradient id="paint9_radial_0_405" cx="0" cy="0" r="1" gradientUnits="userSpaceOnUse" gradientTransform="translate(130.5 10.8519) rotate(-108.681) scale(94.6 121.68)">
<stop stop-color="#ECDA75"/>
<stop offset="1" stop-color="#040710" stop-opacity="0"/>
</radialGradient>
</defs>
</svg>
