<svg preserveAspectRatio="none" width="100%" height="100%" overflow="visible" style="display: block;" viewBox="0 0 456.83 1011.1" fill="none" xmlns="http://www.w3.org/2000/svg">
<path id="Vector" d="M456.83 38.54C456.83 42.2 455.38 45.53 453.02 47.96C455.38 50.39 456.83 53.72 456.83 57.38C456.83 60.48 455.79 63.34 454.04 65.63C455.79 67.92 456.83 70.78 456.83 73.88C456.83 77.54 455.38 80.87 453.02 83.3C455.38 85.73 456.83 89.06 456.83 92.72C456.83 95.8 455.8 98.66 454.06 100.94C455.8 103.22 456.83 106.08 456.83 109.16C456.83 112.24 455.79 115.12 454.04 117.41C455.79 119.7 456.83 122.56 456.83 125.66C456.83 129.32 455.38 132.65 453.02 135.08C455.38 137.51 456.83 140.84 456.83 144.5C456.83 147.6 455.79 150.46 454.04 152.75C455.79 155.04 456.83 157.9 456.83 161C456.83 164.66 455.38 167.99 453.02 170.42C455.38 172.85 456.83 176.18 456.83 179.84C456.83 182.53 456.04 185.05 454.68 187.16C456.04 189.27 456.83 191.79 456.83 194.48C456.83 197.58 455.79 200.44 454.04 202.73C455.79 205.02 456.83 207.88 456.83 210.98C456.83 214.64 455.38 217.97 453.02 220.4C455.38 222.83 456.83 226.16 456.83 229.82C456.83 232.92 455.79 235.78 454.04 238.07C455.79 240.36 456.83 243.22 456.83 246.32C456.83 249.98 455.38 253.31 453.02 255.74C455.38 258.17 456.83 261.5 456.83 265.16C456.83 268.24 455.8 271.1 454.06 273.38C455.8 275.66 456.83 278.52 456.83 281.6C456.83 284.68 455.79 287.56 454.04 289.85C455.79 292.14 456.83 295 456.83 298.1C456.83 301.76 455.38 305.09 453.02 307.52C455.38 309.95 456.83 313.28 456.83 316.94C456.83 320.04 455.79 322.9 454.04 325.19C455.79 327.48 456.83 330.34 456.83 333.44C456.83 337.1 455.38 340.43 453.02 342.86C455.38 345.29 456.83 348.62 456.83 352.28C456.83 355.29 455.84 358.08 454.18 360.34C455.27 362.29 455.89 364.54 455.89 366.92C455.89 370.02 454.85 372.88 453.1 375.17C454.85 377.46 455.89 380.32 455.89 383.42C455.89 387.08 454.44 390.41 452.08 392.84C454.44 395.27 455.89 398.6 455.89 402.26C455.89 405.36 454.85 408.22 453.1 410.51C454.85 412.8 455.89 415.66 455.89 418.76C455.89 422.42 454.44 425.75 452.08 428.18C454.44 430.61 455.89 433.94 455.89 437.6C455.89 440.68 454.86 443.54 453.12 445.82C454.86 448.1 455.89 450.96 455.89 454.04C455.89 457.12 454.85 460 453.1 462.29C454.85 464.58 455.89 467.44 455.89 470.54C455.89 474.2 454.44 477.53 452.08 479.96C454.44 482.39 455.89 485.72 455.89 489.38C455.89 492.48 454.85 495.34 453.1 497.63C454.85 499.92 455.89 502.78 455.89 505.88C455.89 509.54 454.44 512.87 452.08 515.3C454.44 517.73 455.89 521.06 455.89 524.72C455.89 527.41 455.1 529.93 453.74 532.04C455.1 534.15 455.89 536.67 455.89 539.36C455.89 542.46 454.85 545.32 453.1 547.61C454.85 549.9 455.89 552.76 455.89 555.86C455.89 559.52 454.44 562.85 452.08 565.28C454.44 567.71 455.89 571.04 455.89 574.7C455.89 577.8 454.85 580.66 453.1 582.95C454.85 585.24 455.89 588.1 455.89 591.2C455.89 594.86 454.44 598.19 452.08 600.62C454.44 603.05 455.89 606.38 455.89 610.04C455.89 613.12 454.86 615.98 453.12 618.26C454.86 620.54 455.89 623.4 455.89 626.48C455.89 629.56 454.85 632.44 453.1 634.73C454.85 637.02 455.89 639.88 455.89 642.98C455.89 646.64 454.44 649.97 452.08 652.4C454.44 654.83 455.89 658.16 455.89 661.82C455.89 664.92 454.85 667.78 453.1 670.07C454.85 672.36 455.89 675.22 455.89 678.32C455.89 681.98 454.44 685.31 452.08 687.74C454.44 690.17 455.89 693.5 455.89 697.16C455.89 700.53 454.65 703.63 452.61 706C455.21 708.47 456.83 711.96 456.83 715.83C456.83 718.93 455.79 721.79 454.04 724.08C455.79 726.37 456.83 729.23 456.83 732.33C456.83 735.99 455.38 739.32 453.02 741.75C455.38 744.18 456.83 747.51 456.83 751.17C456.83 754.27 455.79 757.13 454.04 759.42C455.79 761.71 456.83 764.57 456.83 767.67C456.83 771.33 455.38 774.66 453.02 777.09C455.38 779.52 456.83 782.85 456.83 786.51C456.83 789.59 455.8 792.45 454.06 794.73C455.8 797.01 456.83 799.87 456.83 802.95C456.83 806.03 455.79 808.91 454.04 811.2C455.79 813.49 456.83 816.35 456.83 819.45C456.83 823.11 455.38 826.44 453.02 828.87C455.38 831.3 456.83 834.63 456.83 838.29C456.83 841.39 455.79 844.25 454.04 846.54C455.79 848.83 456.83 851.69 456.83 854.79C456.83 858.45 455.38 861.78 453.02 864.21C455.38 866.64 456.83 869.97 456.83 873.63C456.83 876.32 456.04 878.84 454.68 880.95C456.04 883.06 456.83 885.58 456.83 888.27C456.83 891.37 455.79 894.23 454.04 896.52C455.79 898.81 456.83 901.67 456.83 904.77C456.83 908.43 455.38 911.76 453.02 914.19C455.38 916.62 456.83 919.95 456.83 923.61C456.83 926.71 455.79 929.57 454.04 931.86C455.79 934.15 456.83 937.01 456.83 940.11C456.83 943.77 455.38 947.1 453.02 949.53C455.38 951.96 456.83 955.29 456.83 958.95C456.83 962.03 455.8 964.89 454.06 967.18C455.8 969.46 456.83 972.31 456.83 975.4C456.83 978.49 455.79 981.35 454.04 983.64C455.79 985.94 456.83 988.79 456.83 991.9C456.83 995.55 455.38 998.88 453.02 1001.31C455.38 1003.74 456.83 1007.07 456.83 1010.73C456.83 1010.86 456.82 1010.98 456.81 1011.1C452.48 1010.95 448.14 1010.87 443.77 1010.86C439.06 1010.68 434.37 1010.61 429.72 1010.62C429.74 1007.01 431.18 1003.72 433.52 1001.31C431.16 998.88 429.71 995.55 429.71 991.9C429.71 988.79 430.75 985.94 432.5 983.64C430.75 981.35 429.71 978.49 429.71 975.4C429.71 972.31 430.74 969.46 432.48 967.18C430.74 964.89 429.71 962.03 429.71 958.95C429.71 955.29 431.16 951.96 433.52 949.53C431.16 947.1 429.71 943.77 429.71 940.11C429.71 937.01 430.75 934.15 432.5 931.86C430.75 929.57 429.71 926.71 429.71 923.61C429.71 919.95 431.16 916.62 433.52 914.19C431.16 911.76 429.71 908.43 429.71 904.77C429.71 901.67 430.75 898.81 432.5 896.52C430.75 894.23 429.71 891.37 429.71 888.27C429.71 885.58 430.5 883.06 431.86 880.95C430.5 878.84 429.71 876.32 429.71 873.63C429.71 869.97 431.16 866.64 433.52 864.21C431.16 861.78 429.71 858.45 429.71 854.79C429.71 851.69 430.75 848.83 432.5 846.54C430.75 844.25 429.71 841.39 429.71 838.29C429.71 834.63 431.16 831.3 433.52 828.87C431.16 826.44 429.71 823.11 429.71 819.45C429.71 816.35 430.75 813.49 432.5 811.2C430.75 808.91 429.71 806.05 429.71 802.95C429.71 799.85 430.74 797.01 432.48 794.73C430.74 792.45 429.71 789.59 429.71 786.51C429.71 782.85 431.16 779.52 433.52 777.09C431.16 774.66 429.71 771.33 429.71 767.67C429.71 764.57 430.75 761.71 432.5 759.42C430.75 757.13 429.71 754.27 429.71 751.17C429.71 747.51 431.16 744.18 433.52 741.75C431.16 739.32 429.71 735.99 429.71 732.33C429.71 729.23 430.75 726.37 432.5 724.08C430.75 721.79 429.71 718.93 429.71 715.83C429.71 712.45 430.95 709.37 432.99 706.99C430.39 704.52 428.77 701.03 428.77 697.16C428.77 693.5 430.22 690.17 432.58 687.74C430.22 685.31 428.77 681.98 428.77 678.32C428.77 675.22 429.81 672.36 431.56 670.07C429.81 667.78 428.77 664.92 428.77 661.82C428.77 658.16 430.22 654.83 432.58 652.4C430.22 649.97 428.77 646.64 428.77 642.98C428.77 639.88 429.81 637.02 431.56 634.73C429.81 632.44 428.77 629.58 428.77 626.48C428.77 623.38 429.8 620.54 431.54 618.26C429.8 615.98 428.77 613.12 428.77 610.04C428.77 606.38 430.22 603.05 432.58 600.62C430.22 598.19 428.77 594.86 428.77 591.2C428.77 588.1 429.81 585.24 431.56 582.95C429.81 580.66 428.77 577.8 428.77 574.7C428.77 571.04 430.22 567.71 432.58 565.28C430.22 562.85 428.77 559.52 428.77 555.86C428.77 552.76 429.81 549.9 431.56 547.61C429.81 545.32 428.77 542.46 428.77 539.36C428.77 536.67 429.56 534.15 430.92 532.04C429.56 529.93 428.77 527.41 428.77 524.72C428.77 521.06 430.22 517.73 432.58 515.3C430.22 512.87 428.77 509.54 428.77 505.88C428.77 502.78 429.81 499.92 431.56 497.63C429.81 495.34 428.77 492.48 428.77 489.38C428.77 485.72 430.22 482.39 432.58 479.96C430.22 477.53 428.77 474.2 428.77 470.54C428.77 467.44 429.81 464.58 431.56 462.29C429.81 460 428.77 457.14 428.77 454.04C428.77 450.94 429.8 448.1 431.54 445.82C429.8 443.54 428.77 440.68 428.77 437.6C428.77 433.94 430.22 430.61 432.58 428.18C430.22 425.75 428.77 422.42 428.77 418.76C428.77 415.66 429.81 412.8 431.56 410.51C429.81 408.22 428.77 405.36 428.77 402.26C428.77 398.6 430.22 395.27 432.58 392.84C430.22 390.41 428.77 387.08 428.77 383.42C428.77 380.32 429.81 377.46 431.56 375.17C429.81 372.88 428.77 370.02 428.77 366.92C428.77 363.82 429.76 361.12 431.42 358.86C430.33 356.91 429.71 354.66 429.71 352.28C429.71 348.62 431.16 345.29 433.52 342.86C431.16 340.43 429.71 337.1 429.71 333.44C429.71 330.34 430.75 327.48 432.5 325.19C430.75 322.9 429.71 320.04 429.71 316.94C429.71 313.28 431.16 309.95 433.52 307.52C431.16 305.09 429.71 301.76 429.71 298.1C429.71 295 430.75 292.14 432.5 289.85C430.75 287.56 429.71 284.7 429.71 281.6C429.71 278.5 430.74 275.66 432.48 273.38C430.74 271.1 429.71 268.24 429.71 265.16C429.71 261.5 431.16 258.17 433.52 255.74C431.16 253.31 429.71 249.98 429.71 246.32C429.71 243.22 430.75 240.36 432.5 238.07C430.75 235.78 429.71 232.92 429.71 229.82C429.71 226.16 431.16 222.83 433.52 220.4C431.16 217.97 429.71 214.64 429.71 210.98C429.71 207.88 430.75 205.02 432.5 202.73C430.75 200.44 429.71 197.58 429.71 194.48C429.71 191.79 430.5 189.27 431.86 187.16C430.5 185.05 429.71 182.53 429.71 179.84C429.71 176.18 431.16 172.85 433.52 170.42C431.16 167.99 429.71 164.66 429.71 161C429.71 157.9 430.75 155.04 432.5 152.75C430.75 150.46 429.71 147.6 429.71 144.5C429.71 140.84 431.16 137.51 433.52 135.08C431.16 132.65 429.71 129.32 429.71 125.66C429.71 122.56 430.75 119.7 432.5 117.41C430.75 115.12 429.71 112.26 429.71 109.16C429.71 106.06 430.74 103.22 432.48 100.94C430.74 98.66 429.71 95.8 429.71 92.72C429.71 89.06 431.16 85.73 433.52 83.3C431.16 80.87 429.71 77.54 429.71 73.88C429.71 70.78 430.75 67.92 432.5 65.63C430.75 63.34 429.71 60.48 429.71 57.38C429.71 53.72 431.16 50.39 433.52 47.96C431.16 45.53 429.71 42.2 429.71 38.54C429.71 35.44 430.75 32.58 432.5 30.29C431.66 29.17 430.97 27.93 430.49 26.59C428.71 28.42 426.21 29.55 423.46 29.55H423.33C422.55 34.22 418.5 37.78 413.61 37.78C408.72 37.78 404.67 34.22 403.89 29.55H403.76C399.95 29.55 396.64 27.38 395.01 24.21C393.37 27.38 390.06 29.55 386.25 29.55H386.12C385.34 34.22 381.29 37.78 376.4 37.78C371.51 37.78 367.46 34.22 366.68 29.55H366.55C362.79 29.55 359.51 27.44 357.86 24.33C356.21 27.44 352.93 29.55 349.17 29.55H349.04C348.26 34.22 344.21 37.78 339.32 37.78C334.43 37.78 330.38 34.22 329.6 29.55H329.47C325.66 29.55 322.35 27.38 320.72 24.21C319.07 27.38 315.76 29.55 311.95 29.55H311.82C311.05 34.22 306.99 37.78 302.11 37.78C297.23 37.78 293.17 34.22 292.38 29.55H292.25C289.01 29.55 286.14 27.99 284.35 25.57C282.55 27.99 279.67 29.55 276.43 29.55H276.3C275.53 34.22 271.47 37.78 266.58 37.78C261.69 37.78 257.64 34.22 256.86 29.55H256.73C252.97 29.55 249.69 27.44 248.04 24.33C246.39 27.44 243.11 29.55 239.35 29.55H239.22C238.44 34.22 234.39 37.78 229.5 37.78C224.61 37.78 220.56 34.22 219.78 29.55H219.65C215.84 29.55 212.53 27.38 210.9 24.21C209.26 27.38 205.95 29.55 202.14 29.55H202.01C201.23 34.22 197.18 37.78 192.29 37.78C187.4 37.78 183.35 34.22 182.57 29.55H182.44C179.08 29.55 176.11 27.87 174.33 25.29C172.55 27.87 169.58 29.55 166.22 29.55H166.09C165.32 34.22 161.26 37.78 156.38 37.78C151.5 37.78 147.44 34.22 146.65 29.55H146.52C142.7 29.55 139.4 27.38 137.77 24.2C136.14 27.38 132.83 29.55 129.01 29.55H128.88C128.1 34.22 124.05 37.78 119.16 37.78C114.27 37.78 110.22 34.22 109.44 29.55H109.31C105.55 29.55 102.27 27.44 100.62 24.33C98.97 27.44 95.69 29.55 91.93 29.55H91.8C91.02 34.22 86.97 37.78 82.08 37.78C77.19 37.78 73.14 34.22 72.36 29.55H72.23C68.42 29.55 65.11 27.38 63.48 24.21C61.84 27.38 58.53 29.55 54.72 29.55H54.59C53.81 34.22 49.76 37.78 44.87 37.78C39.98 37.78 35.93 34.22 35.15 29.55H35.02C31.62 29.55 28.63 27.83 26.86 25.21C26.44 26.17 25.9 27.06 25.27 27.89C27.02 30.18 28.06 33.04 28.06 36.14C28.06 39.8 26.61 43.13 24.25 45.56C26.61 47.99 28.06 51.32 28.06 54.98C28.06 58.08 27.02 60.94 25.27 63.23C27.02 65.52 28.06 68.38 28.06 71.48C28.06 75.14 26.61 78.47 24.25 80.9C26.61 83.33 28.06 86.66 28.06 90.32C28.06 93.4 27.03 96.26 25.29 98.54C27.03 100.82 28.06 103.68 28.06 106.76C28.06 109.84 27.02 112.72 25.27 115.01C27.02 117.3 28.06 120.16 28.06 123.26C28.06 126.92 26.61 130.25 24.25 132.68C26.61 135.11 28.06 138.44 28.06 142.1C28.06 145.2 27.02 148.06 25.27 150.35C27.02 152.64 28.06 155.5 28.06 158.6C28.06 162.26 26.61 165.59 24.25 168.02C26.61 170.45 28.06 173.78 28.06 177.44C28.06 180.13 27.27 182.65 25.91 184.76C27.27 186.87 28.06 189.39 28.06 192.08C28.06 195.18 27.02 198.04 25.27 200.33C27.02 202.62 28.06 205.48 28.06 208.58C28.06 212.24 26.61 215.57 24.25 218C26.61 220.43 28.06 223.76 28.06 227.42C28.06 230.52 27.02 233.38 25.27 235.67C27.02 237.96 28.06 240.82 28.06 243.92C28.06 247.58 26.61 250.91 24.25 253.34C26.61 255.77 28.06 259.1 28.06 262.76C28.06 265.84 27.03 268.7 25.29 270.98C27.03 273.26 28.06 276.12 28.06 279.2C28.06 282.28 27.02 285.16 25.27 287.45C27.02 289.74 28.06 292.6 28.06 295.7C28.06 299.36 26.61 302.69 24.25 305.12C26.61 307.55 28.06 310.88 28.06 314.54C28.06 317.64 27.02 320.5 25.27 322.79C27.02 325.08 28.06 327.94 28.06 331.04C28.06 334.7 26.61 338.03 24.25 340.46C26.61 342.89 28.06 346.22 28.06 349.88C28.06 352.89 27.07 355.68 25.41 357.94C26.5 359.89 27.12 362.14 27.12 364.52C27.12 367.62 26.08 370.48 24.33 372.77C26.08 375.06 27.12 377.92 27.12 381.02C27.12 384.68 25.67 388.01 23.31 390.44C25.67 392.87 27.12 396.2 27.12 399.86C27.12 402.96 26.08 405.82 24.33 408.11C26.08 410.4 27.12 413.26 27.12 416.36C27.12 420.02 25.67 423.35 23.31 425.78C25.67 428.21 27.12 431.54 27.12 435.2C27.12 438.28 26.09 441.14 24.35 443.42C26.09 445.7 27.12 448.56 27.12 451.64C27.12 454.72 26.08 457.6 24.33 459.89C26.08 462.18 27.12 465.04 27.12 468.14C27.12 471.8 25.67 475.13 23.31 477.56C25.67 479.99 27.12 483.32 27.12 486.98C27.12 490.08 26.08 492.94 24.33 495.23C26.08 497.52 27.12 500.38 27.12 503.48C27.12 507.14 25.67 510.47 23.31 512.9C25.67 515.33 27.12 518.66 27.12 522.32C27.12 525.01 26.33 527.53 24.97 529.64C26.33 531.75 27.12 534.27 27.12 536.96C27.12 540.06 26.08 542.92 24.33 545.21C26.08 547.5 27.12 550.36 27.12 553.46C27.12 557.12 25.67 560.45 23.31 562.88C25.67 565.31 27.12 568.64 27.12 572.3C27.12 575.4 26.08 578.26 24.33 580.55C26.08 582.84 27.12 585.7 27.12 588.8C27.12 592.46 25.67 595.79 23.31 598.22C25.67 600.65 27.12 603.98 27.12 607.64C27.12 610.72 26.09 613.58 24.35 615.86C26.09 618.14 27.12 621 27.12 624.08C27.12 627.16 26.08 630.04 24.33 632.33C26.08 634.62 27.12 637.48 27.12 640.58C27.12 644.24 25.67 647.57 23.31 650C25.67 652.43 27.12 655.76 27.12 659.42C27.12 662.52 26.08 665.38 24.33 667.67C26.08 669.96 27.12 672.82 27.12 675.92C27.12 679.58 25.67 682.91 23.31 685.34C25.67 687.77 27.12 691.1 27.12 694.76C27.12 698.13 25.88 701.23 23.84 703.6C26.44 706.07 28.06 709.56 28.06 713.43C28.06 716.53 27.02 719.39 25.27 721.68C27.02 723.97 28.06 726.83 28.06 729.93C28.06 733.59 26.61 736.92 24.25 739.35C26.61 741.78 28.06 745.11 28.06 748.77C28.06 751.87 27.02 754.73 25.27 757.02C27.02 759.31 28.06 762.17 28.06 765.27C28.06 768.93 26.61 772.26 24.25 774.69C26.61 777.12 28.06 780.45 28.06 784.11C28.06 787.19 27.03 790.05 25.29 792.33C27.03 794.61 28.06 797.47 28.06 800.55C28.06 803.63 27.02 806.51 25.27 808.8C27.02 811.09 28.06 813.95 28.06 817.05C28.06 820.71 26.61 824.04 24.25 826.47C26.61 828.9 28.06 832.23 28.06 835.89C28.06 838.99 27.02 841.85 25.27 844.14C27.02 846.43 28.06 849.29 28.06 852.39C28.06 856.05 26.61 859.38 24.25 861.81C26.61 864.24 28.06 867.57 28.06 871.23C28.06 873.92 27.27 876.44 25.91 878.55C27.27 880.66 28.06 883.18 28.06 885.87C28.06 888.97 27.02 891.83 25.27 894.12C27.02 896.41 28.06 899.27 28.06 902.37C28.06 906.03 26.61 909.36 24.25 911.79C26.61 914.22 28.06 917.55 28.06 921.21C28.06 924.31 27.02 927.17 25.27 929.46C27.02 931.75 28.06 934.61 28.06 937.71C28.06 941.37 26.61 944.7 24.25 947.13C26.61 949.56 28.06 952.89 28.06 956.55C28.06 959.63 27.03 962.49 25.29 964.78C27.03 967.06 28.06 969.91 28.06 973C28.06 976.09 27.02 978.95 25.27 981.24C27.02 983.54 28.06 986.39 28.06 989.5C28.06 993.15 26.61 996.48 24.25 998.91C26.61 1001.34 28.06 1004.67 28.06 1008.33C28.06 1008.46 28.05 1008.58 28.04 1008.7C23.71 1008.55 19.37 1008.47 15 1008.46C10.29 1008.28 5.6 1008.21 0.95 1008.22C0.97 1004.61 2.41 1001.32 4.75 998.91C2.39 996.48 0.94 993.15 0.94 989.5C0.94 986.39 1.98 983.54 3.73 981.24C1.98 978.95 0.94 976.09 0.94 973C0.94 969.91 1.97 967.06 3.71 964.78C1.97 962.49 0.94 959.63 0.94 956.55C0.94 952.89 2.39 949.56 4.75 947.13C2.39 944.7 0.94 941.37 0.94 937.71C0.94 934.61 1.98 931.75 3.73 929.46C1.98 927.17 0.94 924.31 0.94 921.21C0.94 917.55 2.39 914.22 4.75 911.79C2.39 909.36 0.94 906.03 0.94 902.37C0.94 899.27 1.98 896.41 3.73 894.12C1.98 891.83 0.94 888.97 0.94 885.87C0.94 883.18 1.73 880.66 3.09 878.55C1.73 876.44 0.94 873.92 0.94 871.23C0.94 867.57 2.39 864.24 4.75 861.81C2.39 859.38 0.94 856.05 0.94 852.39C0.94 849.29 1.98 846.43 3.73 844.14C1.98 841.85 0.94 838.99 0.94 835.89C0.94 832.23 2.39 828.9 4.75 826.47C2.39 824.04 0.94 820.71 0.94 817.05C0.94 813.95 1.98 811.09 3.73 808.8C1.98 806.51 0.94 803.65 0.94 800.55C0.94 797.45 1.97 794.61 3.71 792.33C1.97 790.05 0.94 787.19 0.94 784.11C0.94 780.45 2.39 777.12 4.75 774.69C2.39 772.26 0.94 768.93 0.94 765.27C0.94 762.17 1.98 759.31 3.73 757.02C1.98 754.73 0.94 751.87 0.94 748.77C0.94 745.11 2.39 741.78 4.75 739.35C2.39 736.92 0.94 733.59 0.94 729.93C0.94 726.83 1.98 723.97 3.73 721.68C1.98 719.39 0.94 716.53 0.94 713.43C0.94 710.05 2.18 706.97 4.22 704.59C1.62 702.12 0 698.63 0 694.76C0 691.1 1.45 687.77 3.81 685.34C1.45 682.91 0 679.58 0 675.92C0 672.82 1.04 669.96 2.79 667.67C1.04 665.38 0 662.52 0 659.42C0 655.76 1.45 652.43 3.81 650C1.45 647.57 0 644.24 0 640.58C0 637.48 1.04 634.62 2.79 632.33C1.04 630.04 0 627.18 0 624.08C0 620.98 1.03 618.14 2.77 615.86C1.03 613.58 0 610.72 0 607.64C0 603.98 1.45 600.65 3.81 598.22C1.45 595.79 0 592.46 0 588.8C0 585.7 1.04 582.84 2.79 580.55C1.04 578.26 0 575.4 0 572.3C0 568.64 1.45 565.31 3.81 562.88C1.45 560.45 0 557.12 0 553.46C0 550.36 1.04 547.5 2.79 545.21C1.04 542.92 0 540.06 0 536.96C0 534.27 0.79 531.75 2.15 529.64C0.79 527.53 0 525.01 0 522.32C0 518.66 1.45 515.33 3.81 512.9C1.45 510.47 0 507.14 0 503.48C0 500.38 1.04 497.52 2.79 495.23C1.04 492.94 0 490.08 0 486.98C0 483.32 1.45 479.99 3.81 477.56C1.45 475.13 0 471.8 0 468.14C0 465.04 1.04 462.18 2.79 459.89C1.04 457.6 0 454.74 0 451.64C0 448.54 1.03 445.7 2.77 443.42C1.03 441.14 0 438.28 0 435.2C0 431.54 1.45 428.21 3.81 425.78C1.45 423.35 0 420.02 0 416.36C0 413.26 1.04 410.4 2.79 408.11C1.04 405.82 0 402.96 0 399.86C0 396.2 1.45 392.87 3.81 390.44C1.45 388.01 0 384.68 0 381.02C0 377.92 1.04 375.06 2.79 372.77C1.04 370.48 0 367.62 0 364.52C0 361.42 0.99 358.72 2.65 356.46C1.56 354.51 0.94 352.26 0.94 349.88C0.94 346.22 2.39 342.89 4.75 340.46C2.39 338.03 0.94 334.7 0.94 331.04C0.94 327.94 1.98 325.08 3.73 322.79C1.98 320.5 0.94 317.64 0.94 314.54C0.94 310.88 2.39 307.55 4.75 305.12C2.39 302.69 0.94 299.36 0.94 295.7C0.94 292.6 1.98 289.74 3.73 287.45C1.98 285.16 0.94 282.3 0.94 279.2C0.94 276.1 1.97 273.26 3.71 270.98C1.97 268.7 0.94 265.84 0.94 262.76C0.94 259.1 2.39 255.77 4.75 253.34C2.39 250.91 0.94 247.58 0.94 243.92C0.94 240.82 1.98 237.96 3.73 235.67C1.98 233.38 0.94 230.52 0.94 227.42C0.94 223.76 2.39 220.43 4.75 218C2.39 215.57 0.94 212.24 0.94 208.58C0.94 205.48 1.98 202.62 3.73 200.33C1.98 198.04 0.94 195.18 0.94 192.08C0.94 189.39 1.73 186.87 3.09 184.76C1.73 182.65 0.94 180.13 0.94 177.44C0.94 173.78 2.39 170.45 4.75 168.02C2.39 165.59 0.94 162.26 0.94 158.6C0.94 155.5 1.98 152.64 3.73 150.35C1.98 148.06 0.94 145.2 0.94 142.1C0.94 138.44 2.39 135.11 4.75 132.68C2.39 130.25 0.94 126.92 0.94 123.26C0.94 120.16 1.98 117.3 3.73 115.01C1.98 112.72 0.94 109.86 0.94 106.76C0.94 103.66 1.97 100.82 3.71 98.54C1.97 96.26 0.94 93.4 0.94 90.32C0.94 86.66 2.39 83.33 4.75 80.9C2.39 78.47 0.94 75.14 0.94 71.48C0.94 68.38 1.98 65.52 3.73 63.23C1.98 60.94 0.94 58.08 0.94 54.98C0.94 51.32 2.39 47.99 4.75 45.56C2.39 43.13 0.94 39.8 0.94 36.14C0.94 33.04 1.98 30.18 3.73 27.89C1.98 25.6 0.94 22.74 0.94 19.64C0.94 12.15 7.01 6.08 14.5 6.08C20.03 6.08 24.79 9.39 26.89 14.14C28.67 11.55 31.65 9.85 35.02 9.85C35.02 4.41 39.43 0 44.87 0C50.31 0 54.72 4.41 54.72 9.85C58.53 9.85 61.84 12.02 63.48 15.19C65.11 12.02 68.42 9.85 72.23 9.85C72.23 4.41 76.64 0 82.08 0C87.52 0 91.93 4.41 91.93 9.85C95.69 9.85 98.97 11.96 100.62 15.07C102.27 11.96 105.55 9.85 109.31 9.85C109.31 4.41 113.72 0 119.16 0C124.6 0 129.01 4.41 129.01 9.85C132.83 9.85 136.14 12.02 137.77 15.2C139.4 12.02 142.7 9.85 146.52 9.85C146.52 4.41 150.94 0 156.38 0C161.82 0 166.22 4.41 166.22 9.85C169.58 9.85 172.55 11.53 174.33 14.11C176.11 11.53 179.08 9.85 182.44 9.85C182.44 4.41 186.85 0 192.29 0C197.73 0 202.14 4.41 202.14 9.85C205.95 9.85 209.26 12.02 210.9 15.19C212.53 12.02 215.84 9.85 219.65 9.85C219.65 4.41 224.06 0 229.5 0C234.94 0 239.35 4.41 239.35 9.85C243.11 9.85 246.39 11.96 248.04 15.07C249.69 11.96 252.97 9.85 256.73 9.85C256.73 4.41 261.14 0 266.58 0C272.02 0 276.43 4.41 276.43 9.85C279.67 9.85 282.55 11.41 284.35 13.83C286.14 11.41 289.01 9.85 292.25 9.85C292.25 4.41 296.67 0 302.11 0C307.55 0 311.95 4.41 311.95 9.85C315.76 9.85 319.07 12.02 320.72 15.19C322.35 12.02 325.66 9.85 329.47 9.85C329.47 4.41 333.88 0 339.32 0C344.76 0 349.17 4.41 349.17 9.85C352.93 9.85 356.21 11.96 357.86 15.07C359.51 11.96 362.79 9.85 366.55 9.85C366.55 4.41 370.96 0 376.4 0C381.84 0 386.25 4.41 386.25 9.85C390.06 9.85 393.37 12.02 395.01 15.19C396.64 12.02 399.95 9.85 403.76 9.85C403.76 4.41 408.17 0 413.61 0C419.05 0 423.46 4.41 423.46 9.85C427.05 9.85 430.19 11.77 431.91 14.64C434.32 10.93 438.51 8.48 443.27 8.48C450.76 8.48 456.83 14.55 456.83 22.04C456.83 25.14 455.79 28 454.04 30.29C455.79 32.58 456.83 35.44 456.83 38.54Z" fill="url(#paint0_linear_0_355)"/>
<defs>
<linearGradient id="paint0_linear_0_355" x1="228.42" y1="1011.1" x2="228.42" y2="0" gradientUnits="userSpaceOnUse">
<stop/>
<stop offset="0.43" stop-color="#2D0C75"/>
<stop offset="0.68" stop-color="#591ADB"/>
<stop offset="1" stop-color="#8C54FF"/>
</linearGradient>
</defs>
</svg>
