<svg preserveAspectRatio="none" width="100%" height="100%" overflow="visible" style="display: block;" viewBox="0 0 70.92 93.64" fill="none" xmlns="http://www.w3.org/2000/svg">
<path id="Vector" d="M8.39 12.5C13.98 4.17 23.01 0 35.46 0C47.91 0 56.93 4.16 62.53 12.5C68.12 20.83 70.92 32.23 70.92 46.7C70.92 61.17 68.12 72.82 62.53 81.15C56.93 89.48 47.91 93.64 35.46 93.64C23.01 93.64 13.98 89.48 8.39 81.15C2.79 72.82 0 61.34 0 46.7C0 32.06 2.8 20.83 8.39 12.5ZM46.94 27.08C45.09 22.5 41.26 20.2 35.46 20.2C29.66 20.2 25.83 22.49 23.98 27.08C22.13 31.67 21.2 38.21 21.2 46.7C21.2 52.42 21.54 57.16 22.21 60.9C22.88 64.64 24.25 67.67 26.31 69.99C28.37 72.3 31.42 73.46 35.46 73.46C39.5 73.46 42.55 72.3 44.61 69.99C46.67 67.68 48.04 64.65 48.71 60.9C49.38 57.16 49.72 52.42 49.72 46.7C49.72 38.2 48.79 31.66 46.94 27.08Z" fill="var(--fill-0, white)"/>
</svg>
