<svg preserveAspectRatio="none" width="100%" height="100%" overflow="visible" style="display: block;" viewBox="0 0 32.9468 21.1666" fill="none" xmlns="http://www.w3.org/2000/svg">
<path id="Vector" d="M6.3827 18.9168L4.69829 20.4084C5.10413 20.8668 5.6792 21.1398 6.29087 21.1647C6.90254 21.1899 7.49798 20.9646 7.93988 20.5407L6.3827 18.9168ZM12.8072 15.8742C13.7042 15.0141 13.7341 13.5897 12.8741 12.6927C12.0141 11.796 10.5898 11.766 9.69287 12.6258L12.8072 15.8742ZM3.93446 12.7584C3.1106 11.8281 1.6886 11.7417 0.758331 12.5655C-0.171969 13.3893 -0.258249 14.8113 0.565581 15.7416L3.93446 12.7584ZM29.0451 8.2779C29.889 9.19011 31.3125 9.24552 32.2245 8.40165C33.1368 7.55781 33.1923 6.13428 32.3484 5.2221L29.0451 8.2779ZM20.3811 0C11.4241 0 4.1327 7.209 4.1327 16.1388H8.6327C8.6327 9.72753 13.876 4.5 20.3811 4.5V0ZM4.1327 16.1388V18.9168H8.6327V16.1388H4.1327ZM7.93988 20.5407L12.8072 15.8742L9.69287 12.6258L4.82555 17.2926L7.93988 20.5407ZM8.06714 17.4249L3.93446 12.7584L0.565581 15.7416L4.69829 20.4084L8.06714 17.4249ZM32.3484 5.2221C29.3793 2.0127 25.1136 0 20.3811 0V4.5C23.8137 4.5 26.8962 5.95512 29.0451 8.2779L32.3484 5.2221Z" fill="var(--fill-0, white)"/>
</svg>
