<svg preserveAspectRatio="none" width="100%" height="100%" overflow="visible" style="display: block;" viewBox="0 0 33.0001 21.1668" fill="none" xmlns="http://www.w3.org/2000/svg">
<path id="Vector" d="M26.6064 2.24998L28.2885 0.755679C27.882 0.298178 27.3069 0.0260761 26.6955 0.00177606C26.0841 -0.0225239 25.4892 0.203379 25.0479 0.627279L26.6064 2.24998ZM20.1915 5.29138C19.2951 6.15208 19.2666 7.57648 20.1273 8.47258C20.988 9.36898 22.4124 9.39778 23.3085 8.53708L20.1915 5.29138ZM29.0679 8.40868C29.8932 9.33748 31.3155 9.42148 32.2443 8.59618C33.1734 7.77088 33.2574 6.34888 32.4321 5.41978L29.0679 8.40868ZM3.89065 12.9312C3.04027 12.0252 1.61638 11.9799 0.71026 12.8304C-0.19583 13.6806 -0.24101 15.1047 0.60937 16.0107L3.89065 12.9312ZM12.5544 21.1668C21.5328 21.1668 28.8564 13.9659 28.8564 5.02798H24.3564C24.3564 11.4312 19.0974 16.6668 12.5544 16.6668V21.1668ZM28.8564 5.02798V2.24998H24.3564V5.02798H28.8564ZM25.0479 0.627279L20.1915 5.29138L23.3085 8.53708L28.1649 3.87298L25.0479 0.627279ZM24.9243 3.74458L29.0679 8.40868L32.4321 5.41978L28.2885 0.755679L24.9243 3.74458ZM0.60937 16.0107C3.5863 19.1826 7.84051 21.1668 12.5544 21.1668V16.6668C9.12601 16.6668 6.04639 15.2283 3.89065 12.9312L0.60937 16.0107Z" fill="var(--fill-0, white)"/>
</svg>
