<svg preserveAspectRatio="none" width="100%" height="100%" overflow="visible" style="display: block;" viewBox="0 0 51.9583 41.0835" fill="none" xmlns="http://www.w3.org/2000/svg">
<path id="Vector" fill-rule="evenodd" clip-rule="evenodd" d="M33.2023 0.579177C33.8834 -0.154354 35.0303 -0.196815 35.7638 0.484322L48.3696 12.1897C50.6579 14.3147 51.9583 17.2966 51.9583 20.4194C51.9583 23.7114 50.5139 26.8378 48.0071 28.9715L35.7053 39.4427C34.9431 40.0915 33.799 39.9997 33.1501 39.2372C32.5015 38.475 32.5933 37.3312 33.3556 36.6823L45.6574 26.2112C47.3551 24.766 48.3333 22.649 48.3333 20.4194C48.3333 18.3046 47.4527 16.2852 45.9029 14.8461L33.2971 3.1407C32.5636 2.45956 32.5211 1.31273 33.2023 0.579177ZM28.6955 2.74176C28.7264 2.76935 28.7576 2.79705 28.7888 2.82479L38.489 11.4471C40.2989 13.0558 41.7994 14.3894 42.8296 15.6001C43.9123 16.8724 44.6832 18.2424 44.6832 19.9375C44.6832 21.6325 43.9123 23.0026 42.8296 24.2749C41.7994 25.4857 40.2989 26.8192 38.489 28.428L28.7888 37.0502C28.7576 37.0779 28.7264 37.1057 28.6955 37.1333C27.9115 37.8305 27.1798 38.4811 26.5476 38.8984C25.9267 39.3083 24.7979 39.9038 23.5333 39.3358C22.2689 38.7679 21.9639 37.5287 21.8578 36.7923C21.7498 36.0426 21.7498 35.0634 21.75 34.0143C21.75 33.9728 21.75 33.931 21.75 33.8894V30.0986C18.2422 30.3405 14.6876 31.2721 11.5783 32.7872C7.92203 34.5687 5.00199 37.0949 3.41729 40.1133C3.02965 40.8516 2.18829 41.2303 1.37864 41.0306C0.56898 40.831 0 40.1048 0 39.2708C0 27.8617 3.33834 20.4332 8.11154 15.8659C12.2721 11.8852 17.3429 10.2517 21.75 9.90981V5.98572C21.75 5.94396 21.75 5.9023 21.75 5.86073C21.7498 4.81158 21.7498 3.8324 21.8578 3.08263C21.9639 2.34634 22.2689 1.1071 23.5333 0.539205C24.7979 -0.0286631 25.9267 0.566707 26.5476 0.976573C27.1798 1.39396 27.9115 2.0446 28.6955 2.74176ZM25.3825 4.65682C25.6556 4.89099 25.9818 5.17981 26.3806 5.53414L35.9803 14.0672C37.9163 15.7881 39.2225 16.9548 40.0688 17.9493C40.8815 18.9044 41.0582 19.4621 41.0582 19.9375C41.0582 20.4129 40.8815 20.9706 40.0688 21.9257C39.2225 22.9201 37.9163 24.0869 35.9803 25.8078L26.3806 34.3408C25.9818 34.6951 25.6556 34.9839 25.3825 35.2181C25.376 34.8585 25.375 34.4228 25.375 33.8894V28.2233C25.375 27.2223 24.5635 26.4108 23.5625 26.4108C18.9405 26.4108 14.1374 27.5077 9.99045 29.5283C7.76997 30.6102 5.70285 31.9752 3.94866 33.6081C4.83983 26.2445 7.47335 21.4936 10.6176 18.4851C14.5327 14.7392 19.4793 13.4643 23.5625 13.4643C24.5635 13.4643 25.375 12.6528 25.375 11.6518V5.98572C25.375 5.45236 25.376 5.01664 25.3825 4.65682Z" fill="url(#paint0_linear_0_363)"/>
<defs>
<linearGradient id="paint0_linear_0_363" x1="25.9792" y1="-5.80861e-09" x2="25.9792" y2="41.0835" gradientUnits="userSpaceOnUse">
<stop stop-color="white"/>
<stop offset="1" stop-color="#999999"/>
</linearGradient>
</defs>
</svg>
