<svg preserveAspectRatio="none" width="100%" height="100%" overflow="visible" style="display: block;" viewBox="0 0 69.0405 280.992" fill="none" xmlns="http://www.w3.org/2000/svg">
<path id="Vector" d="M66.108 257.021C63.6179 267.549 60.0875 275.71 57.4713 280.992H48.8031C52.6486 271.397 56.77 258.124 58.4484 241.848C61.8527 208.767 53.1608 182.491 48.0466 169.856C51.766 181.568 56.7621 203.243 51.0726 227.536C50.4815 230.047 47.0458 243.911 36.967 256.806C30.0482 265.666 24.8551 267.836 22.4201 268.643C19.9694 269.451 12.1995 272.024 6.24994 267.029C3.01117 264.312 1.75821 260.564 1.14356 258.636C-2.25281 248.036 2.89296 237.786 3.98043 235.714C8.0151 232.396 13.5549 233.741 15.8953 237.974C18.3303 242.386 16.7543 248.968 12.034 251.444C14.4532 256.241 16.9907 257.55 18.4485 257.99C25.6037 260.142 36.108 250.152 43.0742 231.84C44.9181 223.572 46.9906 210.417 45.3988 194.714C43.3106 174.089 36.7542 167.381 29.1341 140.496C24.9497 125.744 19.9615 108.15 20.1506 86.8874C20.2609 74.7542 22.1128 54.5053 32.9166 30.3913L43.0742 2.84274L56.3681 0L59.4098 5.01291C58.6533 5.97244 57.6525 7.32656 56.2893 9.25461C47.7865 21.2174 43.5391 27.1899 40.4816 33.4044C25.8086 63.2218 30.7416 105.235 31.4036 110.454C33.6809 128.452 35.7061 144.487 44.6423 147.903C47.4004 148.961 50.4973 148.683 53.6336 147.455C60.9307 168.556 64.4059 186.859 66.2026 199.987C68.8503 219.33 71.0174 236.297 66.108 257.021Z" fill="url(#paint0_linear_0_22)"/>
<defs>
<linearGradient id="paint0_linear_0_22" x1="0.000927336" y1="140.496" x2="69.0394" y2="140.496" gradientUnits="userSpaceOnUse">
<stop stop-color="#EF09F7"/>
<stop offset="0.66" stop-color="#FF66C4"/>
<stop offset="0.73" stop-color="#FF69C5"/>
<stop offset="0.78" stop-color="#FF73C9"/>
<stop offset="0.83" stop-color="#FF84CF"/>
<stop offset="0.88" stop-color="#FF9CD9"/>
<stop offset="0.93" stop-color="#FFBCE5"/>
<stop offset="0.97" stop-color="#FFE1F3"/>
<stop offset="1" stop-color="white"/>
</linearGradient>
</defs>
</svg>
