<svg preserveAspectRatio="none" width="100%" height="100%" overflow="visible" style="display: block;" viewBox="0 0 38.8587 143.545" fill="none" xmlns="http://www.w3.org/2000/svg">
<path id="Vector" d="M38.5831 122.552C37.2435 131.573 31.2624 139.007 23.264 141.599C23.3664 141.886 23.461 142.164 23.5555 142.442C20.4192 143.67 17.3223 143.948 14.5642 142.89C5.62807 139.474 3.60286 123.44 1.32547 105.441C0.663537 100.222 -4.26947 58.2089 10.4035 28.3915C13.461 22.177 17.7084 16.2045 26.2112 4.2417C27.5744 2.31366 28.5752 0.959537 29.3317 0L32.0189 4.42105C33.327 5.25504 34.6272 6.098 35.9354 6.93199C36.1166 8.08882 36.29 9.35325 36.4554 10.7343C29.9149 17.4241 19.2924 30.3644 12.9961 50.3443C4.31208 77.8929 9.22144 101.774 11.3491 110.284C13.9338 120.57 18.6777 126.444 22.0189 125.762C24.8243 125.197 26.29 120.068 26.6682 118.678C26.0772 118.803 23.461 119.261 20.9945 117.386C17.669 114.857 17.5902 110.347 17.5902 109.961C18.1024 103.495 21.9559 98.8323 26.0772 98.5274C29.2293 98.2853 31.6406 100.662 32.342 101.406C33.0197 102.159 40.3561 110.58 38.5831 122.552Z" fill="url(#paint0_linear_0_20)"/>
<defs>
<linearGradient id="paint0_linear_0_20" x1="0.00160113" y1="71.777" x2="38.8589" y2="71.777" gradientUnits="userSpaceOnUse">
<stop stop-color="#EF09F7"/>
<stop offset="0.66" stop-color="#FF66C4"/>
<stop offset="0.73" stop-color="#FF69C5"/>
<stop offset="0.78" stop-color="#FF73C9"/>
<stop offset="0.83" stop-color="#FF84CF"/>
<stop offset="0.88" stop-color="#FF9CD9"/>
<stop offset="0.93" stop-color="#FFBCE5"/>
<stop offset="0.97" stop-color="#FFE1F3"/>
<stop offset="1" stop-color="white"/>
</linearGradient>
</defs>
</svg>
