<svg preserveAspectRatio="none" width="100%" height="100%" overflow="visible" style="display: block;" viewBox="0 0 876.709 339.331" fill="none" xmlns="http://www.w3.org/2000/svg">
<path id="Ellipse 23" d="M438.354 0.5C559.357 0.5 668.882 19.4842 748.138 50.1602C787.767 65.4988 819.804 83.7511 841.924 103.993C864.044 124.235 876.21 146.427 876.21 169.665C876.21 192.903 864.044 215.096 841.924 235.338C819.804 255.58 787.767 273.832 748.138 289.171C668.882 319.847 559.357 338.831 438.354 338.831C317.352 338.831 207.827 319.847 128.571 289.171C88.9419 273.832 56.9054 255.58 34.7852 235.338C12.6654 215.096 0.5 192.903 0.5 169.665C0.500112 146.428 12.6656 124.235 34.7852 103.993C56.9054 83.7512 88.9419 65.4987 128.571 50.1602C207.827 19.4842 317.352 0.500026 438.354 0.5Z" stroke="url(#paint0_linear_0_208)"/>
<defs>
<linearGradient id="paint0_linear_0_208" x1="438.355" y1="0" x2="438.355" y2="339.331" gradientUnits="userSpaceOnUse">
<stop stop-opacity="0"/>
<stop offset="0.479167" stop-color="#763CAC"/>
</linearGradient>
</defs>
</svg>
