<svg preserveAspectRatio="none" width="100%" height="100%" overflow="visible" style="display: block;" viewBox="0 0 963.75 339.331" fill="none" xmlns="http://www.w3.org/2000/svg">
<path id="Ellipse 22" d="M481.875 0.5C614.9 0.500015 735.309 19.4851 822.445 50.165C866.015 65.5058 901.24 83.7615 925.562 104.008C949.886 124.257 963.25 146.446 963.25 169.665C963.25 192.884 949.886 215.073 925.562 235.322C901.24 255.569 866.016 273.824 822.445 289.165C735.309 319.845 614.9 338.831 481.875 338.831C348.85 338.831 228.44 319.845 141.304 289.165C97.7336 273.824 62.5101 255.569 38.1885 235.322C13.8639 215.073 0.5 192.884 0.5 169.665C0.500123 146.446 13.864 124.257 38.1885 104.008C62.5101 83.7615 97.7337 65.5058 141.304 50.165C228.44 19.4849 348.85 0.5 481.875 0.5Z" stroke="url(#paint0_linear_0_217)"/>
<defs>
<linearGradient id="paint0_linear_0_217" x1="481.875" y1="0" x2="481.875" y2="339.331" gradientUnits="userSpaceOnUse">
<stop stop-opacity="0"/>
<stop offset="0.479167" stop-color="#763CAC"/>
</linearGradient>
</defs>
</svg>
