<svg preserveAspectRatio="none" width="100%" height="100%" overflow="visible" style="display: block;" viewBox="0 0 1111.34 339.331" fill="none" xmlns="http://www.w3.org/2000/svg">
<path id="Ellipse 21" d="M555.67 0.5C709.078 0.500005 847.944 19.4866 948.441 50.1719C998.693 65.5155 1039.32 83.7758 1067.38 104.029C1095.45 124.291 1110.84 146.478 1110.84 169.665C1110.84 192.853 1095.45 215.04 1067.38 235.302C1039.32 255.555 998.693 273.815 948.441 289.158C847.944 319.843 709.078 338.831 555.67 338.831C402.261 338.831 263.395 319.844 162.897 289.158C112.646 273.815 72.016 255.555 43.96 235.302C15.8923 215.04 0.5 192.853 0.5 169.665C0.500142 146.478 15.8924 124.291 43.96 104.029C72.016 83.7758 112.646 65.5154 162.897 50.1719C263.395 19.4866 402.261 0.5 555.67 0.5Z" stroke="url(#paint0_linear_0_218)"/>
<defs>
<linearGradient id="paint0_linear_0_218" x1="555.67" y1="0" x2="555.67" y2="339.331" gradientUnits="userSpaceOnUse">
<stop stop-opacity="0"/>
<stop offset="0.479167" stop-color="#763CAC"/>
</linearGradient>
</defs>
</svg>
