<svg preserveAspectRatio="none" width="100%" height="100%" overflow="visible" style="display: block;" viewBox="0 0 17.1439 19.4931" fill="none" xmlns="http://www.w3.org/2000/svg">
<g id="Group 1900">
<path id="Vector" d="M14.2977 0H2.84615C1.27426 0 0 1.48602 0 3.31912V16.1739C0 18.007 1.27426 19.493 2.84615 19.493H14.2977C15.8696 19.493 17.1439 18.007 17.1439 16.1739V3.31912C17.1439 1.48602 15.8696 0 14.2977 0Z" fill="url(#paint0_linear_0_221)"/>
<path id="Vector_2" d="M9.01253 5.12727L6.87337 9.24478L9.162 13.617C9.17674 13.6477 9.18082 13.6836 9.17352 13.7176C9.16997 13.7322 9.16234 13.7358 9.15062 13.7363L9.13763 13.7361L9.12182 13.7356C9.11325 13.7356 9.10368 13.7361 9.09303 13.7381H7.44293L7.41052 13.7375C7.32158 13.7347 7.2575 13.7199 7.21845 13.6438C7.06577 13.297 6.91242 12.9505 6.75838 12.6044C6.6206 12.2958 6.47906 11.9894 6.3338 11.6855L6.26965 11.5516C6.09592 11.1915 5.92532 10.8294 5.75788 10.4653H5.74636C5.59173 10.8256 5.43262 11.1833 5.26908 11.5382C5.10413 11.8959 4.9412 12.2514 4.78028 12.6044C4.61926 12.9578 4.45441 13.3088 4.28578 13.6573C4.25866 13.7283 4.21359 13.7432 4.15084 13.7456L4.12472 13.7461H2.54916L2.54233 13.7463L2.51983 13.7486C2.50731 13.7495 2.49981 13.7464 2.4974 13.7243C2.49308 13.6916 2.49923 13.6582 2.51468 13.6305L4.73427 9.37887L2.57213 5.114C2.54916 5.07839 2.54535 5.04933 2.56062 5.02684C2.5691 5.01538 2.57976 5.00638 2.59174 5.00056C2.60373 4.99473 2.61671 4.99223 2.62966 4.99326H4.25123C4.28659 4.991 4.32194 4.99788 4.35476 5.01341C4.38222 5.0316 4.40586 5.05683 4.42374 5.08721C4.56176 5.44489 4.71512 5.80258 4.88381 6.16011C5.05119 6.51538 5.22179 6.86858 5.39558 7.21965C5.5667 7.56528 5.72593 7.91874 5.87286 8.27919H5.88438C6.03497 7.91883 6.19024 7.56115 6.35014 7.20629C6.50718 6.85759 6.66824 6.50654 6.83312 6.15339C6.9959 5.80477 7.15501 5.45382 7.3104 5.10064C7.31924 5.06753 7.33505 5.03754 7.35641 5.01341C7.38482 4.99664 7.41673 4.98965 7.44842 4.99326H8.95501C8.96886 4.98923 8.98345 4.99056 8.9966 4.99704C9.00975 5.00352 9.02074 5.01481 9.02791 5.0292C9.03509 5.04359 9.03806 5.06031 9.03639 5.07684C9.03471 5.09337 9.02848 5.10882 9.01863 5.12087L9.0126 5.12743L9.01253 5.12727ZM12.3924 13.9111L12.3131 13.9121C11.7838 13.9215 11.2593 13.7932 10.7777 13.5366C10.3292 13.2945 9.95421 12.8993 9.70244 12.4033C9.44856 11.9116 9.31824 11.2988 9.31168 10.5652L9.31141 10.5055C9.3071 9.88995 9.442 9.28394 9.7025 8.74855C9.96322 8.21864 10.3433 7.78204 10.8016 7.48604L10.841 7.46105C11.3393 7.13913 11.9412 6.97817 12.6466 6.97817L12.6774 6.97856L12.7127 6.97989L12.7522 6.98192L12.7961 6.98489L12.8699 6.99098L12.9535 6.99879L13.0146 7.00504V4.36286C13.0146 4.30038 13.0377 4.26899 13.0836 4.26899H14.5327C14.5421 4.26742 14.5516 4.26842 14.5606 4.27191C14.5696 4.2754 14.5778 4.28128 14.5845 4.28908C14.5912 4.29689 14.5962 4.30641 14.5992 4.31688C14.6022 4.32736 14.603 4.3385 14.6017 4.34943V12.2759C14.6017 12.409 14.6061 12.5523 14.615 12.7057L14.6364 13.0537L14.6478 13.2549C14.6492 13.2828 14.6434 13.3105 14.631 13.3344C14.6187 13.3584 14.6005 13.3774 14.5787 13.3891C14.2049 13.5709 13.8155 13.7057 13.4172 13.7914C13.079 13.8641 12.7362 13.9042 12.3924 13.9111V13.9111ZM13.0146 12.249V8.5876C12.9525 8.56797 12.889 8.55451 12.8249 8.54738C12.7465 8.53818 12.6678 8.5337 12.5891 8.53394C12.31 8.53072 12.0342 8.60425 11.7841 8.74855C11.5404 8.8898 11.3324 9.10239 11.1803 9.36552C11.0285 9.62449 10.9499 9.96265 10.9448 10.38L10.9445 10.4251C10.9389 10.7174 10.9798 11.0084 11.0652 11.2833C11.1348 11.5049 11.2447 11.7063 11.3874 11.8735C11.5239 12.0274 11.6893 12.1422 11.8703 12.2088C12.0616 12.281 12.2615 12.3173 12.4626 12.3162C12.5699 12.3162 12.6695 12.3117 12.7616 12.3027C12.8351 12.2962 12.9078 12.2821 12.9791 12.2605L13.0146 12.249V12.249Z" fill="var(--fill-0, black)"/>
</g>
<defs>
<linearGradient id="paint0_linear_0_221" x1="8.57193" y1="0" x2="8.57193" y2="19.493" gradientUnits="userSpaceOnUse">
<stop stop-color="#693B93" stop-opacity="0.53"/>
<stop offset="1" stop-color="#693B93"/>
</linearGradient>
</defs>
</svg>
