<svg preserveAspectRatio="none" width="100%" height="100%" overflow="visible" style="display: block;" viewBox="0 0 25.3466 26.3233" fill="none" xmlns="http://www.w3.org/2000/svg">
<g id="Group">
<path id="Vector" d="M25.3466 13.1647C25.3466 11.2065 23.2438 9.35043 20.0196 8.2001C20.7641 4.36856 20.4335 1.31909 18.9761 0.342426C18.623 0.11177 18.2233 -0.00433143 17.8186 0.00619624V1.34865C18.0562 1.34865 18.2474 1.40407 18.4079 1.5063C19.1102 1.97677 19.4155 3.76507 19.1778 6.06695C19.1208 6.63349 19.0279 7.22959 18.9138 7.83801C17.8341 7.53459 16.7382 7.31529 15.6335 7.18156C14.9754 6.12273 14.2574 5.11632 13.4844 4.16904C15.1689 2.34379 16.7498 1.34373 17.825 1.34373V3.81896e-05C16.4034 3.81896e-05 14.5436 1.18115 12.6627 3.22932C10.7828 1.1947 8.92199 0.0246704 7.50152 0.0246704V1.36713C8.57136 1.36713 10.1576 2.36227 11.8421 4.1752C11.1187 5.06196 10.3953 6.06695 9.70773 7.18156C8.60075 7.3138 7.50295 7.5352 6.42218 7.84417C6.30796 7.26752 6.21808 6.68467 6.15288 6.09774C5.90997 3.79463 6.20991 2.00633 6.90799 1.53093C7.06218 1.42255 7.2639 1.37328 7.50152 1.37328V0.0308284C7.06852 0.0308284 6.67459 0.13921 6.33453 0.367058C4.88238 1.34373 4.5571 4.3858 5.30588 8.20626C2.09215 9.36398 0 11.2126 0 13.1647C0 15.123 2.10271 16.979 5.327 18.1281C4.58245 21.9609 4.91301 25.0104 6.37043 25.9858C6.70628 26.2149 7.09915 26.3233 7.53215 26.3233C8.95367 26.3233 10.8135 25.1421 12.6944 23.094C14.5743 25.1298 16.4341 26.2986 17.8556 26.2986C18.2634 26.3087 18.6661 26.1922 19.0226 25.9612C20.4747 24.9857 20.8 21.9436 20.0512 18.1232C23.2544 16.9729 25.3466 15.1168 25.3466 13.1647ZM18.6192 9.14598C18.4185 9.95128 18.1859 10.7453 17.9221 11.5255C17.4903 10.546 17.0163 9.59276 16.5017 8.66935C17.2357 8.7962 17.9432 8.95262 18.6202 9.14598H18.6192ZM16.2535 15.5627C15.8667 16.3502 15.4512 17.1182 15.0083 17.8646C13.4582 18.0239 11.8992 18.0259 10.3488 17.8707C9.45949 16.3893 8.68176 14.821 8.0243 13.1832C8.68075 11.5416 9.45518 9.96772 10.3393 8.47845C11.889 8.31879 13.4477 8.31632 14.9978 8.47106C15.4265 9.18786 15.8458 9.95392 16.2482 10.7619C16.6411 11.5501 16.998 12.3506 17.3233 13.1586C16.9944 13.9763 16.6375 14.7783 16.2535 15.5627V15.5627ZM17.9221 14.7794C18.2009 15.5861 18.4396 16.394 18.635 17.1773C17.9591 17.3707 17.2452 17.5333 16.5069 17.6589C17.0194 16.7271 17.4917 15.766 17.9221 14.7794V14.7794ZM12.6838 21.2084C12.2033 20.6295 11.7228 19.9854 11.2475 19.2797C11.7122 19.3043 12.1875 19.3228 12.668 19.3228C13.1538 19.3228 13.6343 19.3105 14.1043 19.2797C13.6396 19.9854 13.1591 20.6295 12.6838 21.2084ZM8.83961 17.6589C8.12752 17.5386 7.42059 17.3799 6.72106 17.1835C6.91222 16.4063 7.14984 15.6045 7.41809 14.804C7.63037 15.2843 7.85321 15.7671 8.09611 16.2499C8.33902 16.7315 8.58614 17.2019 8.83961 17.6589ZM12.6574 5.12108C13.138 5.69993 13.6185 6.34407 14.0937 7.04978C13.6291 7.02515 13.1538 7.00667 12.6733 7.00667C12.1875 7.00667 11.7069 7.01899 11.237 7.04978C11.7017 6.34407 12.1822 5.69993 12.6574 5.12108ZM8.83433 8.67058C8.32198 9.60036 7.84967 10.5593 7.41915 11.5439C7.14795 10.7587 6.91004 9.95844 6.70628 9.14598C7.38218 8.95878 8.09611 8.7962 8.83433 8.67058ZM4.15895 16.213C2.32977 15.304 1.14693 14.1106 1.14693 13.1647C1.14693 12.2189 2.32977 11.0193 4.15895 10.1165C4.60251 9.89357 5.08832 9.69405 5.58997 9.50807C5.88462 10.688 6.27222 11.9171 6.75169 13.177C6.299 14.3621 5.91616 15.5817 5.60581 16.8275C5.1152 16.6504 4.63233 16.4453 4.15895 16.213V16.213ZM6.93862 24.8219C6.23631 24.3539 5.93109 22.5631 6.16872 20.2625C6.22575 19.696 6.31868 19.0986 6.43274 18.4902C7.44449 18.7796 8.55024 19.0026 9.71301 19.1479C10.3711 20.2067 11.0891 21.2131 11.8622 22.1604C10.1777 23.9857 8.59671 24.9857 7.52159 24.9857C7.31875 24.9883 7.11851 24.9325 6.93862 24.8232V24.8219ZM19.1937 20.2317C19.4366 22.5336 19.1366 24.3231 18.4386 24.7985C18.2844 24.9069 18.0827 24.9549 17.845 24.9549C16.7752 24.9549 15.1889 23.961 13.5044 22.1469C14.2743 21.2035 14.9874 20.1994 15.6388 19.1417C16.7458 19.0095 17.8436 18.7881 18.9244 18.4791C19.0437 19.0875 19.1356 19.6713 19.1937 20.2317V20.2317ZM21.1823 16.213C20.7388 16.4359 20.253 16.6354 19.7513 16.8214C19.4355 15.5692 19.0474 14.3434 18.5896 13.1524C19.0648 11.8999 19.4461 10.6769 19.7355 9.50192C20.2276 9.67966 20.7122 9.88475 21.1876 10.1165C23.0168 11.0254 24.1996 12.2189 24.1996 13.1647C24.1943 14.1106 23.0115 15.3102 21.1823 16.213V16.213Z" fill="url(#paint0_linear_0_200)"/>
<path id="Vector_2" d="M12.6681 15.917C13.2944 15.917 13.8951 15.6269 14.3379 15.1104C14.7808 14.594 15.0296 13.8935 15.0296 13.1631C15.0296 12.4328 14.7808 11.7323 14.3379 11.2159C13.8951 10.6994 13.2944 10.4093 12.6681 10.4093C12.0418 10.4093 11.4412 10.6994 10.9983 11.2159C10.5555 11.7323 10.3067 12.4328 10.3067 13.1631C10.3067 13.8935 10.5555 14.594 10.9983 15.1104C11.4412 15.6269 12.0418 15.917 12.6681 15.917V15.917Z" fill="url(#paint1_linear_0_200)"/>
</g>
<defs>
<linearGradient id="paint0_linear_0_200" x1="12.6733" y1="3.81896e-05" x2="12.6733" y2="26.3233" gradientUnits="userSpaceOnUse">
<stop stop-color="#693B93" stop-opacity="0.53"/>
<stop offset="1" stop-color="#693B93"/>
</linearGradient>
<linearGradient id="paint1_linear_0_200" x1="12.6681" y1="10.4093" x2="12.6681" y2="15.917" gradientUnits="userSpaceOnUse">
<stop stop-color="#693B93" stop-opacity="0.53"/>
<stop offset="1" stop-color="#693B93"/>
</linearGradient>
</defs>
</svg>
