<svg preserveAspectRatio="none" width="100%" height="100%" overflow="visible" style="display: block;" viewBox="0 0 15.1374 18.5889" fill="none" xmlns="http://www.w3.org/2000/svg">
<g id="Group 1902">
<path id="Vector" d="M0.631991 0.794631H14.5076V17.7943H0.631991V0.794631ZM3.49503e-06 18.5889H15.1374V5.45566e-06H3.49503e-06V18.5889ZM9.91502 6.62529C9.91502 6.56196 9.93394 6.52996 9.99071 6.52996H10.9811C11.0314 6.52996 11.0568 6.55379 11.0568 6.62529V12.8931C11.0568 12.9564 11.0444 12.9884 10.9811 12.9884H10.0042C9.94097 12.9884 9.92205 12.9489 9.92205 12.8849V6.62529H9.91556H9.91502ZM9.84582 4.82223C9.84582 4.60733 9.9136 4.40123 10.0343 4.24927C10.1549 4.09731 10.3185 4.01195 10.4892 4.01195C10.6598 4.01195 10.8234 4.09731 10.9441 4.24927C11.0647 4.40123 11.1325 4.60733 11.1325 4.82223C11.1387 4.93201 11.1259 5.04219 11.095 5.14512C11.0641 5.24806 11.0158 5.3413 10.9534 5.41837C10.891 5.49545 10.8161 5.55452 10.7338 5.5915C10.6515 5.62848 10.5638 5.64247 10.4767 5.63252C10.3915 5.63925 10.306 5.62277 10.2263 5.5842C10.1465 5.54562 10.0743 5.48585 10.0146 5.40896C9.95478 5.33207 9.90887 5.23986 9.87994 5.13861C9.85101 5.03737 9.83975 4.92946 9.8469 4.82223H9.84582ZM7.00755 9.23932C6.83077 8.35413 6.41287 6.43532 6.25717 5.50587H6.24473C6.11228 6.43532 5.77818 8.00822 5.51327 9.23932H7.00755ZM5.25431 10.5262L4.75586 12.9094C4.74343 12.9728 4.7245 12.9891 4.66125 12.9891H3.73516C3.67191 12.9891 3.65948 12.9653 3.67191 12.8699L5.46299 4.97135C5.50659 4.75601 5.52785 4.53445 5.52625 4.31223C5.52625 4.25639 5.54517 4.23256 5.57652 4.23256H6.90105C6.94538 4.23256 6.9643 4.24822 6.97674 4.31223L8.98245 12.8836C8.99488 12.9469 8.98245 12.9871 8.93217 12.9871H7.88498C7.8347 12.9871 7.80281 12.9714 7.79037 12.919L7.273 10.5276H5.25485L5.25431 10.5262Z" fill="url(#paint0_linear_0_188)"/>
</g>
<defs>
<linearGradient id="paint0_linear_0_188" x1="7.56872" y1="5.45566e-06" x2="7.56872" y2="18.5889" gradientUnits="userSpaceOnUse">
<stop stop-color="#693B93" stop-opacity="0.53"/>
<stop offset="1" stop-color="#693B93"/>
</linearGradient>
</defs>
</svg>
