<svg preserveAspectRatio="none" width="100%" height="100%" overflow="visible" style="display: block;" viewBox="0 0 25.6223 14.4948" fill="none" xmlns="http://www.w3.org/2000/svg">
<g id="Group 1901">
<path id="Vector" d="M18.4476 7.90133C19.7957 6.99838 21.1402 6.08808 22.4929 5.19459C23.7768 4.34615 25.2873 5.12853 25.5784 6.77942C25.7469 7.73442 25.3813 8.76611 24.6419 9.26859C22.218 10.9159 19.7906 12.5566 17.3511 14.1722C16.596 14.6723 15.8182 14.5803 15.1301 13.9675C14.4311 13.3454 14.2108 12.4873 14.3748 11.4885C14.5619 10.7282 14.9903 10.2199 15.5745 9.83958C16.5403 9.21093 17.4907 8.54913 18.4476 7.90133" fill="url(#paint0_linear_0_194)"/>
<path id="Vector_2" d="M19.4373 7.24609C18.0926 6.33614 16.7445 5.43331 15.4045 4.51414C14.1325 3.64154 13.9584 1.72476 15.0387 0.605184C15.6637 -0.0422625 16.6126 -0.18898 17.3554 0.306497C19.7908 1.93089 22.2229 3.56217 24.6424 5.21808C25.3913 5.7306 25.7118 6.56223 25.601 7.56357C25.4884 8.58044 24.9614 9.23197 24.1377 9.56591C23.4794 9.75709 22.8878 9.57851 22.3133 9.17863C21.3635 8.51741 20.3968 7.88852 19.4373 7.24609" fill="url(#paint1_linear_0_194)"/>
<path id="Vector_3" d="M7.18147 6.60204C6.31861 7.17374 5.45526 7.74438 4.5932 8.31783C4.08906 8.65328 3.59033 9.00018 3.08358 9.33003C2.06239 9.99475 0.84913 9.60514 0.270124 8.43432C-0.28246 7.31707 0.0351182 5.86857 1.01858 5.19907C3.42318 3.5623 5.83399 1.93744 8.2535 0.330671C8.99555 -0.162005 9.76543 -0.100026 10.4516 0.48906C11.1759 1.11083 11.413 1.98576 11.2503 3.01138C11.1494 3.25965 11.0892 3.55063 10.9381 3.74614C10.6924 4.0642 10.4132 4.36872 10.1023 4.59236C9.14028 5.28416 8.15662 5.93522 7.18147 6.60204" fill="url(#paint2_linear_0_194)"/>
<path id="Vector_4" d="M6.19213 7.24278C7.04817 7.82825 7.90362 8.415 8.76047 8.99884C9.26161 9.34036 9.76855 9.67056 10.2669 10.0173C11.2712 10.7165 11.5885 12.1365 11.0085 13.3066C10.4551 14.4234 9.22067 14.827 8.23171 14.1684C5.8139 12.5582 3.40189 10.936 0.998985 9.29578C0.26204 8.79271 -0.0768563 7.98419 0.0175263 6.99662C0.117113 5.95419 0.648278 5.27733 1.49132 4.92869C1.72602 4.90663 1.97224 4.82189 2.19303 4.87675C2.55204 4.96592 2.91786 5.0956 3.23934 5.29776C4.23411 5.92338 5.20937 6.59125 6.19213 7.24278" fill="url(#paint3_linear_0_194)"/>
</g>
<defs>
<linearGradient id="paint0_linear_0_194" x1="19.9711" y1="4.84872" x2="19.9711" y2="14.4946" gradientUnits="userSpaceOnUse">
<stop stop-color="#693B93" stop-opacity="0.53"/>
<stop offset="1" stop-color="#693B93"/>
</linearGradient>
<linearGradient id="paint1_linear_0_194" x1="19.9751" y1="0.0111001" x2="19.9751" y2="9.64283" gradientUnits="userSpaceOnUse">
<stop stop-color="#693B93" stop-opacity="0.53"/>
<stop offset="1" stop-color="#693B93"/>
</linearGradient>
<linearGradient id="paint2_linear_0_194" x1="5.64962" y1="4.11819e-09" x2="5.64962" y2="9.65347" gradientUnits="userSpaceOnUse">
<stop stop-color="#693B93" stop-opacity="0.53"/>
<stop offset="1" stop-color="#693B93"/>
</linearGradient>
<linearGradient id="paint3_linear_0_194" x1="5.64965" y1="4.85858" x2="5.64965" y2="14.486" gradientUnits="userSpaceOnUse">
<stop stop-color="#693B93" stop-opacity="0.53"/>
<stop offset="1" stop-color="#693B93"/>
</linearGradient>
</defs>
</svg>
