<svg preserveAspectRatio="none" width="100%" height="100%" overflow="visible" style="display: block;" viewBox="0 0 15.8615 18.8533" fill="none" xmlns="http://www.w3.org/2000/svg">
<g id="Group 1903">
<path id="Vector" fill-rule="evenodd" clip-rule="evenodd" d="M1.96149e-07 1.57509C1.96149e-07 1.15735 0.139615 0.756723 0.38813 0.461336C0.636645 0.165949 0.973704 2.09982e-06 1.32516 2.09982e-06H14.5349C14.7091 -0.000336015 14.8816 0.0401617 15.0426 0.119177C15.2036 0.198192 15.3499 0.314172 15.4731 0.460478C15.5963 0.606783 15.6941 0.780541 15.7607 0.971803C15.8274 1.16306 15.8616 1.36807 15.8615 1.57509V17.2763C15.8617 17.4834 15.8275 17.6884 15.761 17.8798C15.6944 18.0711 15.5968 18.245 15.4736 18.3915C15.3505 18.5379 15.2043 18.6541 15.0433 18.7333C14.8824 18.8125 14.7098 18.8532 14.5356 18.8531H1.32516C1.15108 18.8531 0.978698 18.8123 0.817875 18.7331C0.657053 18.6539 0.510937 18.5378 0.387875 18.3915C0.264813 18.2451 0.167218 18.0714 0.100665 17.8802C0.0341118 17.689 -9.45171e-05 17.4841 1.96149e-07 17.2772V1.57509ZM6.27828 7.18818H8.42607V8.47019C8.73609 7.73321 9.52917 7.06992 10.7209 7.06992C13.0057 7.06992 13.5472 8.53789 13.5472 11.2313V16.2205H11.235V11.8449C11.235 10.3109 10.925 9.44541 10.1377 9.44541C9.04539 9.44541 8.59118 10.3786 8.59118 11.8449V16.2205H6.27828V7.18818ZM2.3129 16.1031H4.6258V7.06992H2.3129V16.1023V16.1031ZM4.95672 4.12369C4.96109 4.35908 4.92585 4.59312 4.85308 4.8121C4.78031 5.03108 4.67147 5.23057 4.53296 5.39888C4.39444 5.56718 4.22904 5.7009 4.04646 5.7922C3.86387 5.88349 3.66779 5.93052 3.46971 5.93052C3.27163 5.93052 3.07554 5.88349 2.89296 5.7922C2.71037 5.7009 2.54497 5.56718 2.40646 5.39888C2.26794 5.23057 2.15911 5.03108 2.08634 4.8121C2.01357 4.59312 1.97833 4.35908 1.98269 4.12369C1.99125 3.66167 2.15168 3.22199 2.42961 2.89883C2.70755 2.57566 3.0809 2.39471 3.46971 2.39471C3.85851 2.39471 4.23186 2.57566 4.5098 2.89883C4.78774 3.22199 4.94816 3.66167 4.95672 4.12369V4.12369Z" fill="url(#paint0_linear_0_215)"/>
</g>
<defs>
<linearGradient id="paint0_linear_0_215" x1="7.93076" y1="0" x2="7.93076" y2="18.8531" gradientUnits="userSpaceOnUse">
<stop stop-color="#693B93" stop-opacity="0.53"/>
<stop offset="1" stop-color="#693B93"/>
</linearGradient>
</defs>
</svg>
