<svg preserveAspectRatio="none" width="100%" height="100%" overflow="visible" style="display: block;" viewBox="0 0 386.004 346.9" fill="none" xmlns="http://www.w3.org/2000/svg">
<g id="Group 1907">
<path id="Ellipse 24" d="M193.002 0.500071C299.37 0.500071 385.505 77.9817 385.505 173.45C385.505 268.919 299.369 346.399 193.002 346.399C86.6347 346.399 0.500298 268.919 0.500013 173.45C0.500013 77.9817 86.6345 0.500204 193.002 0.500071Z" stroke="url(#paint0_linear_0_205)"/>
<path id="Ellipse 25" d="M192.372 115.292C243.683 115.292 290.112 126.855 323.696 145.526C357.296 164.205 377.936 189.932 377.936 218.232C377.936 246.532 357.296 272.257 323.696 290.937C290.112 309.607 243.683 321.17 192.372 321.17C141.06 321.17 94.6311 309.607 61.0475 290.937C27.4471 272.257 6.80742 246.532 6.80725 218.232C6.80725 189.932 27.447 164.205 61.0475 145.526C94.6311 126.856 141.06 115.292 192.372 115.292Z" stroke="url(#paint1_linear_0_205)"/>
</g>
<defs>
<linearGradient id="paint0_linear_0_205" x1="193.002" y1="7.09235e-05" x2="193.002" y2="346.9" gradientUnits="userSpaceOnUse">
<stop offset="0.197917" stop-opacity="0"/>
<stop offset="1" stop-color="#763CAC"/>
</linearGradient>
<linearGradient id="paint1_linear_0_205" x1="192.371" y1="114.792" x2="192.371" y2="321.67" gradientUnits="userSpaceOnUse">
<stop offset="0.197917" stop-opacity="0"/>
<stop offset="1" stop-color="#763CAC"/>
</linearGradient>
</defs>
</svg>
