<svg preserveAspectRatio="none" width="100%" height="100%" overflow="visible" style="display: block;" viewBox="0 0 13.876 24.2727" fill="none" xmlns="http://www.w3.org/2000/svg">
<g id="Group">
<path id="Vector" fill-rule="evenodd" clip-rule="evenodd" d="M3.82894 0C1.7068 0 6.72469e-05 2.07632 6.72469e-05 4.61989C6.72469e-05 6.16626 0.631419 7.53969 1.60186 8.37811C1.10171 8.8151 0.696297 9.38267 0.418133 10.0353C0.13997 10.688 -0.00321173 11.4075 6.72469e-05 12.1363C6.72469e-05 13.6837 0.631419 15.0561 1.60186 15.8945C1.10171 16.3315 0.696297 16.8991 0.418133 17.5517C0.13997 18.2044 -0.00321173 18.9239 6.72469e-05 19.6528C6.72469e-05 22.1963 1.7068 24.2726 3.82894 24.2726C5.95021 24.2726 7.65781 22.1963 7.65781 19.6528V15.7469C8.32847 16.399 9.17386 16.7565 10.0471 16.7572C12.1692 16.7562 13.8759 14.6799 13.8759 12.1363C13.8794 11.4075 13.7363 10.6878 13.4581 10.0352C13.18 9.38247 12.7744 8.81494 12.2741 8.37811C12.7743 7.94111 13.1797 7.37355 13.4579 6.7209C13.736 6.06826 13.8792 5.3487 13.8759 4.61989C13.8759 2.07632 12.1692 0 10.0471 0H3.82894V0ZM1.43882 4.61989C1.43882 3.01082 2.51593 1.72235 3.82894 1.72235H6.21819V7.51744H3.82894C2.51593 7.51744 1.43882 6.22796 1.43882 4.61989V4.61989ZM10.0471 7.51643H7.65781V1.72134H10.0471C11.3609 1.72134 12.4372 3.01082 12.4372 4.61989C12.4372 6.22796 11.3609 7.51643 10.0471 7.51643ZM1.43969 12.1363C1.43969 10.5283 2.5168 9.23878 3.8298 9.23878H6.21905V15.0339H3.82894C2.51507 15.0339 1.43882 13.7444 1.43882 12.1363H1.43969ZM7.65781 12.1363C7.65781 10.5283 8.73492 9.23878 10.0479 9.23878C11.3618 9.23878 12.438 10.5272 12.438 12.1363C12.438 13.7444 11.3618 15.0339 10.0479 15.0339C8.73492 15.0339 7.65868 13.7454 7.65868 12.1363H7.65781ZM1.43969 19.6528C1.43969 18.0447 2.5168 16.7562 3.8298 16.7562H6.21905V19.6528C6.21905 21.2618 5.14368 22.5503 3.8298 22.5503C2.5168 22.5503 1.43969 21.2618 1.43969 19.6528Z" fill="url(#paint0_linear_0_209)"/>
</g>
<defs>
<linearGradient id="paint0_linear_0_209" x1="6.938" y1="0" x2="6.938" y2="24.2726" gradientUnits="userSpaceOnUse">
<stop stop-color="#693B93" stop-opacity="0.53"/>
<stop offset="1" stop-color="#693B93"/>
</linearGradient>
</defs>
</svg>
