<svg preserveAspectRatio="none" width="100%" height="100%" overflow="visible" style="display: block;" viewBox="0 0 20.1832 27.9505" fill="none" xmlns="http://www.w3.org/2000/svg">
<path id="Vector" d="M10.0871 27.9505C9.78445 27.9505 9.47727 27.8507 9.21075 27.6621L6.42358 25.6377C6.00799 25.3493 6.21127 25.2495 6.34679 25.194C6.90242 24.9555 7.01535 24.9056 7.60711 24.4897C7.67036 24.4453 7.75167 24.4619 7.81491 24.5118L9.9561 26.0704C10.0329 26.1258 10.1413 26.1258 10.2136 26.0704L18.557 20.158C18.6338 20.1025 18.6835 19.9916 18.6835 19.8807V8.05599C18.6835 7.93952 18.6338 7.83414 18.5525 7.77313L10.2136 1.86633C10.1368 1.81087 10.0329 1.81087 9.9561 1.86633L1.62171 7.77868C1.5404 7.83414 1.4907 7.94507 1.4907 8.06154V19.8807C1.4907 19.9916 1.5404 20.1025 1.62171 20.1525L3.90745 21.772C5.14971 22.5318 5.90861 21.6389 5.90861 20.7348V9.06542C5.90861 8.89903 6.01703 8.77146 6.15255 8.77146H7.20959C7.34059 8.77146 7.45352 8.89903 7.45352 9.06542V20.7404C7.45352 22.7703 6.55007 23.935 4.98257 23.935C4.49922 23.935 4.11977 23.935 3.06272 23.2917L0.876354 21.7442C0.334279 21.3616 0 20.6461 0 19.8751V8.05599C0 7.2906 0.334279 6.56958 0.876354 6.18689L9.21075 0.274542C9.73927 -0.0915138 10.4395 -0.0915138 10.9635 0.274542L19.3069 6.19244C19.849 6.57513 20.1832 7.2906 20.1832 8.06154V19.8807C20.1832 20.6461 19.849 21.3616 19.3069 21.7498L10.9635 27.6621C10.6969 27.8507 10.3943 27.9505 10.0871 27.9505ZM16.8224 16.2978C16.8224 14.0848 15.6027 13.4969 13.0414 13.0809C10.4485 12.6594 10.1865 12.4431 10.1865 11.6999C10.1865 11.0843 10.4078 10.2634 12.3277 10.2634C14.0397 10.2634 14.6721 10.7182 14.9342 12.1381C14.9567 12.2712 15.0561 12.371 15.1691 12.371H16.2532C16.321 12.371 16.3842 12.3377 16.4294 12.2767C16.4745 12.2157 16.4971 12.1325 16.4926 12.0493C16.3255 9.60341 15.0019 8.46642 12.3277 8.46642C9.94707 8.46642 8.52864 9.69769 8.52864 11.7665C8.52864 14.0072 9.94255 14.6283 12.2238 14.9057C14.9567 15.2329 15.1691 15.7265 15.1691 16.3865C15.1691 17.5291 14.4192 18.0171 12.662 18.0171C10.453 18.0171 9.96965 17.3349 9.80703 15.9872C9.78896 15.843 9.68958 15.7376 9.56762 15.7376H8.48798C8.35247 15.7376 8.24857 15.8707 8.24857 16.0316C8.24857 17.7565 9.01199 19.8141 12.6665 19.8141C15.3046 19.8086 16.8224 18.5274 16.8224 16.2978V16.2978Z" fill="url(#paint0_linear_0_227)"/>
<defs>
<linearGradient id="paint0_linear_0_227" x1="10.0916" y1="6.6117e-09" x2="10.0916" y2="27.9505" gradientUnits="userSpaceOnUse">
<stop stop-color="#693B93" stop-opacity="0.53"/>
<stop offset="1" stop-color="#693B93"/>
</linearGradient>
</defs>
</svg>
