<svg preserveAspectRatio="none" width="100%" height="100%" overflow="visible" style="display: block;" viewBox="0 0 17.6603 22.0662" fill="none" xmlns="http://www.w3.org/2000/svg">
<path id="Vector" fill-rule="evenodd" clip-rule="evenodd" d="M8.83017 0C3.95297 0 0 4.94008 0 11.0331C0 17.1261 3.95297 22.0662 8.83017 22.0662C13.7066 22.0662 17.6603 17.1261 17.6603 11.0331C17.6603 4.94008 13.7066 0 8.83017 0ZM8.93319 17.4856C6.08693 17.4856 3.78225 14.5986 3.78225 11.0331C3.78225 7.46758 6.08693 4.58058 8.93319 4.58058C10.3239 4.58058 11.4866 5.22142 12.3784 6.26221L10.9259 8.08083V8.07716C10.385 7.43172 9.6992 7.10073 8.93319 7.10073C7.23338 7.10073 5.85219 8.89912 5.85219 11.0294C5.85219 13.1579 7.23338 14.9618 8.93319 14.9618C10.4755 14.9618 11.5248 13.8567 11.7412 12.3396H8.93319V9.82315H13.7787C13.8435 10.2553 13.8781 10.7058 13.8781 11.1784C13.8781 14.8653 11.9082 17.4856 8.93319 17.4856V17.4856Z" fill="url(#paint0_linear_0_193)"/>
<defs>
<linearGradient id="paint0_linear_0_193" x1="8.83017" y1="0" x2="8.83017" y2="22.0662" gradientUnits="userSpaceOnUse">
<stop stop-color="#693B93" stop-opacity="0.53"/>
<stop offset="1" stop-color="#693B93"/>
</linearGradient>
</defs>
</svg>
