<svg preserveAspectRatio="none" width="100%" height="100%" overflow="visible" style="display: block;" viewBox="0 0 16.3989 19.1241" fill="none" xmlns="http://www.w3.org/2000/svg">
<path id="Vector" d="M14.6419 0H1.75702C0.787 0 0 0.917784 0 2.04901V17.0751C0 18.2063 0.787 19.1241 1.75702 19.1241H14.6419C15.6119 19.1241 16.3989 18.2063 16.3989 17.0751V2.04901C16.3989 0.917784 15.6119 0 14.6419 0ZM8.92421 14.9151C8.92421 16.7762 7.98713 17.6257 6.62178 17.6257C5.3882 17.6257 4.67441 16.883 4.30837 15.9823L5.56391 15.0986C5.8055 15.5981 6.02513 16.0207 6.55589 16.0207C7.06104 16.0207 7.38316 15.7902 7.38316 14.8894V8.78085H8.92421V14.9151V14.9151ZM12.57 17.6257C11.1388 17.6257 10.2127 16.8317 9.76246 15.7902L11.018 14.9449C11.3474 15.5724 11.7794 16.0377 12.5371 16.0377C13.174 16.0377 13.584 15.6664 13.584 15.1498C13.584 14.5351 13.1667 14.3174 12.4602 13.9546L12.0759 13.7625C10.9631 13.2118 10.2273 12.516 10.2273 11.0518C10.2273 9.7029 11.1095 8.6784 12.4822 8.6784C13.4632 8.6784 14.166 9.07539 14.6711 10.117L13.4705 11.0134C13.207 10.4627 12.9214 10.245 12.4785 10.245C12.0283 10.245 11.7428 10.578 11.7428 11.0134C11.7428 11.5513 12.0283 11.769 12.6908 12.1062L13.0752 12.2983C14.3856 12.9514 15.1214 13.6216 15.1214 15.1242C15.1214 16.7378 14.0306 17.6257 12.57 17.6257V17.6257Z" fill="url(#paint0_linear_0_199)"/>
<defs>
<linearGradient id="paint0_linear_0_199" x1="8.19944" y1="0" x2="8.19944" y2="19.1241" gradientUnits="userSpaceOnUse">
<stop stop-color="#693B93" stop-opacity="0.53"/>
<stop offset="1" stop-color="#693B93"/>
</linearGradient>
</defs>
</svg>
