<svg preserveAspectRatio="none" width="100%" height="100%" overflow="visible" style="display: block;" viewBox="0 0 352.5 1" fill="none" xmlns="http://www.w3.org/2000/svg">
<path id="Line 3" d="M0.5 4.76837e-07C0.367392 -0.000190496 0.240215 0.0523206 0.146447 0.146092C0.0526784 0.239857 0 0.367201 0 0.5C0 0.6328 0.0526784 0.760144 0.146447 0.853909C0.240215 0.94768 0.367392 1.00019 0.5 1C6.36667 0.991667 12.2333 0.983334 18.1 0.975C123.7 0.825 229.3 0.675 334.9 0.525C340.767 0.516667 346.633 0.508334 352.5 0.5C346.633 0.491667 340.767 0.483334 334.9 0.475001C229.3 0.325 123.7 0.175 18.1 0.0250005C12.2333 0.0166671 6.36667 0.0083338 0.5 4.76837e-07Z" fill="var(--stroke-0, white)"/>
</svg>
